<svg width="324" height="228" viewBox="0 0 324 228" fill="none" xmlns="http://www.w3.org/2000/svg">
<path fill-rule="evenodd" clip-rule="evenodd" d="M227.734 224.31C228.011 224.027 228.279 223.734 228.532 223.429C228.279 223.734 228.011 224.027 227.734 224.31" fill="#EDF1F9"/>
<path fill-rule="evenodd" clip-rule="evenodd" d="M227.588 224.456C227.317 224.724 227.034 224.982 226.741 225.228C226.775 225.2 226.813 225.174 226.846 225.145C227.102 224.925 227.348 224.694 227.588 224.456" fill="#EDF1F9"/>
<path fill-rule="evenodd" clip-rule="evenodd" d="M229.431 222.222C229.661 221.876 229.877 221.52 230.077 221.153C229.877 221.52 229.661 221.876 229.431 222.222" fill="#EDF1F9"/>
<path fill-rule="evenodd" clip-rule="evenodd" d="M132.015 225.13C132.053 225.161 132.093 225.189 132.13 225.22C131.84 224.975 131.559 224.721 131.289 224.453C131.524 224.686 131.764 224.913 132.015 225.13" fill="#EDF1F9"/>
<path fill-rule="evenodd" clip-rule="evenodd" d="M223.422 227.31C223.656 227.206 223.885 227.095 224.111 226.978C223.885 227.095 223.655 227.206 223.422 227.31" fill="#EDF1F9"/>
<path fill-rule="evenodd" clip-rule="evenodd" d="M224.598 226.715C224.823 226.588 225.041 226.453 225.258 226.313C225.041 226.452 224.822 226.589 224.598 226.715" fill="#EDF1F9"/>
<path fill-rule="evenodd" clip-rule="evenodd" d="M228.644 223.289C228.902 222.97 229.148 222.643 229.378 222.304C229.149 222.643 228.902 222.97 228.644 223.289" fill="#EDF1F9"/>
<path fill-rule="evenodd" clip-rule="evenodd" d="M231.53 217.088C231.609 216.679 231.671 216.264 231.713 215.844C231.671 216.264 231.609 216.679 231.53 217.088" fill="#EDF1F9"/>
<path fill-rule="evenodd" clip-rule="evenodd" d="M230.112 221.092C230.309 220.726 230.487 220.348 230.651 219.964C230.487 220.348 230.309 220.726 230.112 221.092" fill="#EDF1F9"/>
<path fill-rule="evenodd" clip-rule="evenodd" d="M231.724 215.695C231.764 215.251 231.786 214.803 231.782 214.348C231.786 214.803 231.764 215.251 231.724 215.695" fill="#EDF1F9"/>
<path fill-rule="evenodd" clip-rule="evenodd" d="M230.72 219.808C230.874 219.436 231.011 219.055 231.133 218.667C231.011 219.055 230.874 219.436 230.72 219.808" fill="#EDF1F9"/>
<path fill-rule="evenodd" clip-rule="evenodd" d="M231.195 218.468C231.31 218.081 231.41 217.688 231.492 217.289C231.41 217.688 231.31 218.081 231.195 218.468" fill="#EDF1F9"/>
<path fill-rule="evenodd" clip-rule="evenodd" d="M129.498 222.299C129.729 222.641 129.978 222.97 130.237 223.291C129.978 222.97 129.729 222.641 129.498 222.299" fill="#EDF1F9"/>
<path fill-rule="evenodd" clip-rule="evenodd" d="M127.145 215.843C127.189 216.264 127.255 216.679 127.335 217.089C127.255 216.679 127.189 216.264 127.145 215.843" fill="#EDF1F9"/>
<path fill-rule="evenodd" clip-rule="evenodd" d="M127.374 217.286C127.458 217.686 127.56 218.079 127.677 218.466C127.56 218.079 127.458 217.686 127.374 217.286" fill="#EDF1F9"/>
<path fill-rule="evenodd" clip-rule="evenodd" d="M127.739 218.665C127.863 219.053 128 219.433 128.155 219.805C128 219.433 127.862 219.053 127.739 218.665" fill="#EDF1F9"/>
<path fill-rule="evenodd" clip-rule="evenodd" d="M48.8296 77.9258L42.7063 83.6428C42.8647 83.9837 42.9678 84.2263 42.9678 84.2263C42.9678 84.2263 45.1915 87.1913 44.5176 88.2021C44.4859 88.2492 44.4543 88.2897 44.4226 88.3348C46.0702 90.0181 47.7818 91.5808 49.6045 92.9999C50.7501 88.0518 50.269 82.8853 48.8296 77.9258" fill="#EDF1F9"/>
<path fill-rule="evenodd" clip-rule="evenodd" d="M127.065 214.348C127.065 214.803 127.091 215.252 127.133 215.697C127.091 215.252 127.065 214.803 127.065 214.348" fill="#EDF1F9"/>
<path fill-rule="evenodd" clip-rule="evenodd" d="M128.225 219.965C128.39 220.347 128.567 220.723 128.764 221.088C128.567 220.723 128.39 220.347 128.225 219.965" fill="#EDF1F9"/>
<path fill-rule="evenodd" clip-rule="evenodd" d="M128.806 221.161C129.007 221.528 129.223 221.884 129.454 222.231C129.223 221.884 129.007 221.528 128.806 221.161" fill="#EDF1F9"/>
<path fill-rule="evenodd" clip-rule="evenodd" d="M132.532 225.537C132.741 225.7 132.949 225.861 133.166 226.012C132.949 225.862 132.74 225.7 132.532 225.537" fill="#EDF1F9"/>
<path fill-rule="evenodd" clip-rule="evenodd" d="M133.621 226.312C133.836 226.45 134.053 226.584 134.276 226.711C134.053 226.584 133.836 226.449 133.621 226.312" fill="#EDF1F9"/>
<path fill-rule="evenodd" clip-rule="evenodd" d="M130.344 223.424C130.599 223.73 130.866 224.025 131.144 224.308C130.866 224.025 130.599 223.73 130.344 223.424" fill="#EDF1F9"/>
<path fill-rule="evenodd" clip-rule="evenodd" d="M134.767 226.975C134.993 227.092 135.222 227.203 135.455 227.308C135.222 227.203 134.993 227.092 134.767 226.975" fill="#EDF1F9"/>
<path fill-rule="evenodd" clip-rule="evenodd" d="M225.706 226.019C225.926 225.865 226.139 225.702 226.349 225.537C226.139 225.702 225.926 225.865 225.706 226.019" fill="#EDF1F9"/>
<path fill-rule="evenodd" clip-rule="evenodd" d="M125.245 97.0294C124.654 96.9249 124.156 96.7983 123.837 96.464C121.457 96.6291 119.234 97.0833 116.957 97.9054C114.598 98.714 112.172 99.7922 109.477 100.601C106.781 101.409 103.749 101.746 100.851 101.409C99.5671 101.26 98.3104 101.013 97.0786 100.696C96.5462 103.07 95.7726 105.831 95.0004 108.387C94.6001 109.92 94.243 111.382 93.9782 112.663C93.3717 115.291 93.6412 118.054 94.7194 120.547C96.5388 124.86 97.9539 131.733 97.4822 134.496C97.1985 134.576 96.9195 134.645 96.6392 134.716C97.1325 135.549 97.5604 136.422 97.8865 137.326C97.9694 137.56 98.0644 137.851 98.1635 138.165C97.9343 133.515 97.9317 128.851 98.1001 124.194C94.7046 117.028 100.515 109.02 100.515 108.957C104.44 117.225 101.294 122.688 99.6918 124.716C99.6257 126.546 99.5893 128.4 99.588 130.273C101.943 124.294 108.938 121.368 108.938 121.423C107.897 130.904 101.864 133.744 99.6473 134.473C99.7349 137.718 99.9249 140.998 100.245 144.284C102.349 137.916 109.814 134.833 109.814 134.833C108.791 144.145 102.955 147.048 100.648 147.841V147.841C101.007 149.436 101.366 151.118 101.711 152.84C102.463 152.898 103.205 152.979 103.924 153.12C106.618 148.957 111.094 146.715 111.094 146.76C110.957 150.732 109.868 153.61 108.49 155.684C109.883 157.368 110.582 159.626 111.316 161.88C113.299 160.188 115.07 159.294 115.07 159.294C114.964 162.367 114.286 164.782 113.347 166.682C113.74 167.304 114.189 167.884 114.733 168.391C117.765 171.153 122.28 170.951 126.256 171.962C126.525 172.03 126.796 172.114 127.064 172.211V95.5894C126.504 96.3778 125.81 97.1291 125.245 97.0294" fill="#E0E9F8"/>
<path fill-rule="evenodd" clip-rule="evenodd" d="M74.7735 34.8326C75.2917 34.9741 75.8429 35.1486 76.3807 35.1486C76.6125 35.1486 76.8416 35.1163 77.0646 35.0348C77.8059 34.8326 78.5471 33.8892 77.5363 33.2154C77.1522 32.9593 76.7385 32.8589 76.318 32.8589C75.6327 32.8589 74.9285 33.1251 74.3018 33.4175C74.0997 33.5523 73.8975 33.6871 73.8301 33.8892C73.6954 34.3609 74.3018 34.6978 74.7735 34.8326" fill="#E0E9F8"/>
<path fill-rule="evenodd" clip-rule="evenodd" d="M180.771 20.8166C180.771 18.9298 178.682 17.3799 176.121 17.3799C176.009 17.3826 175.891 17.384 175.767 17.384C175.366 17.384 174.907 17.3705 174.417 17.357C173.927 17.3436 173.405 17.3301 172.878 17.3301C170.384 17.3301 167.766 17.6326 167.766 19.671C167.766 20.6919 167.766 22.1091 169.092 23.1077H179.52C180.295 22.51 180.771 21.7169 180.771 20.8166" fill="#E0E9F8"/>
<path fill-rule="evenodd" clip-rule="evenodd" d="M81.1076 34.563C81.5887 34.937 82.1965 35.057 82.8313 35.057C82.9964 35.057 83.1642 35.0489 83.3313 35.0347C86.2289 34.9 89.0591 33.8218 91.3502 32.0698C93.7161 30.1439 89.3879 28.6675 86.8394 28.6675C86.2666 28.6675 85.7841 28.7416 85.4876 28.9027C85.2181 29.0374 85.0833 29.307 84.9486 29.5765C84.4095 30.3851 83.4661 30.9242 82.5227 31.3285C81.9836 31.5307 81.3771 31.7328 80.9728 32.1372C80.299 32.811 80.3663 34.0239 81.1076 34.563" fill="#E0E9F8"/>
<path fill-rule="evenodd" clip-rule="evenodd" d="M80.0968 48.7141L78.1426 50.5335L82.3205 54.3745L78.9512 58.2155L74.9755 54.644L73.493 56.396L77.334 60.237L72.4822 65.1562L67.6305 60.3718L48.8299 77.9257C50.2686 82.8853 50.7497 88.0517 49.6049 92.9998C49.7976 93.1501 49.9822 93.3111 50.1776 93.458C51.8394 94.6629 53.5786 95.7633 55.394 96.6373C55.398 96.3886 55.4088 96.1373 55.4337 95.8839C55.7706 92.0429 58.7356 88.8758 62.4418 88.1346C63.1157 87.9998 63.7221 87.9324 64.3286 87.9324C65.8111 87.9324 67.1588 87.0564 67.6979 85.6413C69.1803 81.6656 73.0887 78.9028 77.6035 79.1723C78.4822 79.2188 79.3272 79.3913 80.1311 79.6595C80.1419 79.6474 80.1534 79.6366 80.1642 79.6252V76.4769H80.2316C80.2316 74.388 81.9836 72.6359 84.0725 72.6359H87.5766C88.5874 72.6359 89.5981 72.3664 90.4068 71.8947C91.6197 71.2208 93.2369 71.423 94.0456 72.5686C94.4256 73.0571 94.7134 73.6218 94.7733 74.2235C94.807 74.4014 94.8151 74.6097 94.7868 74.8597C94.5772 77.1629 94.0368 78.7465 93.4991 79.7983C94.055 81.7801 94.989 83.6198 94.989 83.6198C94.9795 83.6144 94.9714 83.609 94.9627 83.6036C95.4944 84.8947 95.7976 86.3671 95.7976 87.9324C95.7976 89.4533 95.5085 90.8839 95.0045 92.1487C96.2012 92.5638 97.1359 93.5106 97.5415 94.7357C98.9216 95.3179 100.31 95.8098 101.728 96.1535C103.951 96.6925 106.242 96.6925 108.601 96.3556C111.027 96.0187 113.52 95.3448 116.215 94.8731C118.628 94.4513 121.148 94.3017 123.535 94.5645C123.802 92.9075 124.814 90.7741 125.649 89.6171C125.971 89.1723 126.502 88.7 127.064 88.2801V37.326C127.064 29.4419 133.466 23.1076 141.283 23.1076H160.49C160.422 23.0854 160.354 23.0625 160.285 23.0403C152.662 20.514 141.417 18.0483 130.164 18.0483C124.608 18.0483 119.048 18.6501 113.924 20.1427C100.781 24.0005 95.1258 37.5665 83.5341 37.5665C83.1803 37.5665 82.8205 37.5537 82.4553 37.5281C81.4714 37.4567 80.5085 37.4223 79.5604 37.4223C55.6568 37.4223 43.2794 59.4702 46.2962 70.8374L75.7167 43.9297L80.0968 48.7141Z" fill="#E0E9F8"/>
<path fill-rule="evenodd" clip-rule="evenodd" d="M85.0836 227.286C84.3943 227.055 84.0526 226.336 84.2157 225.67C83.3188 225.108 83.0621 224.793 83.0621 224.793C82.7251 224.522 82.5904 223.984 82.7925 223.58C82.9947 223.243 83.4664 222.366 83.8033 221.692C83.8848 221.529 84.0641 221.454 84.2393 221.468C84.3734 221.076 84.5634 220.595 84.8141 220.344C85.2588 219.9 85.7009 219.453 86.056 218.962C86.025 218.39 85.9516 217.815 85.8249 217.245L84.1854 209.867C84.0668 209.782 83.9772 209.654 83.9381 209.496C81.31 200.803 78.5472 190.763 78.3451 188.27C78.2103 186.652 78.2777 184.428 78.6146 182.34C78.8485 180.836 78.932 179.317 78.8511 177.805C78.7123 177.156 78.6483 176.497 78.6436 175.833C78.5115 174.962 78.3276 174.096 78.0755 173.243C76.3848 167.543 74.7494 160.973 73.4684 154.927C73.432 154.878 73.3936 154.829 73.3586 154.778C71.3525 151.906 70.6146 148.117 71.5951 144.816C70.9549 140.589 70.7137 137.386 71.0675 136.113C71.4913 134.533 72.215 133.012 73.1321 131.644C72.7534 131.409 72.5499 131.262 72.5499 131.262L76.5257 120.277C76.992 119.005 77.244 117.652 77.2838 116.303C76.2238 116.781 75.0877 117.111 73.8976 117.245C67.5634 117.987 62.0378 113.472 61.1618 107.407C61.027 106.059 60.3532 104.847 59.275 104.105C58.0607 103.274 57.0627 102.153 56.3808 100.84C55.1342 100.268 53.9516 99.5958 52.806 98.8485C51.3693 97.9119 50.0506 96.856 48.7918 95.7407C45.8794 103.809 39.4994 110.236 34.3424 117.178C29.0863 124.32 24.841 133.148 27.4691 141.504C29.6928 148.579 36.3639 153.498 40.5418 159.832C53.4125 179.374 40.6766 209.361 57.8599 225.669C58.4927 226.27 59.1517 226.825 59.8249 227.353H85.2777C85.2123 227.33 85.1449 227.307 85.0836 227.286" fill="#E0E9F8"/>
<path fill-rule="evenodd" clip-rule="evenodd" d="M311.499 161.719C310.825 161.989 310.151 162.326 309.814 162.933C309.545 163.404 309.409 163.944 309.409 164.483C309.275 165.628 309.208 166.706 309.208 167.852C309.208 169.064 309.342 170.412 310.286 171.288C310.9 171.838 311.684 172.031 312.513 172.031C313.412 172.031 314.363 171.803 315.205 171.558C316.148 171.288 317.158 171.019 317.766 170.277C318.237 169.738 318.372 169.064 318.506 168.39C318.911 166.167 320.124 162.798 318.776 161.585C318.125 161.052 317.096 160.831 315.948 160.831C314.483 160.831 312.821 161.191 311.499 161.719" fill="#E0E9F8"/>
<path fill-rule="evenodd" clip-rule="evenodd" d="M126.728 92.717C126.819 92.7581 126.935 92.7399 127.065 92.688V91.1968C126.585 91.9003 126.321 92.5357 126.728 92.717" fill="#E0E9F8"/>
<path fill-rule="evenodd" clip-rule="evenodd" d="M32.523 107.609C33.1968 108.08 34.0055 108.417 34.8141 108.417C35.7575 108.417 36.5661 107.878 37.3074 107.34C38.992 106.059 40.2723 104.307 41.5526 102.69C42.2265 101.814 42.9003 100.87 43.0351 99.8594C43.372 97.5009 41.2831 95.6815 40.6092 93.6599C40.0857 92.0892 39.091 91.0898 37.6261 91.0898C37.0169 91.0898 36.3269 91.2624 35.5553 91.6384C34.0055 92.3796 32.9273 93.7947 31.9839 95.2098C30.5014 97.5009 29.2211 100.062 29.558 102.69C29.7602 104.644 30.9057 106.463 32.523 107.609" fill="#E0E9F8"/>
<path fill-rule="evenodd" clip-rule="evenodd" d="M290.946 70.4794L242.159 87.3931C238.52 88.6735 234.41 86.6519 233.129 82.9457L231.782 79.0535V191.751C232.707 191.46 233.696 191.196 234.747 190.965C233.197 188 236.768 184.833 240.07 184.226C241.485 183.967 242.972 183.904 244.413 183.754C245.71 181.341 246.871 178.843 247.904 176.277C245.654 175.324 240.056 172.021 239.733 162.663C239.733 162.663 247.803 166.73 248.789 173.985C250.016 170.657 251.043 167.231 251.886 163.747C249.642 162.797 244.032 159.498 243.708 150.13C243.708 150.072 251.119 153.799 252.606 160.538C253.251 157.453 253.762 154.335 254.155 151.21C251.848 150.418 246.012 147.516 244.989 138.202C245.046 138.202 252.464 141.282 254.559 147.644C254.879 144.361 255.068 141.085 255.156 137.843C252.94 137.113 246.907 134.274 245.865 124.792C245.921 124.737 252.869 127.659 255.215 133.627C255.214 131.729 255.176 129.849 255.107 127.994C253.487 125.897 250.487 120.475 254.356 112.326C254.356 112.39 260.158 120.474 256.706 127.666C256.875 132.409 256.869 137.158 256.623 141.892C257.957 139.176 261.239 134.986 268.978 134.091C268.978 134.091 264.956 143.979 256.481 144.262C256.235 147.826 255.845 151.378 255.292 154.909C256.892 152.2 260.298 148.68 267.361 147.838C267.427 147.838 263.298 157.811 254.731 158.204C254.437 159.763 254.113 161.316 253.749 162.865C253.301 164.752 252.791 166.629 252.23 168.491C254.437 166.238 258.578 163.643 265.609 164.482C265.566 164.482 262.873 168.209 258.681 170.346C259.504 170.184 260.364 170.145 261.236 170.145C261.568 170.145 261.901 170.151 262.236 170.155C262.57 170.16 262.903 170.165 263.236 170.165C264.623 170.165 265.989 170.078 267.227 169.536C271.27 167.784 272.415 162.124 276.458 160.237C277.262 159.844 278.131 159.663 279.006 159.663C281.582 159.663 284.214 161.225 285.421 163.539C287.038 166.639 286.297 170.682 284.073 173.444C282.321 175.533 279.693 177.084 278.615 179.576C276.93 183.552 279.625 188.337 278.008 192.38C275.111 199.792 261.364 197.568 258.938 205.183C258.399 206.868 258.601 208.687 258.466 210.506C258.062 215.762 254.356 220.345 249.773 222.973C245.191 225.601 239.801 226.477 234.545 226.881C233.888 226.922 233.219 226.956 232.553 226.956C231.03 226.956 229.523 226.775 228.21 226.072C227.713 225.814 227.261 225.502 226.846 225.146C226.812 225.175 226.776 225.2 226.741 225.228C226.614 225.335 226.48 225.434 226.349 225.537C226.138 225.702 225.927 225.865 225.706 226.019C225.559 226.121 225.408 226.217 225.258 226.313C225.041 226.452 224.823 226.588 224.598 226.715C224.438 226.807 224.276 226.892 224.111 226.978C223.884 227.095 223.656 227.206 223.422 227.311C223.393 227.324 223.365 227.34 223.336 227.353H288.402C292.061 223.487 294.962 218.975 296.809 214.078C303.21 197.029 297.146 177.285 304.355 160.506C310.218 146.827 324.571 135.776 323.696 121.018C323.156 111.854 316.62 104.172 312.173 96.0185C307.079 86.8096 311.015 56.786 289.592 44.627L295.394 61.3823C296.674 65.0885 294.652 69.1991 290.946 70.4794" fill="#E0E9F8"/>
<path fill-rule="evenodd" clip-rule="evenodd" d="M251.212 171.655C250.123 174.847 248.855 177.977 247.396 181.01C248.501 180.244 250.002 179.463 251.905 179.013C253.281 176.265 253.978 172.957 256.411 171.272C254.815 171.763 253.067 171.959 251.212 171.655" fill="#E0E9F8"/>
<path fill-rule="evenodd" clip-rule="evenodd" d="M134.767 226.975C134.602 226.89 134.438 226.803 134.276 226.71C134.053 226.584 133.836 226.45 133.621 226.312C133.468 226.213 133.314 226.117 133.166 226.012C132.949 225.861 132.74 225.7 132.533 225.537C132.398 225.432 132.261 225.331 132.13 225.221C132.093 225.19 132.052 225.162 132.016 225.13C130.992 225.083 129.962 224.948 128.951 224.793C122.55 223.849 116.081 222.232 110.69 218.593C105.3 214.954 101.188 208.957 101.188 202.487C101.188 200.264 101.593 198.107 101.121 195.952C100.72 194.172 99.803 192.776 98.5591 191.62C96.3171 198.305 93.4398 206.613 91.2154 212.326C91.1837 212.317 91.152 212.297 91.121 212.285L89.4998 217.835C90.0638 221.142 90.9169 223.861 92.1595 224.793C93.3367 225.665 94.6467 226.529 95.8185 227.353H135.548C135.517 227.339 135.486 227.322 135.455 227.308C135.222 227.203 134.993 227.092 134.767 226.975" fill="#E0E9F8"/>
<path fill-rule="evenodd" clip-rule="evenodd" d="M88.7645 205.579C89.4283 199.652 90.307 192.845 91.096 187.456C90.0374 187.02 88.9673 186.591 87.9202 186.143C88.1695 190.628 88.5367 198.428 88.7645 205.579" fill="#E0E9F8"/>
<path fill-rule="evenodd" clip-rule="evenodd" d="M226.367 26.1754C225.129 21.0986 225.896 15.9092 228.212 11.5231C223.914 9.49885 219.35 8.56152 214.923 8.56152C205.819 8.56152 197.3 12.5123 192.9 19.0642C191.764 20.7394 190.406 22.071 188.877 23.1073H217.563C220.898 23.1073 223.948 24.2623 226.367 26.1754" fill="#E0E9F8"/>
<path fill-rule="evenodd" clip-rule="evenodd" d="M235.892 24.9269L237.914 30.7894L244.548 28.4882C243.999 27.5569 243.453 26.592 242.9 25.6007C240.961 22.1169 238.656 19.2234 236.109 16.8662C235.093 19.3561 234.933 22.2031 235.892 24.9269" fill="#E0E9F8"/>
<path fill-rule="evenodd" clip-rule="evenodd" d="M264.194 59.9C266.957 57.5415 268.17 53.6332 266.889 49.927C265.205 45.21 260.016 42.7167 255.299 44.334C250.582 46.0186 248.089 51.2073 249.706 55.9243C250.986 59.6305 254.356 61.9216 257.995 62.0563L261.364 71.8272C261.499 72.2315 261.97 72.4337 262.307 72.2989L267.024 70.6817C267.429 70.4795 267.698 70.0752 267.563 69.6709L264.194 59.9Z" fill="#E0E9F8"/>
<path fill-rule="evenodd" clip-rule="evenodd" d="M226.846 225.146C227.261 225.502 227.713 225.814 228.21 226.072C229.523 226.775 231.03 226.957 232.553 226.957C233.219 226.957 233.888 226.922 234.545 226.881C239.801 226.477 245.191 225.601 249.773 222.973C254.356 220.345 258.062 215.762 258.466 210.506C258.601 208.687 258.399 206.867 258.938 205.183C261.364 197.568 275.111 199.792 278.008 192.38C279.625 188.336 276.93 183.552 278.615 179.576C279.693 177.084 282.321 175.533 284.073 173.444C286.297 170.682 287.038 166.639 285.421 163.539C284.214 161.226 281.582 159.663 279.006 159.663C278.131 159.663 277.262 159.844 276.458 160.237C272.415 162.124 271.27 167.784 267.226 169.537C265.989 170.078 264.624 170.165 263.236 170.165C262.903 170.165 262.569 170.16 262.236 170.156C261.901 170.15 261.568 170.145 261.236 170.145C260.364 170.145 259.504 170.184 258.681 170.346C257.966 170.71 257.207 171.026 256.41 171.272C253.979 172.957 253.281 176.265 251.906 179.013C254.445 178.414 257.7 178.409 261.701 179.846C261.701 179.846 253.793 186.758 246.081 183.619C243.129 189.207 239.498 194.414 235.084 198.984C234.04 200.047 232.937 201.126 231.782 202.173V214.348C231.786 214.802 231.764 215.251 231.724 215.696C231.72 215.745 231.718 215.795 231.713 215.844C231.671 216.264 231.609 216.679 231.53 217.088C231.518 217.155 231.506 217.221 231.493 217.289C231.41 217.688 231.31 218.081 231.195 218.468C231.175 218.534 231.154 218.601 231.133 218.667C231.011 219.055 230.874 219.436 230.72 219.808C230.698 219.861 230.674 219.912 230.651 219.964C230.487 220.349 230.309 220.726 230.112 221.092C230.1 221.113 230.088 221.133 230.077 221.153C229.877 221.52 229.661 221.876 229.431 222.222C229.413 222.249 229.396 222.276 229.378 222.303C229.148 222.643 228.902 222.97 228.644 223.289C228.607 223.334 228.57 223.382 228.532 223.429C228.278 223.733 228.012 224.027 227.733 224.31C227.685 224.359 227.637 224.407 227.588 224.456C227.348 224.694 227.103 224.925 226.846 225.146" fill="#C5D6F1"/>
<path fill-rule="evenodd" clip-rule="evenodd" d="M244.413 183.753C242.972 183.904 241.484 183.966 240.07 184.226C236.768 184.833 233.196 187.999 234.746 190.964C233.696 191.196 232.707 191.46 231.782 191.751V200.05C236.981 195.38 241.137 189.844 244.413 183.753" fill="#C5D6F1"/>
<path fill-rule="evenodd" clip-rule="evenodd" d="M78.8516 177.806C78.8165 177.146 78.7438 176.488 78.644 175.833C78.6488 176.498 78.7128 177.156 78.8516 177.806" fill="#EFCD8F"/>
<path fill-rule="evenodd" clip-rule="evenodd" d="M104.042 169.591C104.135 172.208 103.968 174.298 103.412 175.466C103.396 175.556 103.374 175.648 103.357 175.739C105.024 176.184 106.359 176.882 107.375 177.574C106.129 174.976 105.016 172.31 104.042 169.591" fill="#C5D6F1"/>
<path fill-rule="evenodd" clip-rule="evenodd" d="M114.733 168.391C114.189 167.884 113.739 167.304 113.346 166.682C111.427 170.564 108.41 172.268 106.9 172.908C111.185 183.55 117.657 193.043 127.065 199.975V172.211C126.796 172.114 126.526 172.03 126.256 171.962C122.28 170.951 117.766 171.153 114.733 168.391" fill="#C5D6F1"/>
<path fill-rule="evenodd" clip-rule="evenodd" d="M73.3584 154.778C73.3941 154.828 73.4318 154.877 73.4682 154.927C72.6906 151.257 72.0444 147.784 71.5949 144.815C70.6151 148.117 71.3523 151.905 73.3584 154.778" fill="#C5D6F1"/>
<path fill-rule="evenodd" clip-rule="evenodd" d="M111.316 161.879C110.582 159.626 109.884 157.367 108.489 155.684C106.68 158.406 104.371 159.739 103.05 160.32C103.124 160.796 103.194 161.267 103.262 161.735C104.037 164.752 104.948 167.721 106.014 170.616C106.539 166.757 109.062 163.802 111.316 161.879" fill="#C5D6F1"/>
<path fill-rule="evenodd" clip-rule="evenodd" d="M119.72 195.615C115.31 191.05 111.682 185.85 108.732 180.27C106.45 181.179 104.16 181.228 102.063 180.838C102.04 180.911 102.019 180.987 101.997 181.059C101.59 182.424 100.257 186.557 98.5593 191.62C99.8033 192.776 100.72 194.172 101.121 195.951C101.593 198.107 101.189 200.263 101.189 202.487C101.189 208.957 105.299 214.953 110.69 218.593C116.081 222.232 122.55 223.848 128.952 224.792C129.962 224.947 130.992 225.083 132.016 225.13C131.765 224.913 131.524 224.687 131.289 224.453C131.241 224.406 131.193 224.356 131.145 224.307C130.867 224.024 130.598 223.73 130.344 223.425C130.308 223.38 130.273 223.335 130.237 223.29C129.978 222.97 129.729 222.641 129.498 222.299C129.483 222.276 129.469 222.253 129.454 222.23C129.223 221.884 129.007 221.528 128.806 221.161C128.792 221.137 128.778 221.113 128.764 221.088C128.567 220.724 128.39 220.348 128.225 219.966C128.202 219.912 128.177 219.859 128.155 219.805C128 219.433 127.863 219.053 127.739 218.665C127.718 218.599 127.697 218.534 127.677 218.466C127.559 218.08 127.458 217.686 127.373 217.286C127.36 217.22 127.348 217.154 127.335 217.088C127.255 216.679 127.189 216.264 127.145 215.843C127.14 215.794 127.137 215.745 127.133 215.697C127.09 215.252 127.065 214.803 127.065 214.348V202.101C124.381 200.177 121.922 197.858 119.72 195.615" fill="#C5D6F1"/>
<path fill-rule="evenodd" clip-rule="evenodd" d="M89.6108 159.844C89.5905 160.257 89.5697 160.671 89.5481 161.086C89.7941 161.059 90.0393 161.034 90.2779 161.015C90.0542 160.626 89.8318 160.235 89.6108 159.844" fill="#C5D6F1"/>
<path fill-rule="evenodd" clip-rule="evenodd" d="M93.1699 176.477C93.2912 176.434 93.4084 176.399 93.5284 176.357C95.2433 172.891 94.9529 168.736 92.9004 165.426C92.6571 165.033 92.4138 164.633 92.1706 164.23C90.8646 163.073 89.9502 161.994 89.5284 161.461C89.1301 168.986 88.5257 176.73 87.5769 181.935C87.6443 182.272 87.7117 182.542 87.7117 182.811C87.7588 183.395 87.8323 184.567 87.9199 186.143C88.9677 186.591 90.0378 187.02 91.0964 187.456C91.7494 182.993 92.3417 179.504 92.6982 178.296C92.8855 177.734 93.1322 177.176 93.3815 176.668C93.238 176.547 93.1632 176.477 93.1699 176.477" fill="#C5D6F1"/>
<path fill-rule="evenodd" clip-rule="evenodd" d="M101.711 152.84C101.948 154.018 102.176 155.212 102.392 156.409C102.747 155.207 103.284 154.109 103.924 153.119C103.205 152.979 102.463 152.898 101.711 152.84" fill="#C5D6F1"/>
<mask id="mask0_0_3333" style="mask-type:alpha" maskUnits="userSpaceOnUse" x="225" y="0" width="71" height="88">
<path fill-rule="evenodd" clip-rule="evenodd" d="M225.78 0.390625H295.778V87.7781H225.78V0.390625Z" fill="white"/>
</mask>
<g mask="url(#mask0_0_3333)">
<path fill-rule="evenodd" clip-rule="evenodd" d="M242.9 10.3715C248.83 8.28258 255.367 11.4497 257.456 17.447L259.477 23.3095L244.548 28.4881L237.914 30.7893L235.892 24.9268C234.933 22.2031 235.093 19.356 236.109 16.8661C237.306 13.9355 239.694 11.5009 242.9 10.3715M267.024 70.6815L262.307 72.2988C261.971 72.4335 261.499 72.2314 261.363 71.8271L257.994 62.0562C254.356 61.9214 250.987 59.6303 249.706 55.9241C248.088 51.2071 250.582 46.0184 255.299 44.3338C260.016 42.7165 265.205 45.2098 266.89 49.9268C268.17 53.633 266.956 57.5413 264.194 59.8998L267.564 69.6707C267.698 70.075 267.428 70.4793 267.024 70.6815M226.367 26.1754C229.665 28.7853 231.782 32.8156 231.782 37.3257V79.0535L233.13 82.9457C234.409 86.6519 238.52 88.6734 242.159 87.3931L290.946 70.4793C294.652 69.199 296.674 65.0885 295.393 61.3823L289.592 44.6269L282.118 23.04C280.905 19.3338 276.862 17.3122 273.089 18.6599L268.372 20.2772L266.351 14.4147C262.576 3.5656 250.65 -2.22955 239.8 1.54404C234.621 3.34592 230.597 7.00832 228.212 11.5225C225.896 15.9086 225.13 21.0986 226.367 26.1754" fill="#C5D6F1"/>
</g>
<path fill-rule="evenodd" clip-rule="evenodd" d="M235.083 198.984C239.498 194.414 243.129 189.207 246.081 183.619C253.793 186.758 261.701 179.847 261.701 179.847C257.7 178.409 254.445 178.415 251.905 179.013C250.002 179.462 248.5 180.243 247.396 181.01C248.855 177.977 250.122 174.848 251.212 171.655C253.066 171.96 254.814 171.763 256.41 171.272C257.207 171.026 257.965 170.71 258.681 170.346C262.873 168.209 265.566 164.483 265.609 164.483C258.578 163.644 254.437 166.238 252.23 168.491C252.791 166.629 253.301 164.752 253.749 162.865C254.112 161.317 254.438 159.763 254.73 158.204C263.298 157.811 267.426 147.838 267.361 147.838C260.298 148.681 256.892 152.2 255.292 154.91C255.845 151.378 256.236 147.826 256.481 144.262C264.956 143.979 268.978 134.091 268.978 134.091C261.238 134.986 257.957 139.176 256.623 141.892C256.868 137.158 256.875 132.409 256.707 127.666C260.158 120.474 254.356 112.39 254.356 112.326C250.487 120.475 253.487 125.897 255.108 127.993C255.176 129.849 255.213 131.729 255.215 133.628C252.869 127.659 245.92 124.737 245.865 124.792C246.907 134.274 252.94 137.114 255.156 137.844C255.068 141.084 254.879 144.361 254.559 147.644C252.464 141.282 245.046 138.202 244.989 138.202C246.013 147.516 251.848 150.419 254.155 151.21C253.763 154.335 253.25 157.453 252.606 160.538C251.12 153.799 243.709 150.072 243.709 150.13C244.031 159.498 249.642 162.797 251.887 163.747C251.043 167.231 250.015 170.657 248.79 173.985C247.803 166.731 239.733 162.663 239.733 162.663C240.056 172.021 245.655 175.324 247.903 176.278C246.87 178.843 245.711 181.341 244.413 183.754C241.137 189.845 236.98 195.38 231.782 200.05V202.173C232.937 201.127 234.04 200.047 235.083 198.984" fill="#99B9EE"/>
<path fill-rule="evenodd" clip-rule="evenodd" d="M106.9 172.908C108.41 172.268 111.426 170.564 113.347 166.682C114.286 164.782 114.964 162.367 115.07 159.293C115.07 159.293 113.3 160.188 111.316 161.88C109.062 163.802 106.538 166.757 106.014 170.616C104.948 167.721 104.036 164.752 103.262 161.736C103.674 164.596 103.959 167.297 104.041 169.591C105.016 172.31 106.128 174.976 107.374 177.574C106.358 176.882 105.023 176.184 103.357 175.739C103.033 177.463 102.554 179.227 102.063 180.839C104.16 181.228 106.45 181.178 108.732 180.269C111.682 185.849 115.31 191.05 119.719 195.614C121.921 197.858 124.381 200.178 127.064 202.101V199.975C117.657 193.043 111.185 183.55 106.9 172.908" fill="#99B9EE"/>
<path fill-rule="evenodd" clip-rule="evenodd" d="M92.1705 164.23C91.5364 163.18 90.903 162.105 90.2776 161.015C90.0391 161.033 89.7938 161.059 89.5479 161.085C89.5418 161.211 89.5344 161.336 89.5283 161.461C89.9502 161.994 90.8646 163.072 92.1705 164.23" fill="#99B9EE"/>
<path fill-rule="evenodd" clip-rule="evenodd" d="M93.5281 176.357C93.4082 176.399 93.2909 176.433 93.1696 176.477C93.1629 176.477 93.2377 176.546 93.3819 176.668C93.4014 176.627 93.4196 176.583 93.4392 176.544C93.4715 176.483 93.4978 176.419 93.5281 176.357" fill="#FDB32A"/>
<path fill-rule="evenodd" clip-rule="evenodd" d="M109.814 134.833C109.814 134.833 102.35 137.915 100.245 144.284C99.9252 140.998 99.7351 137.718 99.6475 134.473C101.864 133.744 107.897 130.904 108.938 121.423C108.938 121.368 101.943 124.294 99.5882 130.272C99.5896 128.4 99.626 126.546 99.692 124.716C101.294 122.688 104.44 117.225 100.515 108.957C100.515 109.02 94.7048 117.028 98.1004 124.194C97.9319 128.851 97.9346 133.515 98.163 138.165C98.7904 140.159 99.7142 143.691 100.648 147.841V147.841C102.955 147.048 108.791 144.145 109.814 134.833" fill="#99B9EE"/>
<path fill-rule="evenodd" clip-rule="evenodd" d="M108.49 155.684C109.868 153.61 110.957 150.731 111.094 146.76C111.094 146.715 106.618 148.958 103.924 153.12C103.284 154.11 102.747 155.207 102.393 156.409C102.63 157.721 102.85 159.031 103.05 160.32C104.371 159.74 106.68 158.406 108.49 155.684" fill="#99B9EE"/>
<path fill-rule="evenodd" clip-rule="evenodd" d="M142.833 29.1047V29.1047H160.42C162.307 29.1047 163.857 30.6546 163.857 32.5414V34.9673C163.857 36.8541 165.407 38.4039 167.294 38.4039H194.854C196.741 38.4039 198.291 36.8541 198.291 34.9673V32.5414C198.291 30.6546 199.841 29.1047 201.728 29.1047H207.927H217.024C222.55 29.1047 226.997 33.5522 226.997 39.0778V211.315C226.997 216.841 222.55 221.288 217.024 221.288H141.889C136.364 221.288 131.916 216.841 131.916 211.315V39.0778C131.916 33.5522 136.364 29.1047 141.889 29.1047H142.833ZM127.064 37.3258V88.2799C128.035 87.5562 129.099 86.9888 129.356 86.9888C130.636 87.0562 128.749 89.0778 127.873 90.1559C127.585 90.4895 127.3 90.8507 127.064 91.197V92.6876C127.789 92.3978 129.007 90.9073 129.692 90.9646C130.501 91.0319 128.075 93.9295 128.075 93.9295C128.075 93.9295 127.641 94.7786 127.064 95.5899V172.211V199.975V202.101V214.347C127.064 214.803 127.091 215.252 127.133 215.696C127.137 215.746 127.14 215.794 127.145 215.843C127.189 216.264 127.254 216.679 127.335 217.089C127.347 217.154 127.36 217.221 127.374 217.286C127.458 217.686 127.559 218.079 127.676 218.467C127.697 218.533 127.717 218.599 127.739 218.665C127.862 219.053 128 219.433 128.155 219.806C128.177 219.859 128.202 219.912 128.225 219.965C128.39 220.348 128.568 220.723 128.765 221.088C128.777 221.112 128.793 221.137 128.806 221.161C129.007 221.528 129.223 221.884 129.454 222.231C129.469 222.254 129.483 222.277 129.498 222.299C129.729 222.641 129.978 222.97 130.237 223.291C130.273 223.335 130.308 223.38 130.344 223.424C130.598 223.73 130.866 224.025 131.145 224.308C131.192 224.357 131.24 224.405 131.289 224.453C131.559 224.721 131.84 224.975 132.13 225.22C132.261 225.33 132.398 225.432 132.532 225.537C132.74 225.7 132.949 225.861 133.166 226.012C133.314 226.116 133.468 226.213 133.621 226.312C133.835 226.449 134.053 226.585 134.275 226.711C134.438 226.803 134.602 226.89 134.767 226.975C134.993 227.092 135.222 227.203 135.455 227.308C135.486 227.322 135.517 227.339 135.548 227.353H223.335C223.365 227.34 223.393 227.324 223.422 227.311C223.655 227.206 223.885 227.095 224.111 226.978C224.275 226.892 224.438 226.807 224.598 226.715C224.822 226.588 225.041 226.452 225.257 226.313C225.408 226.217 225.559 226.121 225.706 226.019C225.926 225.866 226.138 225.702 226.349 225.537C226.48 225.434 226.614 225.335 226.741 225.228C227.033 224.982 227.316 224.725 227.588 224.456C227.637 224.407 227.685 224.359 227.734 224.31C228.011 224.027 228.278 223.733 228.531 223.429C228.57 223.382 228.607 223.335 228.644 223.289C228.902 222.97 229.149 222.643 229.378 222.304C229.396 222.277 229.413 222.249 229.43 222.222C229.661 221.876 229.877 221.52 230.077 221.153C230.088 221.133 230.1 221.112 230.112 221.092C230.309 220.726 230.487 220.349 230.651 219.964C230.674 219.912 230.697 219.861 230.719 219.808C230.874 219.436 231.011 219.055 231.133 218.667C231.153 218.601 231.174 218.534 231.195 218.468C231.31 218.08 231.41 217.688 231.492 217.289C231.506 217.221 231.518 217.154 231.53 217.088C231.609 216.678 231.671 216.264 231.713 215.844C231.717 215.795 231.72 215.745 231.724 215.695C231.763 215.251 231.785 214.802 231.781 214.347V202.173V200.05V191.751V79.0535V37.3258C231.781 32.8156 229.666 28.7853 226.366 26.1755C223.948 24.2617 220.898 23.1074 217.563 23.1074H188.877H179.519H169.091H160.49H141.283C133.466 23.1074 127.064 29.4417 127.064 37.3258V37.3258Z" fill="#99B9EE"/>
<path fill-rule="evenodd" clip-rule="evenodd" d="M145.191 114.886H211.094C214.126 114.886 216.552 117.313 216.552 120.345C216.552 123.309 214.126 125.803 211.094 125.803H145.191C142.159 125.803 139.733 123.377 139.733 120.345C139.733 117.313 142.159 114.886 145.191 114.886M178.143 82.6092C185.735 82.6092 191.889 88.7635 191.889 96.3552C191.889 100.951 189.626 105.009 186.162 107.505C183.903 109.133 181.139 110.102 178.143 110.102C175.116 110.102 172.328 109.113 170.057 107.456C166.631 104.956 164.396 100.921 164.396 96.3552C164.396 88.7635 170.55 82.6092 178.143 82.6092M211.162 145.344H145.259C142.226 145.344 139.8 142.919 139.8 139.887C139.8 136.854 142.226 134.428 145.259 134.428H211.162C214.194 134.428 216.62 136.854 216.62 139.887C216.62 142.919 214.126 145.344 211.162 145.344M131.916 39.0775V211.315C131.916 216.841 136.364 221.288 141.889 221.288H217.024C222.55 221.288 226.997 216.841 226.997 211.315V39.0775C226.997 33.5519 222.55 29.1045 217.024 29.1045H207.927H201.728C199.841 29.1045 198.291 30.6544 198.291 32.5411V34.967C198.291 36.8538 196.741 38.4037 194.854 38.4037H167.294C165.407 38.4037 163.857 36.8538 163.857 34.967V32.5411C163.857 30.6544 162.307 29.1045 160.42 29.1045H142.833H141.889C136.364 29.1045 131.916 33.5519 131.916 39.0775" fill="#F7F7F7"/>
<path fill-rule="evenodd" clip-rule="evenodd" d="M178.143 87.865C181.108 87.865 183.466 90.2234 183.466 93.1884C183.466 96.1534 181.108 98.5119 178.143 98.5119C175.178 98.5119 172.819 96.1534 172.819 93.1884C172.819 90.2234 175.178 87.865 178.143 87.865M170.057 107.455C170.067 103.153 173.566 99.7248 177.806 99.7248H178.412C182.725 99.7248 186.161 103.229 186.161 107.474V107.505C189.626 105.009 191.889 100.951 191.889 96.3555C191.889 88.7632 185.735 82.6089 178.143 82.6089C170.55 82.6089 164.396 88.7632 164.396 96.3555C164.396 100.922 166.631 104.955 170.057 107.455" fill="#D6E2F6"/>
<path fill-rule="evenodd" clip-rule="evenodd" d="M178.412 99.7246H177.806C173.567 99.7246 170.067 103.153 170.057 107.456C172.328 109.113 175.117 110.102 178.143 110.102C181.139 110.102 183.903 109.133 186.162 107.506V107.474C186.162 103.229 182.724 99.7246 178.412 99.7246" fill="#99B9EE"/>
<path fill-rule="evenodd" clip-rule="evenodd" d="M178.143 98.5116C181.108 98.5116 183.466 96.1532 183.466 93.1882C183.466 90.2232 181.108 87.8647 178.143 87.8647C175.178 87.8647 172.819 90.2232 172.819 93.1882C172.819 96.1532 175.178 98.5116 178.143 98.5116" fill="#99B9EE"/>
<path fill-rule="evenodd" clip-rule="evenodd" d="M147.482 118.929H208.803C209.612 118.929 210.219 119.536 210.219 120.345C210.219 121.086 209.612 121.76 208.803 121.76H147.482C146.674 121.76 146.067 121.154 146.067 120.345C146.067 119.536 146.674 118.929 147.482 118.929M145.191 125.803H211.094C214.126 125.803 216.552 123.309 216.552 120.345C216.552 117.313 214.126 114.886 211.094 114.886H145.191C142.159 114.886 139.733 117.313 139.733 120.345C139.733 123.377 142.159 125.803 145.191 125.803" fill="#D6E2F6"/>
<path fill-rule="evenodd" clip-rule="evenodd" d="M147.482 121.76H208.803C209.612 121.76 210.219 121.086 210.219 120.345C210.219 119.536 209.612 118.93 208.803 118.93H147.482C146.674 118.93 146.067 119.536 146.067 120.345C146.067 121.154 146.674 121.76 147.482 121.76" fill="#99B9EE"/>
<path fill-rule="evenodd" clip-rule="evenodd" d="M172.348 141.436C171.539 141.436 170.933 140.83 170.933 140.021C170.933 139.213 171.539 138.606 172.348 138.606C173.156 138.606 173.763 139.213 173.763 140.021C173.763 140.83 173.089 141.436 172.348 141.436M168.102 141.436C167.294 141.436 166.687 140.83 166.687 140.021C166.687 139.213 167.294 138.606 168.102 138.606C168.911 138.606 169.518 139.213 169.518 140.021C169.518 140.83 168.844 141.436 168.102 141.436M163.857 141.436C163.049 141.436 162.442 140.83 162.442 140.021C162.442 139.213 163.049 138.606 163.857 138.606C164.666 138.606 165.272 139.213 165.272 140.021C165.272 140.83 164.666 141.436 163.857 141.436M159.612 141.436C158.803 141.436 158.197 140.83 158.197 140.021C158.197 139.213 158.803 138.606 159.612 138.606C160.42 138.606 161.027 139.213 161.027 140.021C161.027 140.83 160.42 141.436 159.612 141.436M155.367 141.436C154.558 141.436 153.951 140.83 153.951 140.021C153.951 139.213 154.558 138.606 155.367 138.606C156.175 138.606 156.782 139.213 156.782 140.021C156.782 140.83 156.175 141.436 155.367 141.436M151.189 141.436C150.38 141.436 149.774 140.83 149.774 140.021C149.774 139.213 150.38 138.606 151.189 138.606C151.997 138.606 152.604 139.213 152.604 140.021C152.604 140.83 151.93 141.436 151.189 141.436M146.943 141.436C146.135 141.436 145.528 140.83 145.528 140.021C145.528 139.213 146.135 138.606 146.943 138.606C147.752 138.606 148.358 139.213 148.358 140.021C148.358 140.83 147.685 141.436 146.943 141.436M211.162 134.428H145.259C142.226 134.428 139.801 136.854 139.801 139.886C139.801 142.919 142.226 145.345 145.259 145.345H211.162C214.127 145.345 216.62 142.919 216.62 139.886C216.62 136.854 214.194 134.428 211.162 134.428" fill="#D6E2F6"/>
<path fill-rule="evenodd" clip-rule="evenodd" d="M159.612 138.606C158.803 138.606 158.197 139.212 158.197 140.022C158.197 140.83 158.803 141.436 159.612 141.436C160.42 141.436 161.027 140.83 161.027 140.022C161.027 139.212 160.42 138.606 159.612 138.606" fill="#99B9EE"/>
<path fill-rule="evenodd" clip-rule="evenodd" d="M168.102 138.606C167.294 138.606 166.687 139.212 166.687 140.022C166.687 140.83 167.294 141.436 168.102 141.436C168.844 141.436 169.517 140.83 169.517 140.022C169.517 139.212 168.911 138.606 168.102 138.606" fill="#99B9EE"/>
<path fill-rule="evenodd" clip-rule="evenodd" d="M155.367 138.606C154.558 138.606 153.951 139.212 153.951 140.022C153.951 140.83 154.558 141.436 155.367 141.436C156.175 141.436 156.782 140.83 156.782 140.022C156.782 139.212 156.175 138.606 155.367 138.606" fill="#99B9EE"/>
<path fill-rule="evenodd" clip-rule="evenodd" d="M172.348 138.606C171.539 138.606 170.933 139.212 170.933 140.022C170.933 140.83 171.539 141.436 172.348 141.436C173.089 141.436 173.763 140.83 173.763 140.022C173.763 139.212 173.156 138.606 172.348 138.606" fill="#99B9EE"/>
<path fill-rule="evenodd" clip-rule="evenodd" d="M163.857 138.606C163.049 138.606 162.442 139.212 162.442 140.022C162.442 140.83 163.049 141.436 163.857 141.436C164.666 141.436 165.272 140.83 165.272 140.022C165.272 139.212 164.666 138.606 163.857 138.606" fill="#99B9EE"/>
<path fill-rule="evenodd" clip-rule="evenodd" d="M151.189 138.606C150.38 138.606 149.773 139.212 149.773 140.022C149.773 140.83 150.38 141.436 151.189 141.436C151.93 141.436 152.604 140.83 152.604 140.022C152.604 139.212 151.997 138.606 151.189 138.606" fill="#99B9EE"/>
<path fill-rule="evenodd" clip-rule="evenodd" d="M146.943 138.606C146.135 138.606 145.528 139.212 145.528 140.022C145.528 140.83 146.135 141.436 146.943 141.436C147.685 141.436 148.359 140.83 148.359 140.022C148.359 139.212 147.752 138.606 146.943 138.606" fill="#99B9EE"/>
<path fill-rule="evenodd" clip-rule="evenodd" d="M89.4996 217.835L91.1209 212.285C90.1013 211.923 89.1006 210.594 88.536 209.414C88.5306 209.419 88.5258 209.425 88.5198 209.428C87.2395 210.237 85.8917 210.304 84.4767 209.967C84.3648 209.967 84.2691 209.927 84.1855 209.867L85.8244 217.245C85.951 217.815 86.0252 218.389 86.0562 218.963C85.701 219.452 85.259 219.899 84.8136 220.345C84.5629 220.595 84.3736 221.076 84.2388 221.469C84.3527 221.477 84.4645 221.519 84.544 221.625C86.8351 224.657 90.0029 226.679 93.5737 226.409C94.0568 226.612 94.5103 226.96 94.881 227.353H95.8183C94.6471 226.529 93.3365 225.664 92.1593 224.792C90.9167 223.86 90.0636 221.142 89.4996 217.835" fill="#B97A59"/>
<path fill-rule="evenodd" clip-rule="evenodd" d="M79.2209 91.9083H79.5578H81.3098H82.3994L83.7936 87.1212L83.8792 86.8166C83.7856 86.7378 83.6973 86.6684 83.6009 86.5848C82.7148 85.8463 82.0126 84.6764 81.6959 83.5996C81.3011 83.4952 80.919 83.0026 80.6434 82.3853C81.8913 81.9891 83.5949 81.665 86.2963 80.3853C88.7997 79.1839 89.9453 78.3624 90.5073 77.6515C90.7748 78.6751 91.2815 79.9985 92.2209 81.2357C92.1643 81.7762 92.0814 82.3274 91.9567 82.8786C91.4176 85.574 89.6656 89.0781 88.5874 89.0781C88.576 89.0781 88.5645 89.076 88.5531 89.076L88.5874 90.2236L88.5807 90.2277L88.6279 91.9083H91.4176H93.3718H93.6413C94.1218 91.9083 94.5767 91.9999 95.0046 92.1481C95.5079 90.8833 95.7977 89.4527 95.7977 87.9325C95.7977 86.3671 95.4938 84.8948 94.9621 83.6037C94.9715 83.6091 94.9796 83.6145 94.9891 83.6198C94.9891 83.6198 94.0551 81.7802 93.4992 79.7984C94.0362 78.7465 94.5773 77.163 94.7869 74.8597C94.8152 74.6097 94.8071 74.4015 94.7734 74.2236C94.7134 73.6219 94.425 73.0565 94.0457 72.5686C93.237 71.4231 91.6198 71.2209 90.4068 71.8948C89.5982 72.3665 88.5874 72.636 87.5767 72.636H84.0726C81.9837 72.636 80.2316 74.388 80.2316 76.477H80.1643V79.6246C80.1535 79.6367 80.142 79.6475 80.1312 79.6596C79.3273 79.3914 78.4816 79.2189 77.6036 79.1724C73.0888 78.9029 69.1804 81.6657 67.698 85.6414C67.1589 87.0565 65.8112 87.9325 64.3287 87.9325C63.7222 87.9325 63.1157 87.9999 62.4419 88.1347C58.7357 88.8759 55.7707 92.043 55.4338 95.884C55.4089 96.1374 55.3981 96.388 55.394 96.6374C56.5234 97.1805 57.6818 97.6367 58.8705 97.9729C60.4203 98.3773 61.9702 98.7142 63.5201 98.7816C65.0699 98.849 66.6198 98.7142 68.1696 98.4446C69.7195 98.1751 71.202 97.636 72.6171 97.0295C73.2909 96.6926 74.0322 96.3557 74.706 95.9514C74.9075 95.8301 75.1036 95.7095 75.2909 95.5882C75.3051 95.4905 75.3226 95.3934 75.3435 95.2977C75.5928 93.3362 77.2579 91.9083 79.2209 91.9083" fill="#0B4870"/>
<path fill-rule="evenodd" clip-rule="evenodd" d="M77.132 113.943C76.6704 110.526 75.9237 105.085 75.543 100.717C75.1987 100.882 74.8523 101.046 74.5039 101.207C72.7519 101.948 70.8651 102.419 68.9783 102.756C65.1374 103.296 61.229 102.756 57.725 101.409C57.2674 101.233 56.8206 101.041 56.3806 100.84C57.0626 102.153 58.0605 103.274 59.2748 104.104C60.353 104.846 61.0268 106.059 61.1616 107.407C62.0376 113.471 67.5632 117.986 73.8975 117.244C75.0875 117.111 76.2236 116.781 77.2836 116.303C77.3065 115.509 77.2566 114.717 77.132 113.943" fill="#0B4870"/>
<path fill-rule="evenodd" clip-rule="evenodd" d="M97.0789 100.696C98.3107 101.013 99.5667 101.26 100.852 101.409C103.749 101.746 106.782 101.409 109.477 100.601C112.173 99.792 114.598 98.7138 116.957 97.9052C119.233 97.0831 121.457 96.6289 123.837 96.4638C124.156 96.7981 124.654 96.9248 125.245 97.0292C125.81 97.1289 126.504 96.3776 127.065 95.5892C127.642 94.7785 128.075 93.9295 128.075 93.9295C128.075 93.9295 130.501 91.0319 129.693 90.9645C129.007 90.9072 127.789 92.3978 127.065 92.6876C126.935 92.7394 126.819 92.7576 126.728 92.7165C126.321 92.5359 126.586 91.8998 127.065 91.1963C127.301 90.8506 127.585 90.4894 127.873 90.1559C128.749 89.0777 130.636 87.0562 129.356 86.9888C129.1 86.9888 128.034 87.5562 127.065 88.2799C126.502 88.6997 125.971 89.1714 125.65 89.6168C124.814 90.7738 123.803 92.9072 123.536 94.5642C121.148 94.3014 118.628 94.4504 116.216 94.8729C113.52 95.3446 111.027 96.0184 108.601 96.3553C106.243 96.6923 103.951 96.6923 101.728 96.1532C100.311 95.8095 98.9218 95.3176 97.5418 94.7354C97.6422 95.0373 97.721 95.35 97.752 95.6815C97.8396 96.7549 97.5559 98.5703 97.0789 100.696" fill="#B97A59"/>
<path fill-rule="evenodd" clip-rule="evenodd" d="M92.6981 178.296C92.3416 179.504 91.7493 182.993 91.0964 187.456C90.3073 192.845 89.4286 199.651 88.7648 205.579C88.5371 198.428 88.1691 190.628 87.9198 186.143C87.8322 184.567 87.7588 183.394 87.7116 182.811C87.7116 182.542 87.6442 182.271 87.5768 181.934C88.5256 176.73 89.1307 168.986 89.5283 161.461C89.535 161.336 89.5418 161.211 89.5485 161.085C89.5701 160.67 89.5903 160.257 89.6105 159.844C89.8322 160.235 90.0539 160.626 90.2776 161.015C90.903 162.105 91.5364 163.18 92.1705 164.23C92.4137 164.633 92.657 165.032 92.9003 165.425C94.9528 168.736 95.2433 172.891 93.5283 176.357C93.498 176.419 93.471 176.483 93.4393 176.544C93.4198 176.583 93.4016 176.627 93.3821 176.668C93.1327 177.176 92.8854 177.734 92.6981 178.296M88.5202 209.428C88.5263 209.424 88.5303 209.419 88.5357 209.414C89.1004 210.594 90.1011 211.923 91.1206 212.285C91.1523 212.296 91.184 212.317 91.2156 212.326C93.44 206.612 96.3174 198.305 98.5593 191.62C100.257 186.557 101.59 182.424 101.997 181.059C102.02 180.987 102.04 180.911 102.063 180.838C102.554 179.228 103.033 177.463 103.357 175.739C103.374 175.648 103.396 175.556 103.412 175.466C103.968 174.298 104.135 172.208 104.042 169.591C103.959 167.297 103.674 164.596 103.262 161.736C103.195 161.267 103.124 160.796 103.051 160.32C102.85 159.03 102.63 157.721 102.393 156.41C102.176 155.213 101.947 154.019 101.711 152.84C101.367 151.118 101.007 149.436 100.648 147.841C99.7143 143.691 98.7904 140.16 98.1631 138.165C98.064 137.851 97.9697 137.56 97.8868 137.326C97.56 136.422 97.1327 135.548 96.6395 134.716C84.3686 137.864 75.4239 133.07 73.1321 131.644C72.215 133.012 71.4912 134.532 71.0674 136.112C70.7136 137.385 70.9548 140.589 71.595 144.815C72.0445 147.785 72.6907 151.257 73.4683 154.927C74.7493 160.972 76.3848 167.543 78.0755 173.242C78.3275 174.096 78.5115 174.961 78.6442 175.833C78.7439 176.487 78.816 177.145 78.8517 177.805C78.9319 179.317 78.8484 180.837 78.6146 182.339C78.2776 184.428 78.2102 186.651 78.345 188.269C78.5472 190.763 81.31 200.802 83.938 209.496C83.9778 209.653 84.0667 209.782 84.1853 209.867C84.2689 209.926 84.3652 209.967 84.4771 209.967C85.8922 210.304 87.2399 210.236 88.5202 209.428" fill="#0B4870"/>
<path fill-rule="evenodd" clip-rule="evenodd" d="M96.6394 134.716C96.9198 134.645 97.1987 134.576 97.4824 134.496C97.9541 131.732 96.539 124.86 94.7196 120.547C93.6414 118.053 93.3719 115.291 93.9784 112.662C94.2432 111.383 94.6003 109.92 95.0006 108.387C95.7729 105.831 96.5464 103.07 97.0788 100.697C97.5559 98.5699 97.8396 96.7552 97.752 95.6818C97.721 95.3503 97.6421 95.0376 97.5417 94.735C97.1354 93.51 96.2014 92.5639 95.0047 92.1481C94.5768 91.9992 94.1219 91.9082 93.6414 91.9082H93.3719H91.4177H88.628L88.6549 92.8516L82.3207 92.1777L82.3995 91.9082H81.3099H79.5579H79.221C77.258 91.9082 75.5929 93.3361 75.3436 95.2977C75.3227 95.3934 75.3052 95.4904 75.291 95.5881C75.4164 95.5066 75.541 95.4257 75.6495 95.3449C75.7843 95.2101 75.9865 95.142 76.1212 95.0079L76.5255 94.7384L76.6603 94.6036C77.6711 93.7943 79.1536 93.9972 79.9622 95.0079C80.7034 96.0187 80.5687 97.4338 79.5579 98.2424C79.2883 98.4446 79.0862 98.5794 78.884 98.7815C78.6819 98.9163 78.4797 99.0504 78.2776 99.1852C77.8733 99.4554 77.4689 99.7242 77.0646 99.9271C76.5781 100.211 76.064 100.468 75.5431 100.718C75.9238 105.084 76.6704 110.526 77.132 113.943C77.2567 114.717 77.3065 115.509 77.2836 116.303C77.2439 117.651 76.9919 119.005 76.5255 120.277L72.5498 131.261C72.5498 131.261 72.7533 131.408 73.132 131.643C75.4238 133.07 84.3685 137.864 96.6394 134.716" fill="#FDB32A"/>
<path fill-rule="evenodd" clip-rule="evenodd" d="M87.3073 90.6278C85.8248 90.6278 84.6793 88.3367 83.7359 87.3259L83.7938 87.1211L82.3996 91.9082L82.3208 92.1777L88.655 92.8516L88.6281 91.9082L88.5809 90.2276C88.1786 90.4937 87.7763 90.6278 87.3073 90.6278" fill="#B97A59"/>
<path fill-rule="evenodd" clip-rule="evenodd" d="M87.3073 90.6277C87.7763 90.6277 88.1786 90.4936 88.5809 90.2275L88.5876 90.2234L88.5532 89.0758C87.2136 89.0651 85.8039 88.4384 83.8794 86.8164L83.7938 87.121L83.7358 87.3258C84.6792 88.3366 85.8248 90.6277 87.3073 90.6277" fill="#AA6B4F"/>
<path fill-rule="evenodd" clip-rule="evenodd" d="M88.5533 89.0759C88.5647 89.0759 88.5762 89.0779 88.5876 89.0779C89.6658 89.0779 91.4178 85.5739 91.9569 82.8785C92.0816 82.3272 92.1644 81.776 92.221 81.2356C91.2817 79.9984 90.7743 78.675 90.5068 77.6514C89.9454 78.363 88.7999 79.1837 86.2965 80.3852C83.595 81.6648 81.8915 81.989 80.6436 82.3852C80.9185 83.0024 81.3012 83.495 81.6961 83.5995C82.0122 84.6763 82.7143 85.8461 83.6011 86.5847C83.6968 86.6682 83.7857 86.7376 83.8794 86.8165C85.8039 88.4384 87.2136 89.0651 88.5533 89.0759" fill="#B97A59"/>
<path fill-rule="evenodd" clip-rule="evenodd" d="M56.3807 100.84C56.8207 101.042 57.2675 101.234 57.725 101.409C61.2291 102.757 65.1374 103.297 68.9784 102.757C70.8652 102.42 72.752 101.949 74.504 101.207C74.8524 101.047 75.1987 100.882 75.5431 100.717C76.064 100.468 76.5781 100.211 77.0646 99.9276C77.469 99.7248 77.8733 99.4552 78.2776 99.1857C78.4797 99.0509 78.6819 98.9168 78.884 98.7814C79.0862 98.5792 79.2884 98.4445 79.5579 98.2423C80.5687 97.4337 80.7035 96.0186 79.9622 95.0078C79.1536 93.997 77.6711 93.7949 76.6603 94.6035L76.5256 94.7383L76.1212 95.0078C75.9865 95.1426 75.7843 95.21 75.6495 95.3447C75.5417 95.4263 75.4171 95.5071 75.2911 95.5887C75.1037 95.7093 74.9076 95.8299 74.7062 95.9512C74.0323 96.3555 73.2911 96.6924 72.6172 97.0294C71.2021 97.6358 69.7196 98.1749 68.1698 98.4445C66.6199 98.714 65.07 98.8488 63.5202 98.7814C61.9703 98.714 60.4204 98.3771 58.8706 97.9728C57.6819 97.6372 56.5235 97.1803 55.3942 96.6372C53.5788 95.7632 51.8396 94.6628 50.1778 93.4579C49.9818 93.311 49.7971 93.15 49.6044 92.9997C47.7823 91.5806 46.0707 90.0179 44.4225 88.3346C44.4541 88.2895 44.4858 88.249 44.5175 88.2019C45.1913 87.1911 42.9676 84.2261 42.9676 84.2261C42.9676 84.2261 42.8645 83.9835 42.7068 83.6426L39.4629 86.6716C40.159 87.5139 40.9642 88.305 41.7547 88.8083C42.258 89.1439 42.6644 89.2848 43.0141 89.2908C44.6408 91.4903 46.4642 93.6069 48.4932 95.4795C48.5916 95.5678 48.6927 95.6534 48.7917 95.741C50.0505 96.8562 51.3692 97.9114 52.8059 98.8488C53.9514 99.5954 55.134 100.267 56.3807 100.84" fill="#B97A59"/>
<path fill-rule="evenodd" clip-rule="evenodd" d="M93.5739 226.409C90.0025 226.679 86.8354 224.657 84.5443 221.625C84.4648 221.518 84.3522 221.478 84.239 221.469C84.0645 221.454 83.8846 221.529 83.803 221.692C83.4661 222.366 82.9944 223.243 82.7922 223.58C82.5901 223.983 82.7249 224.523 83.0618 224.793C83.0618 224.793 83.3185 225.107 84.2154 225.669C84.0524 226.337 84.394 227.056 85.0834 227.286C85.1453 227.307 85.2127 227.33 85.2774 227.353H94.8812C94.5099 226.96 94.0564 226.613 93.5739 226.409" fill="#0B4870"/>
<path fill-rule="evenodd" clip-rule="evenodd" d="M17.6982 113.741C12.9138 115.56 7.45559 113.201 5.63618 108.35C3.81677 103.565 6.17526 98.1078 11.027 96.2884C15.8114 94.4683 21.2696 96.8268 23.089 101.679C24.9084 106.531 22.4825 111.922 17.6982 113.741V113.741ZM48.8296 77.9258L67.6308 60.3719L72.4825 65.1556L77.3343 60.2372L73.4933 56.3955L74.9758 54.6442L78.9515 58.2156L82.3208 54.3739L78.1429 50.5336L80.0971 48.7142L75.717 43.9292L46.2959 70.8369L22.0782 92.9865C18.372 90.628 13.655 90.0215 9.20761 91.7062C1.79521 94.5363 -1.91099 102.825 0.986584 110.237C3.88416 117.65 12.1052 121.356 19.5176 118.458C26.93 115.628 30.6362 107.34 27.7386 99.9272C27.5364 99.3874 27.2669 98.8483 26.9974 98.3099L39.463 86.6711L42.7063 83.6428L48.8296 77.9258Z" fill="#C5D6F1"/>
</svg>
