<?xml version="1.0" encoding="utf-8"?>
<!-- Generator: Adobe Illustrator 16.0.0, SVG Export Plug-In . SVG Version: 6.00 Build 0)  -->
<!DOCTYPE svg PUBLIC "-//W3C//DTD SVG 1.1//EN" "http://www.w3.org/Graphics/SVG/1.1/DTD/svg11.dtd">
<svg version="1.1" id="Layer_1" xmlns="http://www.w3.org/2000/svg" xmlns:xlink="http://www.w3.org/1999/xlink" x="0px" y="0px"
	 width="1292px" height="1084px" viewBox="0 0 1292 1084" enable-background="new 0 0 1292 1084" xml:space="preserve">
<g>
	<defs>
		<rect id="SVGID_1_" x="-910" y="-344" width="2340" height="1559.999"/>
	</defs>
	<clipPath id="SVGID_2_">
		<use xlink:href="#SVGID_1_"  overflow="visible"/>
	</clipPath>
	<g clip-path="url(#SVGID_2_)">
		<defs>
			<rect id="SVGID_3_" x="-910" y="-344" width="2340" height="1559.999"/>
		</defs>
		<clipPath id="SVGID_4_">
			<use xlink:href="#SVGID_3_"  overflow="visible"/>
		</clipPath>
		<path clip-path="url(#SVGID_4_)" fill="#FFB8C8" d="M1197.104,544.214h-5.023c-0.143-31.003-25.813-56.094-57.467-56.094
			c-17.313,0-32.824,7.516-43.361,19.39c-5.686-2.721-12.072-4.251-18.824-4.251c-23.332,0-42.309,18.231-42.953,40.955h-5.047
			c-15.941,0-28.867,12.672-28.867,28.305s12.926,28.304,28.867,28.304h172.676c15.943,0,28.867-12.671,28.867-28.304
			S1213.047,544.214,1197.104,544.214"/>
		<path clip-path="url(#SVGID_4_)" fill="#FFB8C8" d="M1185.865,247.6h-2.898c-0.082-18.25-14.898-33.021-33.168-33.021
			c-9.992,0-18.947,4.425-25.027,11.414c-3.283-1.601-6.969-2.502-10.865-2.502c-13.467,0-24.42,10.732-24.791,24.109h-2.912
			c-9.203,0-16.662,7.459-16.662,16.662c0,9.202,7.459,16.661,16.662,16.661h99.662c9.203,0,16.662-7.459,16.662-16.661
			C1202.527,255.059,1195.068,247.6,1185.865,247.6"/>
		<path clip-path="url(#SVGID_4_)" fill="#FFB8C8" d="M551.319,280.828h1.82c0.051-11.462,9.355-20.738,20.83-20.738
			c6.275,0,11.898,2.779,15.719,7.169c2.061-1.006,4.375-1.572,6.822-1.572c8.457,0,15.338,6.74,15.57,15.141h1.83
			c5.779,0,10.464,4.685,10.464,10.464c0,5.78-4.685,10.464-10.464,10.464h-62.592c-5.779,0-10.465-4.684-10.465-10.464
			C540.854,285.513,545.54,280.828,551.319,280.828"/>
		<rect x="892.027" y="706.188" clip-path="url(#SVGID_4_)" fill="#DCE2ED" width="65.516" height="250.343"/>
		<rect x="956.037" y="733.083" clip-path="url(#SVGID_4_)" fill="#DCE2ED" width="100.9" height="223.447"/>
		<rect x="1037.959" y="680.558" clip-path="url(#SVGID_4_)" fill="#E2E6FF" width="66.6" height="275.973"/>
		<rect x="1018.738" y="757.445" clip-path="url(#SVGID_4_)" fill="#C7CFFF" width="8.73" height="19.841"/>
		<rect x="1018.738" y="766.839" clip-path="url(#SVGID_4_)" fill="#C7CFFF" width="8.73" height="10.447"/>
		<rect x="1039.508" y="744.55" clip-path="url(#SVGID_4_)" fill="#E2E6FF" width="19.992" height="32.736"/>
		<rect x="1039.508" y="766.839" clip-path="url(#SVGID_4_)" fill="#C7CFFF" width="19.992" height="10.447"/>
		<rect x="1006.504" y="771.077" clip-path="url(#SVGID_4_)" fill="#E2E6FF" width="62.715" height="185.453"/>
		<rect x="1019.514" y="789.108" clip-path="url(#SVGID_4_)" fill="#C7CFFF" width="5.814" height="7.598"/>
		<rect x="1019.514" y="804.765" clip-path="url(#SVGID_4_)" fill="#C7CFFF" width="5.814" height="7.598"/>
		<rect x="1019.514" y="820.423" clip-path="url(#SVGID_4_)" fill="#C7CFFF" width="5.814" height="7.596"/>
		<rect x="1019.514" y="836.079" clip-path="url(#SVGID_4_)" fill="#C7CFFF" width="5.814" height="7.598"/>
		<rect x="1019.514" y="851.735" clip-path="url(#SVGID_4_)" fill="#C7CFFF" width="5.814" height="7.598"/>
		<rect x="1019.514" y="867.392" clip-path="url(#SVGID_4_)" fill="#C7CFFF" width="5.814" height="7.598"/>
		<rect x="1019.514" y="883.05" clip-path="url(#SVGID_4_)" fill="#C7CFFF" width="5.814" height="7.598"/>
		<rect x="1036.602" y="789.108" clip-path="url(#SVGID_4_)" fill="#C7CFFF" width="5.813" height="7.598"/>
		<rect x="1036.602" y="804.765" clip-path="url(#SVGID_4_)" fill="#C7CFFF" width="5.813" height="7.598"/>
		<rect x="1036.602" y="820.423" clip-path="url(#SVGID_4_)" fill="#C7CFFF" width="5.813" height="7.596"/>
		<rect x="1036.602" y="836.079" clip-path="url(#SVGID_4_)" fill="#C7CFFF" width="5.813" height="7.598"/>
		<rect x="1036.602" y="851.735" clip-path="url(#SVGID_4_)" fill="#C7CFFF" width="5.813" height="7.598"/>
		<rect x="1036.602" y="867.392" clip-path="url(#SVGID_4_)" fill="#C7CFFF" width="5.813" height="7.598"/>
		<rect x="1036.602" y="883.05" clip-path="url(#SVGID_4_)" fill="#C7CFFF" width="5.813" height="7.598"/>
		<rect x="1053.688" y="789.108" clip-path="url(#SVGID_4_)" fill="#C7CFFF" width="5.813" height="7.598"/>
		<rect x="1053.688" y="804.765" clip-path="url(#SVGID_4_)" fill="#C7CFFF" width="5.813" height="7.598"/>
		<rect x="1053.688" y="820.423" clip-path="url(#SVGID_4_)" fill="#C7CFFF" width="5.813" height="7.596"/>
		<rect x="1053.688" y="836.079" clip-path="url(#SVGID_4_)" fill="#C7CFFF" width="5.813" height="7.598"/>
		<rect x="1053.688" y="851.735" clip-path="url(#SVGID_4_)" fill="#C7CFFF" width="5.813" height="7.598"/>
		<rect x="1053.688" y="867.392" clip-path="url(#SVGID_4_)" fill="#C7CFFF" width="5.813" height="7.598"/>
		<rect x="1053.688" y="883.05" clip-path="url(#SVGID_4_)" fill="#C7CFFF" width="5.813" height="7.598"/>
		<polygon clip-path="url(#SVGID_4_)" fill="#E2E6FF" points="1081.789,747.397 1148.65,747.397 1148.65,685.823 1081.789,717.362 
					"/>
		<rect x="1066.959" y="733.118" clip-path="url(#SVGID_4_)" fill="#E2E6FF" width="96.521" height="223.412"/>
		<rect x="1081.789" y="726.432" clip-path="url(#SVGID_4_)" fill="#C7CFFF" width="66.861" height="6.687"/>
		<rect x="1129.451" y="866.899" clip-path="url(#SVGID_4_)" fill="#C7CFFF" width="9.85" height="15.193"/>
		<rect x="1129.451" y="841.269" clip-path="url(#SVGID_4_)" fill="#C7CFFF" width="9.85" height="15.195"/>
		<rect x="1129.451" y="815.64" clip-path="url(#SVGID_4_)" fill="#C7CFFF" width="9.85" height="15.195"/>
		<rect x="1129.451" y="790.011" clip-path="url(#SVGID_4_)" fill="#C7CFFF" width="9.85" height="15.195"/>
		<rect x="1129.451" y="764.382" clip-path="url(#SVGID_4_)" fill="#C7CFFF" width="9.85" height="15.195"/>
		<rect x="1110.295" y="866.899" clip-path="url(#SVGID_4_)" fill="#C7CFFF" width="9.852" height="15.193"/>
		<rect x="1110.295" y="841.269" clip-path="url(#SVGID_4_)" fill="#C7CFFF" width="9.852" height="15.195"/>
		<rect x="1110.295" y="815.64" clip-path="url(#SVGID_4_)" fill="#C7CFFF" width="9.852" height="15.195"/>
		<rect x="1110.295" y="790.011" clip-path="url(#SVGID_4_)" fill="#C7CFFF" width="9.852" height="15.195"/>
		<rect x="1110.295" y="764.382" clip-path="url(#SVGID_4_)" fill="#C7CFFF" width="9.852" height="15.195"/>
		<rect x="1091.137" y="866.899" clip-path="url(#SVGID_4_)" fill="#C7CFFF" width="9.852" height="15.193"/>
		<rect x="1091.137" y="841.269" clip-path="url(#SVGID_4_)" fill="#C7CFFF" width="9.852" height="15.195"/>
		<rect x="1091.137" y="815.64" clip-path="url(#SVGID_4_)" fill="#C7CFFF" width="9.852" height="15.195"/>
		<rect x="1091.137" y="790.011" clip-path="url(#SVGID_4_)" fill="#C7CFFF" width="9.852" height="15.195"/>
		<rect x="1091.137" y="764.382" clip-path="url(#SVGID_4_)" fill="#C7CFFF" width="9.852" height="15.195"/>
	</g>
	<g clip-path="url(#SVGID_2_)">
		<defs>
			<rect id="SVGID_5_" x="948.951" y="484.802" width="31.697" height="61.574"/>
		</defs>
		<clipPath id="SVGID_6_">
			<use xlink:href="#SVGID_5_"  overflow="visible"/>
		</clipPath>
		
			<linearGradient id="SVGID_7_" gradientUnits="userSpaceOnUse" x1="-910" y1="1216" x2="-909" y2="1216" gradientTransform="matrix(31.6974 0 0 -31.6974 29793.6074 39059.6602)">
			<stop  offset="0" style="stop-color:#D4D9FF"/>
			<stop  offset="1" style="stop-color:#E2E6FF"/>
		</linearGradient>
		<rect x="948.951" y="484.802" clip-path="url(#SVGID_6_)" fill="url(#SVGID_7_)" width="31.697" height="61.574"/>
	</g>
	<g clip-path="url(#SVGID_2_)">
		<defs>
			<rect id="SVGID_8_" x="-910" y="-344" width="2340" height="1559.999"/>
		</defs>
		<clipPath id="SVGID_9_">
			<use xlink:href="#SVGID_8_"  overflow="visible"/>
		</clipPath>
		<rect x="948.951" y="536.626" clip-path="url(#SVGID_9_)" fill="#C7CFFF" width="31.697" height="9.75"/>
	</g>
	<g clip-path="url(#SVGID_2_)">
		<defs>
			<rect id="SVGID_10_" x="931.369" y="543.145" width="66.861" height="61.574"/>
		</defs>
		<clipPath id="SVGID_11_">
			<use xlink:href="#SVGID_10_"  overflow="visible"/>
		</clipPath>
		
			<linearGradient id="SVGID_12_" gradientUnits="userSpaceOnUse" x1="-910.0005" y1="1216" x2="-909.0005" y2="1216" gradientTransform="matrix(66.8607 0 0 -66.8607 61774.5742 81876.5)">
			<stop  offset="0" style="stop-color:#D4D9FF"/>
			<stop  offset="1" style="stop-color:#E2E6FF"/>
		</linearGradient>
		<rect x="931.369" y="543.145" clip-path="url(#SVGID_11_)" fill="url(#SVGID_12_)" width="66.861" height="61.574"/>
	</g>
	<g clip-path="url(#SVGID_2_)">
		<defs>
			<rect id="SVGID_13_" x="-910" y="-344" width="2340" height="1559.999"/>
		</defs>
		<clipPath id="SVGID_14_">
			<use xlink:href="#SVGID_13_"  overflow="visible"/>
		</clipPath>
		<rect x="916.539" y="590.439" clip-path="url(#SVGID_14_)" fill="#E2E6FF" width="96.521" height="366.091"/>
		<rect x="931.369" y="583.753" clip-path="url(#SVGID_14_)" fill="#C7CFFF" width="66.861" height="6.687"/>
		<rect x="940.717" y="852.364" clip-path="url(#SVGID_14_)" fill="#C7CFFF" width="9.852" height="15.195"/>
		<rect x="940.717" y="801.106" clip-path="url(#SVGID_14_)" fill="#C7CFFF" width="9.852" height="15.193"/>
		<rect x="940.717" y="775.478" clip-path="url(#SVGID_14_)" fill="#C7CFFF" width="9.852" height="15.193"/>
		<rect x="940.717" y="749.849" clip-path="url(#SVGID_14_)" fill="#C7CFFF" width="9.852" height="15.194"/>
		<rect x="940.717" y="698.59" clip-path="url(#SVGID_14_)" fill="#C7CFFF" width="9.852" height="15.195"/>
		<rect x="940.717" y="647.332" clip-path="url(#SVGID_14_)" fill="#C7CFFF" width="9.852" height="15.194"/>
		<rect x="959.875" y="826.735" clip-path="url(#SVGID_14_)" fill="#C7CFFF" width="9.85" height="15.193"/>
		<rect x="959.875" y="775.478" clip-path="url(#SVGID_14_)" fill="#C7CFFF" width="9.85" height="15.193"/>
		<rect x="959.875" y="672.961" clip-path="url(#SVGID_14_)" fill="#C7CFFF" width="9.85" height="15.195"/>
		<rect x="959.875" y="647.332" clip-path="url(#SVGID_14_)" fill="#C7CFFF" width="9.85" height="15.194"/>
		<rect x="979.031" y="877.993" clip-path="url(#SVGID_14_)" fill="#C7CFFF" width="9.85" height="15.193"/>
		<rect x="979.031" y="801.106" clip-path="url(#SVGID_14_)" fill="#C7CFFF" width="9.85" height="15.193"/>
		<rect x="979.031" y="749.849" clip-path="url(#SVGID_14_)" fill="#C7CFFF" width="9.85" height="15.194"/>
		<rect x="979.031" y="698.59" clip-path="url(#SVGID_14_)" fill="#C7CFFF" width="9.85" height="15.195"/>
		<rect x="979.031" y="672.961" clip-path="url(#SVGID_14_)" fill="#C7CFFF" width="9.85" height="15.195"/>
		<rect x="979.031" y="621.703" clip-path="url(#SVGID_14_)" fill="#C7CFFF" width="9.85" height="15.193"/>
	</g>
	<g clip-path="url(#SVGID_2_)">
		<defs>
			<rect id="SVGID_15_" x="1215.047" y="384.718" width="13.307" height="105.241"/>
		</defs>
		<clipPath id="SVGID_16_">
			<use xlink:href="#SVGID_15_"  overflow="visible"/>
		</clipPath>
		
			<linearGradient id="SVGID_17_" gradientUnits="userSpaceOnUse" x1="-910" y1="1216" x2="-908.9995" y2="1216" gradientTransform="matrix(13.3053 0 0 -13.3053 13322.8975 16616.6172)">
			<stop  offset="0" style="stop-color:#D4D9FF"/>
			<stop  offset="1" style="stop-color:#E2E6FF"/>
		</linearGradient>
		<rect x="1215.047" y="384.718" clip-path="url(#SVGID_16_)" fill="url(#SVGID_17_)" width="13.307" height="105.241"/>
	</g>
	<g clip-path="url(#SVGID_2_)">
		<defs>
			<rect id="SVGID_18_" x="-910" y="-344" width="2340" height="1559.999"/>
		</defs>
		<clipPath id="SVGID_19_">
			<use xlink:href="#SVGID_18_"  overflow="visible"/>
		</clipPath>
		<rect x="1215.047" y="480.21" clip-path="url(#SVGID_19_)" fill="#C7CFFF" width="13.307" height="9.749"/>
	</g>
	<g clip-path="url(#SVGID_2_)">
		<defs>
			<rect id="SVGID_20_" x="1178.311" y="440.283" width="24.217" height="61.574"/>
		</defs>
		<clipPath id="SVGID_21_">
			<use xlink:href="#SVGID_20_"  overflow="visible"/>
		</clipPath>
		
			<linearGradient id="SVGID_22_" gradientUnits="userSpaceOnUse" x1="-910" y1="1216" x2="-909" y2="1216" gradientTransform="matrix(24.218 0 0 -24.218 23216.6758 29920.1426)">
			<stop  offset="0" style="stop-color:#D4D9FF"/>
			<stop  offset="1" style="stop-color:#E2E6FF"/>
		</linearGradient>
		<rect x="1178.309" y="440.283" clip-path="url(#SVGID_21_)" fill="url(#SVGID_22_)" width="24.219" height="61.574"/>
	</g>
	<g clip-path="url(#SVGID_2_)">
		<defs>
			<rect id="SVGID_23_" x="-910" y="-344" width="2340" height="1559.999"/>
		</defs>
		<clipPath id="SVGID_24_">
			<use xlink:href="#SVGID_23_"  overflow="visible"/>
		</clipPath>
		<rect x="1163.479" y="487.578" clip-path="url(#SVGID_24_)" fill="#E2E6FF" width="96.521" height="468.952"/>
		<rect x="1178.311" y="480.892" clip-path="url(#SVGID_24_)" fill="#C7CFFF" width="24.217" height="6.687"/>
		<rect x="1187.658" y="775.132" clip-path="url(#SVGID_24_)" fill="#C7CFFF" width="9.85" height="15.195"/>
		<rect x="1187.658" y="749.504" clip-path="url(#SVGID_24_)" fill="#C7CFFF" width="9.85" height="15.194"/>
		<rect x="1187.658" y="672.617" clip-path="url(#SVGID_24_)" fill="#C7CFFF" width="9.85" height="15.195"/>
		<rect x="1187.658" y="646.988" clip-path="url(#SVGID_24_)" fill="#C7CFFF" width="9.85" height="15.193"/>
		<rect x="1187.658" y="595.73" clip-path="url(#SVGID_24_)" fill="#C7CFFF" width="9.85" height="15.193"/>
		<rect x="1187.658" y="518.842" clip-path="url(#SVGID_24_)" fill="#C7CFFF" width="9.85" height="15.195"/>
		<rect x="1206.814" y="723.875" clip-path="url(#SVGID_24_)" fill="#C7CFFF" width="9.85" height="15.194"/>
		<rect x="1206.814" y="646.988" clip-path="url(#SVGID_24_)" fill="#C7CFFF" width="9.85" height="15.193"/>
		<rect x="1206.814" y="621.359" clip-path="url(#SVGID_24_)" fill="#C7CFFF" width="9.85" height="15.193"/>
		<rect x="1206.814" y="570.101" clip-path="url(#SVGID_24_)" fill="#C7CFFF" width="9.85" height="15.194"/>
		<rect x="1206.814" y="544.472" clip-path="url(#SVGID_24_)" fill="#C7CFFF" width="9.85" height="15.194"/>
		<rect x="1225.971" y="775.132" clip-path="url(#SVGID_24_)" fill="#C7CFFF" width="9.852" height="15.195"/>
		<rect x="1225.971" y="723.875" clip-path="url(#SVGID_24_)" fill="#C7CFFF" width="9.852" height="15.194"/>
		<rect x="1225.971" y="672.617" clip-path="url(#SVGID_24_)" fill="#C7CFFF" width="9.852" height="15.195"/>
		<rect x="1225.971" y="621.359" clip-path="url(#SVGID_24_)" fill="#C7CFFF" width="9.852" height="15.193"/>
		<rect x="1225.971" y="544.472" clip-path="url(#SVGID_24_)" fill="#C7CFFF" width="9.852" height="15.194"/>
		<rect x="173.276" y="614.664" clip-path="url(#SVGID_24_)" fill="#E2E6FF" width="66.6" height="275.972"/>
		<rect x="154.055" y="691.551" clip-path="url(#SVGID_24_)" fill="#C7CFFF" width="8.731" height="19.842"/>
		<rect x="154.055" y="700.946" clip-path="url(#SVGID_24_)" fill="#C7CFFF" width="8.731" height="10.446"/>
		<rect x="174.825" y="678.656" clip-path="url(#SVGID_24_)" fill="#E2E6FF" width="19.992" height="32.736"/>
		<rect x="174.825" y="700.946" clip-path="url(#SVGID_24_)" fill="#C7CFFF" width="19.992" height="10.446"/>
		<rect x="141.821" y="705.183" clip-path="url(#SVGID_24_)" fill="#E2E6FF" width="62.713" height="185.453"/>
		<rect x="154.831" y="723.214" clip-path="url(#SVGID_24_)" fill="#C7CFFF" width="5.813" height="7.599"/>
		<rect x="154.831" y="738.871" clip-path="url(#SVGID_24_)" fill="#C7CFFF" width="5.813" height="7.598"/>
		<rect x="154.831" y="754.528" clip-path="url(#SVGID_24_)" fill="#C7CFFF" width="5.813" height="7.597"/>
		<rect x="154.831" y="770.183" clip-path="url(#SVGID_24_)" fill="#C7CFFF" width="5.813" height="7.6"/>
		<rect x="154.831" y="785.841" clip-path="url(#SVGID_24_)" fill="#C7CFFF" width="5.813" height="7.598"/>
		<rect x="154.831" y="801.499" clip-path="url(#SVGID_24_)" fill="#C7CFFF" width="5.813" height="7.596"/>
		<rect x="154.831" y="817.155" clip-path="url(#SVGID_24_)" fill="#C7CFFF" width="5.813" height="7.598"/>
		<rect x="171.917" y="723.214" clip-path="url(#SVGID_24_)" fill="#C7CFFF" width="5.813" height="7.599"/>
		<rect x="171.917" y="738.871" clip-path="url(#SVGID_24_)" fill="#C7CFFF" width="5.813" height="7.598"/>
		<rect x="171.917" y="754.528" clip-path="url(#SVGID_24_)" fill="#C7CFFF" width="5.813" height="7.597"/>
		<rect x="171.917" y="770.183" clip-path="url(#SVGID_24_)" fill="#C7CFFF" width="5.813" height="7.6"/>
		<rect x="171.917" y="785.841" clip-path="url(#SVGID_24_)" fill="#C7CFFF" width="5.813" height="7.598"/>
		<rect x="171.917" y="801.499" clip-path="url(#SVGID_24_)" fill="#C7CFFF" width="5.813" height="7.596"/>
		<rect x="171.917" y="817.155" clip-path="url(#SVGID_24_)" fill="#C7CFFF" width="5.813" height="7.598"/>
		<rect x="189.005" y="723.214" clip-path="url(#SVGID_24_)" fill="#C7CFFF" width="5.813" height="7.599"/>
		<rect x="189.005" y="738.871" clip-path="url(#SVGID_24_)" fill="#C7CFFF" width="5.813" height="7.598"/>
		<rect x="189.005" y="754.528" clip-path="url(#SVGID_24_)" fill="#C7CFFF" width="5.813" height="7.597"/>
		<rect x="189.005" y="770.183" clip-path="url(#SVGID_24_)" fill="#C7CFFF" width="5.813" height="7.6"/>
		<rect x="189.005" y="785.841" clip-path="url(#SVGID_24_)" fill="#C7CFFF" width="5.813" height="7.598"/>
		<rect x="189.005" y="801.499" clip-path="url(#SVGID_24_)" fill="#C7CFFF" width="5.813" height="7.596"/>
		<rect x="189.005" y="817.155" clip-path="url(#SVGID_24_)" fill="#C7CFFF" width="5.813" height="7.598"/>
		<polygon clip-path="url(#SVGID_24_)" fill="#E2E6FF" points="217.106,681.503 283.966,681.503 283.966,619.929 217.106,651.468 		
			"/>
		<rect x="202.276" y="667.224" clip-path="url(#SVGID_24_)" fill="#E2E6FF" width="96.52" height="223.412"/>
		<rect x="217.106" y="660.538" clip-path="url(#SVGID_24_)" fill="#C7CFFF" width="66.859" height="6.686"/>
		<rect x="264.769" y="801.003" clip-path="url(#SVGID_24_)" fill="#C7CFFF" width="9.852" height="15.195"/>
		<rect x="264.769" y="775.374" clip-path="url(#SVGID_24_)" fill="#C7CFFF" width="9.852" height="15.195"/>
		<rect x="264.769" y="749.745" clip-path="url(#SVGID_24_)" fill="#C7CFFF" width="9.852" height="15.195"/>
		<rect x="264.769" y="724.117" clip-path="url(#SVGID_24_)" fill="#C7CFFF" width="9.852" height="15.195"/>
		<rect x="264.769" y="698.488" clip-path="url(#SVGID_24_)" fill="#C7CFFF" width="9.852" height="15.194"/>
		<rect x="245.61" y="801.003" clip-path="url(#SVGID_24_)" fill="#C7CFFF" width="9.852" height="15.195"/>
		<rect x="245.61" y="775.374" clip-path="url(#SVGID_24_)" fill="#C7CFFF" width="9.852" height="15.195"/>
		<rect x="245.61" y="749.745" clip-path="url(#SVGID_24_)" fill="#C7CFFF" width="9.852" height="15.195"/>
		<rect x="245.61" y="724.117" clip-path="url(#SVGID_24_)" fill="#C7CFFF" width="9.852" height="15.195"/>
		<rect x="245.61" y="698.488" clip-path="url(#SVGID_24_)" fill="#C7CFFF" width="9.852" height="15.194"/>
		<rect x="226.454" y="801.003" clip-path="url(#SVGID_24_)" fill="#C7CFFF" width="9.852" height="15.195"/>
		<rect x="226.454" y="775.374" clip-path="url(#SVGID_24_)" fill="#C7CFFF" width="9.852" height="15.195"/>
		<rect x="226.454" y="749.745" clip-path="url(#SVGID_24_)" fill="#C7CFFF" width="9.852" height="15.195"/>
		<rect x="226.454" y="724.117" clip-path="url(#SVGID_24_)" fill="#C7CFFF" width="9.852" height="15.195"/>
		<rect x="226.454" y="698.488" clip-path="url(#SVGID_24_)" fill="#C7CFFF" width="9.852" height="15.194"/>
	</g>
	<g clip-path="url(#SVGID_2_)">
		<defs>
			<rect id="SVGID_25_" x="84.268" y="557.796" width="31.698" height="61.574"/>
		</defs>
		<clipPath id="SVGID_26_">
			<use xlink:href="#SVGID_25_"  overflow="visible"/>
		</clipPath>
		
			<linearGradient id="SVGID_27_" gradientUnits="userSpaceOnUse" x1="-910" y1="1216" x2="-909" y2="1216" gradientTransform="matrix(31.6974 0 0 -31.6974 28928.9199 39132.6602)">
			<stop  offset="0" style="stop-color:#D4D9FF"/>
			<stop  offset="1" style="stop-color:#E2E6FF"/>
		</linearGradient>
		<rect x="84.268" y="557.796" clip-path="url(#SVGID_26_)" fill="url(#SVGID_27_)" width="31.698" height="61.574"/>
	</g>
	<g clip-path="url(#SVGID_2_)">
		<defs>
			<rect id="SVGID_28_" x="-910" y="-344" width="2340" height="1559.999"/>
		</defs>
		<clipPath id="SVGID_29_">
			<use xlink:href="#SVGID_28_"  overflow="visible"/>
		</clipPath>
		<rect x="84.268" y="609.62" clip-path="url(#SVGID_29_)" fill="#C7CFFF" width="31.698" height="9.75"/>
	</g>
	<g clip-path="url(#SVGID_2_)">
		<defs>
			<rect id="SVGID_30_" x="66.686" y="616.139" width="66.86" height="61.574"/>
		</defs>
		<clipPath id="SVGID_31_">
			<use xlink:href="#SVGID_30_"  overflow="visible"/>
		</clipPath>
		
			<linearGradient id="SVGID_32_" gradientUnits="userSpaceOnUse" x1="-910.0005" y1="1216" x2="-909.0005" y2="1216" gradientTransform="matrix(66.8607 0 0 -66.8607 60909.8867 81949.5)">
			<stop  offset="0" style="stop-color:#D4D9FF"/>
			<stop  offset="1" style="stop-color:#E2E6FF"/>
		</linearGradient>
		<rect x="66.686" y="616.139" clip-path="url(#SVGID_31_)" fill="url(#SVGID_32_)" width="66.86" height="61.574"/>
	</g>
	<g clip-path="url(#SVGID_2_)">
		<defs>
			<rect id="SVGID_33_" x="-910" y="-344" width="2340" height="1559.999"/>
		</defs>
		<clipPath id="SVGID_34_">
			<use xlink:href="#SVGID_33_"  overflow="visible"/>
		</clipPath>
		<rect x="51.856" y="663.433" clip-path="url(#SVGID_34_)" fill="#E2E6FF" width="96.52" height="366.092"/>
		<rect x="66.687" y="656.748" clip-path="url(#SVGID_34_)" fill="#C7CFFF" width="66.861" height="6.686"/>
		<rect x="76.034" y="925.358" clip-path="url(#SVGID_34_)" fill="#C7CFFF" width="9.85" height="15.195"/>
		<rect x="76.034" y="874.101" clip-path="url(#SVGID_34_)" fill="#C7CFFF" width="9.85" height="15.193"/>
		<rect x="76.034" y="848.472" clip-path="url(#SVGID_34_)" fill="#C7CFFF" width="9.85" height="15.193"/>
		<rect x="76.034" y="822.843" clip-path="url(#SVGID_34_)" fill="#C7CFFF" width="9.85" height="15.193"/>
		<rect x="76.034" y="771.585" clip-path="url(#SVGID_34_)" fill="#C7CFFF" width="9.85" height="15.193"/>
		<rect x="76.034" y="720.326" clip-path="url(#SVGID_34_)" fill="#C7CFFF" width="9.85" height="15.195"/>
		<rect x="95.19" y="899.729" clip-path="url(#SVGID_34_)" fill="#C7CFFF" width="9.852" height="15.195"/>
		<rect x="95.19" y="848.472" clip-path="url(#SVGID_34_)" fill="#C7CFFF" width="9.852" height="15.193"/>
		<rect x="95.19" y="745.955" clip-path="url(#SVGID_34_)" fill="#C7CFFF" width="9.852" height="15.195"/>
		<rect x="95.19" y="720.326" clip-path="url(#SVGID_34_)" fill="#C7CFFF" width="9.852" height="15.195"/>
		<rect x="114.348" y="950.989" clip-path="url(#SVGID_34_)" fill="#C7CFFF" width="9.851" height="15.193"/>
		<rect x="114.348" y="874.101" clip-path="url(#SVGID_34_)" fill="#C7CFFF" width="9.851" height="15.193"/>
		<rect x="114.348" y="822.843" clip-path="url(#SVGID_34_)" fill="#C7CFFF" width="9.851" height="15.193"/>
		<rect x="114.348" y="771.585" clip-path="url(#SVGID_34_)" fill="#C7CFFF" width="9.851" height="15.193"/>
		<rect x="114.348" y="745.955" clip-path="url(#SVGID_34_)" fill="#C7CFFF" width="9.851" height="15.195"/>
		<rect x="114.348" y="694.698" clip-path="url(#SVGID_34_)" fill="#C7CFFF" width="9.851" height="15.194"/>
	</g>
	<g clip-path="url(#SVGID_2_)">
		<defs>
			<rect id="SVGID_35_" x="350.364" y="318.824" width="13.307" height="105.241"/>
		</defs>
		<clipPath id="SVGID_36_">
			<use xlink:href="#SVGID_35_"  overflow="visible"/>
		</clipPath>
		
			<linearGradient id="SVGID_37_" gradientUnits="userSpaceOnUse" x1="-909.9995" y1="1216" x2="-908.9995" y2="1216" gradientTransform="matrix(13.3053 0 0 -13.3053 12458.2178 16550.7266)">
			<stop  offset="0" style="stop-color:#D4D9FF"/>
			<stop  offset="1" style="stop-color:#E2E6FF"/>
		</linearGradient>
		<rect x="350.364" y="318.824" clip-path="url(#SVGID_36_)" fill="url(#SVGID_37_)" width="13.307" height="105.241"/>
	</g>
	<g clip-path="url(#SVGID_2_)">
		<defs>
			<rect id="SVGID_38_" x="-910" y="-344" width="2340" height="1559.999"/>
		</defs>
		<clipPath id="SVGID_39_">
			<use xlink:href="#SVGID_38_"  overflow="visible"/>
		</clipPath>
		<rect x="350.364" y="414.315" clip-path="url(#SVGID_39_)" fill="#C7CFFF" width="13.307" height="9.75"/>
	</g>
	<g clip-path="url(#SVGID_2_)">
		<defs>
			<rect id="SVGID_40_" x="313.626" y="374.389" width="24.217" height="61.574"/>
		</defs>
		<clipPath id="SVGID_41_">
			<use xlink:href="#SVGID_40_"  overflow="visible"/>
		</clipPath>
		
			<linearGradient id="SVGID_42_" gradientUnits="userSpaceOnUse" x1="-910" y1="1216" x2="-909" y2="1216" gradientTransform="matrix(24.218 0 0 -24.218 22351.9883 29854.2363)">
			<stop  offset="0" style="stop-color:#D4D9FF"/>
			<stop  offset="1" style="stop-color:#E2E6FF"/>
		</linearGradient>
		<rect x="313.626" y="374.389" clip-path="url(#SVGID_41_)" fill="url(#SVGID_42_)" width="24.217" height="61.574"/>
	</g>
	<g clip-path="url(#SVGID_2_)">
		<defs>
			<rect id="SVGID_43_" x="-910" y="-344" width="2340" height="1559.999"/>
		</defs>
		<clipPath id="SVGID_44_">
			<use xlink:href="#SVGID_43_"  overflow="visible"/>
		</clipPath>
		<rect x="298.796" y="421.684" clip-path="url(#SVGID_44_)" fill="#E2E6FF" width="96.521" height="468.952"/>
		<rect x="313.626" y="414.999" clip-path="url(#SVGID_44_)" fill="#C7CFFF" width="24.219" height="6.685"/>
		<rect x="322.974" y="709.239" clip-path="url(#SVGID_44_)" fill="#C7CFFF" width="9.852" height="15.193"/>
		<rect x="322.974" y="683.61" clip-path="url(#SVGID_44_)" fill="#C7CFFF" width="9.852" height="15.193"/>
		<rect x="322.974" y="606.722" clip-path="url(#SVGID_44_)" fill="#C7CFFF" width="9.852" height="15.195"/>
		<rect x="322.974" y="581.093" clip-path="url(#SVGID_44_)" fill="#C7CFFF" width="9.852" height="15.194"/>
		<rect x="322.974" y="529.835" clip-path="url(#SVGID_44_)" fill="#C7CFFF" width="9.852" height="15.194"/>
		<rect x="322.974" y="452.948" clip-path="url(#SVGID_44_)" fill="#C7CFFF" width="9.852" height="15.194"/>
		<rect x="342.13" y="657.98" clip-path="url(#SVGID_44_)" fill="#C7CFFF" width="9.852" height="15.194"/>
		<rect x="342.13" y="581.093" clip-path="url(#SVGID_44_)" fill="#C7CFFF" width="9.852" height="15.194"/>
		<rect x="342.13" y="555.464" clip-path="url(#SVGID_44_)" fill="#C7CFFF" width="9.852" height="15.194"/>
		<rect x="342.13" y="504.206" clip-path="url(#SVGID_44_)" fill="#C7CFFF" width="9.852" height="15.194"/>
		<rect x="342.13" y="478.577" clip-path="url(#SVGID_44_)" fill="#C7CFFF" width="9.852" height="15.194"/>
		<rect x="361.288" y="709.239" clip-path="url(#SVGID_44_)" fill="#C7CFFF" width="9.85" height="15.193"/>
		<rect x="361.288" y="657.98" clip-path="url(#SVGID_44_)" fill="#C7CFFF" width="9.85" height="15.194"/>
		<rect x="361.288" y="606.722" clip-path="url(#SVGID_44_)" fill="#C7CFFF" width="9.85" height="15.195"/>
		<rect x="361.288" y="555.464" clip-path="url(#SVGID_44_)" fill="#C7CFFF" width="9.85" height="15.194"/>
		<rect x="361.288" y="478.577" clip-path="url(#SVGID_44_)" fill="#C7CFFF" width="9.85" height="15.194"/>
		<path clip-path="url(#SVGID_44_)" fill="#FFDBE3" d="M996.926,358.85v17.625c0,7.285,5.904,13.19,13.189,13.19
			s13.189-5.905,13.189-13.19V358.85H996.926z"/>
		<path clip-path="url(#SVGID_44_)" fill="#8F98F8" d="M970.545,341.225c0-7.285,5.906-13.19,13.189-13.19
			c7.285,0,13.191,5.905,13.191,13.19v35.251c0,7.285,5.904,13.19,13.189,13.19h-13.189h-6.596h-6.596h-13.078v-11.503
			c-0.07-0.552-0.111-1.115-0.111-1.687V341.225z"/>
		<path clip-path="url(#SVGID_44_)" fill="#4654C9" d="M1067.043,802.575H432.735V406.797c0-15.576,12.627-28.202,28.203-28.202
			h577.901c15.576,0,28.203,12.626,28.203,28.202V802.575z"/>
		<rect x="467.319" y="413.179" clip-path="url(#SVGID_44_)" fill="#FFB8C8" width="565.14" height="354.812"/>
		<path clip-path="url(#SVGID_44_)" fill="#8F98F8" d="M1120.396,802.575H379.382c-4.275,0-7.74,3.467-7.74,7.74v13.732
			c0,11.91,9.654,21.564,21.564,21.564h713.366c11.91,0,21.564-9.654,21.564-21.564v-13.732
			C1128.137,806.042,1124.67,802.575,1120.396,802.575"/>
		<path clip-path="url(#SVGID_44_)" fill="#7580F8" d="M917.164,802.575h-334.55v10.736c0,5.955,4.828,10.783,10.781,10.783h312.985
			c5.955,0,10.783-4.828,10.783-10.783V802.575z"/>
	</g>
	<g clip-path="url(#SVGID_2_)">
		<defs>
			<polygon id="SVGID_45_" points="842.533,594.088 747.492,552.938 628.316,665.498 530.259,637.112 468.407,693.884 
				468.407,767.993 1032.326,767.993 1032.326,413.945 			"/>
		</defs>
		<clipPath id="SVGID_46_">
			<use xlink:href="#SVGID_45_"  overflow="visible"/>
		</clipPath>
		
			<linearGradient id="SVGID_47_" gradientUnits="userSpaceOnUse" x1="-910.0005" y1="1216" x2="-909.0005" y2="1216" gradientTransform="matrix(563.919 0 0 -563.919 513634.7813 686316.5)">
			<stop  offset="0" style="stop-color:#D4D9FF"/>
			<stop  offset="1" style="stop-color:#E2E6FF"/>
		</linearGradient>
		<rect x="468.407" y="413.945" clip-path="url(#SVGID_46_)" fill="url(#SVGID_47_)" width="563.919" height="354.048"/>
	</g>
	<g clip-path="url(#SVGID_2_)">
		<defs>
			<rect id="SVGID_48_" x="-910" y="-344" width="2340" height="1559.999"/>
		</defs>
		<clipPath id="SVGID_49_">
			<use xlink:href="#SVGID_48_"  overflow="visible"/>
		</clipPath>
		<path clip-path="url(#SVGID_49_)" fill="#8F98F8" d="M1136.779,400.881c-6.555,0-11.869-5.314-11.869-11.869v-62.34h-62.34
			c-6.555,0-11.869-5.314-11.869-11.87c0-6.555,5.314-11.869,11.869-11.869h74.209c6.557,0,11.871,5.314,11.871,11.869v74.21
			C1148.65,395.567,1143.336,400.881,1136.779,400.881"/>
		<path clip-path="url(#SVGID_49_)" fill="#8F98F8" d="M1145.389,306.631c-4.512-4.754-12.023-4.95-16.775-0.438L840.051,580.081
			l-87.842-38.034c-4.355-1.886-9.414-0.995-12.865,2.263L625.1,652.213l-91.54-26.5c-3.98-1.152-8.273-0.145-11.324,2.656
			l-53.828,49.407v32.216l64.961-59.626l91.647,26.532c4.039,1.171,8.393,0.114,11.449-2.772l113.49-107.19l87.863,38.042
			c4.363,1.889,9.436,0.991,12.885-2.283l294.25-279.286C1149.705,318.896,1149.902,311.385,1145.389,306.631"/>
		<path clip-path="url(#SVGID_49_)" fill="#5A66D4" d="M907.428,872.952c0,0,5.982,13.264,5.982,20.25
			c0,6.988,0.396,8.568-7.5,11.725c-7.895,3.158-49.426,13.828-49.426,13.828l24.162-25.553l6.918-13.539L907.428,872.952z"/>
		<path clip-path="url(#SVGID_49_)" fill="#FFADC8" d="M875.328,904.864c0,0,35.227-8.865,37.262-17.301
			c-1.637-6.793-5.162-14.611-5.162-14.611l-19.863,6.711l-6.918,13.539l-7.762,8.209L875.328,904.864z"/>
		<path clip-path="url(#SVGID_49_)" fill="#2C3955" d="M949.264,750.964c0,0-83.318,2.628-91.455,17.457
			c-8.135,14.828,23.867,116.258,23.867,116.258s16.271,2.508,30.916-9.051l-13.018-77.881l58.797-8.531L949.264,750.964z"/>
		<path clip-path="url(#SVGID_49_)" fill="#5A66D4" d="M860.535,894.462c0,0,1.135,13.797-26.074,21.355
			c-27.207,7.557-23.807,12.848-22.674,17.383c1.135,4.533,40.813,0.756,57.063,0s19.65-0.842,18.516-11.57
			c-1.133-10.727-2.641-18.021-2.266-27.168H860.535z"/>
		<path clip-path="url(#SVGID_49_)" fill="#FFADC8" d="M860.535,894.462c0,0,1.135,13.797-26.074,21.354
			c-4.732,1.316-8.521,2.561-11.576,3.746c2.365,1.525,9.344,4.596,26.408,3.598c19.248-1.127,33.641-6.381,37.334-7.848
			c-0.941-7.533-1.824-13.615-1.527-20.85H860.535z"/>
		<path clip-path="url(#SVGID_49_)" fill="#FF5E85" d="M986.471,577.382c-22.119-1.115-31.336,13.64-32.523,26.093
			c-1.186,12.453-1.363,23.721-4.684,28.465c-3.322,4.744,2.016,13.14,7.057,19.469c5.041,6.327-7.57,21.182-4.447,27.677
			c3.121,6.496,15.479,13.64,15.479,13.64s71.992-9.191,70.807-23.128c-1.188-13.936-4.152-22.238-14.826-32.913
			c-10.674-10.674-1.744-15.715-2.502-23.424c-0.76-7.71-9.654-8.599-12.621-18.681
			C1005.244,584.498,998.238,577.975,986.471,577.382"/>
		<path clip-path="url(#SVGID_49_)" fill="#37486B" d="M1015.969,765.712c0,0-1.441,40.336-40.211,37.6
			c-28.662-2.023-78.029-0.123-78.029-0.123l-10.514,99.871c0,0-23.891,6.691-33.449-5.256c0,0,6.213-95.748,7.646-106.65
			s3.822-22.371,19.592-26.193c15.77-3.823,65.943-10.513,73.111-11.946s15.723-9.554,15.723-9.554L1015.969,765.712z"/>
		<path clip-path="url(#SVGID_49_)" fill="#4491FF" d="M993.684,639.676c14.91-1.676,34.354,10.727,38.711,24.47
			s-5.363,36.538-10.393,55.645c-5.027,19.106-6.033,45.922-6.033,45.922s-48.939,12.066-66.705-14.748
			c0,0,10.057-22.459,8.045-37.878c-2.012-15.42-5.363-23.129,0-34.191c5.363-11.062,11.061-30.168,18.102-32.515
			C982.449,644.033,993.684,639.676,993.684,639.676"/>
		<path clip-path="url(#SVGID_49_)" fill="#FFADC8" d="M968.705,592.412c-9.238,4.311-12.066,13.072-7.375,27.486
			c4.693,14.414,11.732,27.487,24.471,19.106c12.738-8.38,14.078-22.458,13.744-29.498
			C999.209,602.468,988.818,583.026,968.705,592.412"/>
		<path clip-path="url(#SVGID_49_)" fill="#FFADC8" d="M982.113,634.313l5.363,17.096c0,0,17.432-1.443,17.766-9.772
			c0.336-8.329-5.9-25.867-5.9-25.867L982.113,634.313z"/>
		<path clip-path="url(#SVGID_49_)" fill="#FFADC8" d="M1014.293,671.185c2.346,12.403,17.766,55.979,17.766,58.997
			c0,0-29.527,10.695-45.588,11.732v13.072c0,0,25.811-0.335,42.572-3.017c16.76-2.681,26.145-7.039,26.145-9.386
			s-5.027-41.23-10.727-61.678c-5.697-20.448-12.736-31.845-23.631-29.498C1009.936,653.754,1014.293,671.185,1014.293,671.185"/>
		<path clip-path="url(#SVGID_49_)" fill="#FFADC8" d="M986.471,741.913c0,0-17.623-1.005-22.723-2.682
			c-5.1-1.676-18.939,1.341-21.572,6.37c-2.633,5.027,10.102,10.688,14.615,9.385c4.514-1.303,4.514-3.786,9.027-3.561
			s4.746,10.958,20.652,3.561V741.913z"/>
		<path clip-path="url(#SVGID_49_)" fill="#FF5E85" d="M961.658,592.8c0,0-0.891,6.523,8.301,10.082
			c9.193,3.558,17.494,4.744,18.682,15.418c1.186,10.675,5.291,10.111,10.947,16.724c5.654,6.612,16.035,12.157,16.035,6.612
			s-14.529-45.277-14.529-45.277s-10.971-12.453-20.459-11.86S961.658,592.8,961.658,592.8"/>
		<path clip-path="url(#SVGID_49_)" fill="#5A66D4" d="M956.477,763.367h-68.596c-3.193,0-5.783-2.59-5.783-5.784
			c0-3.193,2.59-5.783,5.783-5.783h68.596c3.195,0,5.783,2.59,5.783,5.783C962.26,760.777,959.672,763.367,956.477,763.367"/>
		<path clip-path="url(#SVGID_49_)" fill="#5A66D4" d="M898.484,685.803l33.826,77.564h-49.768l-32.316-74.104
			c-1.246-2.859,0.848-6.059,3.967-6.059h40.324C896.24,683.204,897.799,684.225,898.484,685.803"/>
		<path clip-path="url(#SVGID_49_)" fill="#FFF0F3" d="M854.938,328.035h115.607h13.189c-7.283,0-13.189,5.905-13.189,13.19v164.043
			H841.748V341.225C841.748,333.94,847.654,328.035,854.938,328.035"/>
		<path clip-path="url(#SVGID_49_)" fill="#FFB8C8" d="M875.338,445.941h62.59c2.6,0,4.707,2.106,4.707,4.706
			s-2.107,4.707-4.707,4.707h-62.59c-2.6,0-4.707-2.107-4.707-4.707S872.738,445.941,875.338,445.941"/>
		<path clip-path="url(#SVGID_49_)" fill="#FFB8C8" d="M875.338,467.151h62.59c2.6,0,4.707,2.107,4.707,4.707
			c0,2.599-2.107,4.706-4.707,4.706h-62.59c-2.6,0-4.707-2.107-4.707-4.706C870.631,469.259,872.738,467.151,875.338,467.151"/>
		<path clip-path="url(#SVGID_49_)" fill="#FFB8C8" d="M870.631,394.853c0,19.883,16.119,36.002,36.002,36.002
			s36.002-16.119,36.002-36.002c0-19.884-16.119-36.002-36.002-36.002S870.631,374.969,870.631,394.853"/>
		<path clip-path="url(#SVGID_49_)" fill="#5A66D4" d="M523.521,869.778H364.599c-15.789,0-28.588-12.799-28.588-28.586V500.404
			c0-15.787,12.799-28.586,28.588-28.586h158.922c15.789,0,28.588,12.799,28.588,28.586v340.788
			C552.108,856.979,539.31,869.778,523.521,869.778"/>
	</g>
	<g clip-path="url(#SVGID_2_)">
		<defs>
			<path id="SVGID_50_" d="M352.022,513.683c-2.121,0-3.84,1.721-3.84,3.843v318.812c0,2.121,1.719,3.842,3.84,3.842h184.074
				c2.121,0,3.84-1.721,3.84-3.842V517.525c0-2.122-1.719-3.843-3.84-3.843H352.022z"/>
		</defs>
		<clipPath id="SVGID_51_">
			<use xlink:href="#SVGID_50_"  overflow="visible"/>
		</clipPath>
		
			<linearGradient id="SVGID_52_" gradientUnits="userSpaceOnUse" x1="-910" y1="1215.999" x2="-909.0005" y2="1215.999" gradientTransform="matrix(191.7556 0 0 -191.7556 174845.75 233851.7188)">
			<stop  offset="0" style="stop-color:#D4D9FF"/>
			<stop  offset="1" style="stop-color:#E2E6FF"/>
		</linearGradient>
		<rect x="348.183" y="513.683" clip-path="url(#SVGID_51_)" fill="url(#SVGID_52_)" width="191.754" height="326.496"/>
	</g>
	<g clip-path="url(#SVGID_2_)">
		<defs>
			<rect id="SVGID_53_" x="-910" y="-344" width="2340" height="1559.999"/>
		</defs>
		<clipPath id="SVGID_54_">
			<use xlink:href="#SVGID_53_"  overflow="visible"/>
		</clipPath>
		<g clip-path="url(#SVGID_54_)">
			<defs>
				<rect id="SVGID_55_" x="402.188" y="491.15" width="83.74" height="9.851"/>
			</defs>
			<clipPath id="SVGID_56_">
				<use xlink:href="#SVGID_55_"  overflow="visible"/>
			</clipPath>
			<path clip-path="url(#SVGID_56_)" fill="#1A003D" d="M481.003,501.001h-73.887c-2.721,0-4.926-2.205-4.926-4.926
				c0-2.72,2.205-4.926,4.926-4.926h73.887c2.721,0,4.926,2.206,4.926,4.926C485.929,498.796,483.724,501.001,481.003,501.001"/>
		</g>
		<g clip-path="url(#SVGID_54_)">
			<defs>
				<rect id="SVGID_57_" x="502.759" y="491.426" width="9.301" height="9.298"/>
			</defs>
			<clipPath id="SVGID_58_">
				<use xlink:href="#SVGID_57_"  overflow="visible"/>
			</clipPath>
			<path clip-path="url(#SVGID_58_)" fill="#1A003D" d="M512.058,496.075c0,2.567-2.08,4.648-4.648,4.648
				c-2.566,0-4.648-2.081-4.648-4.648s2.082-4.647,4.648-4.647C509.978,491.428,512.058,493.508,512.058,496.075"/>
		</g>
		<path clip-path="url(#SVGID_54_)" fill="#FF99BB" d="M605.665,695.189l-8.271,6.711c0,0-5.689,5.728-13.186,5.713
			c-7.498-0.015-11.006-16.544-11.006-16.544s13.85-7.515,23.932-7.773L605.665,695.189z"/>
		<path clip-path="url(#SVGID_54_)" fill="#2C3955" d="M458.667,546.463c0,0-4.486,1.819-2.762,8.354
			c1.727,6.532,5.707,25.894,10.273,26.222c4.568,0.328,9.053-2.777,9.053-2.777l-3.717-34.739L458.667,546.463z"/>
		<path clip-path="url(#SVGID_54_)" fill="#FFADC8" d="M479.028,535.119c20.576-5.878,28.646,9.664,30.371,25.885
			c1.727,16.221-1.414,30.339-8.318,30.339c-6.902,0-17.91-3.764-25.848-13.082C467.296,568.941,454.87,542.022,479.028,535.119"/>
		<polygon clip-path="url(#SVGID_54_)" fill="#FFADC8" points="492.144,581.712 486.276,602.074 463.153,591.893 471.091,563.42 		
			"/>
		<path clip-path="url(#SVGID_54_)" fill="#2C3955" d="M505.528,546.2c0,0,8.641,2.034,5.564-5.214
			c-3.072-7.247-18.258-16.911-33.443-12.77s-21.744,10.263-18.982,18.246C458.667,546.463,493.374,546.928,505.528,546.2"/>
		<path clip-path="url(#SVGID_54_)" fill="#2C3955" d="M493.87,546.609c-5.869,0,0.689,16.811-12.08,19.227
			s-16.902,1.035-16.902,1.035l-1.734-24.504L493.87,546.609z"/>
		<path clip-path="url(#SVGID_54_)" fill="#474BCA" d="M518.784,732.959c0,0,1.283,4.828,0.238,12.874
			c-1.043,8.047-8.285,94.545-8.285,94.545h-54.313c0,0-0.402-32.99-3.219-50.693c-2.816-17.701-2.816-45.059,3.219-58.737
			L518.784,732.959z"/>
		<path clip-path="url(#SVGID_54_)" fill="#4491FF" d="M468.278,592.952c11.078,2.816,21.939,9.122,21.939,9.122
			s15.289,25.075,22.934,48.409c7.645,23.335,5.633,82.476,5.633,82.476s-43.854,12.069-67.188,0c0,0-6.035-55.922-10.863-92.131
			s16.496-46.09,16.496-46.09L468.278,592.952z"/>
		<polygon clip-path="url(#SVGID_54_)" fill="#5A66D4" points="485.407,605.693 493.87,615.684 497.396,614.823 490.22,602.074 		
			"/>
		<path clip-path="url(#SVGID_54_)" fill="#5A66D4" d="M493.87,615.684l14.229,46.697l6.078,57.572l8.314,7.356l1.479-19.696
			c0,0-4.477-41.89-9.914-59.233c-5.438-17.343-16.662-33.557-16.662-33.557L493.87,615.684z"/>
		<path clip-path="url(#SVGID_54_)" fill="#FFADC8" d="M555.085,687.051c0,0,18.105,3.976,22.744,5.079
			c4.637,1.104,14.354,2.208,14.354,5.521s-1.988,12.366-11.041,15.016c-9.055,2.65-22.527-6.403-22.527-6.403l-12.143-2.649
			L555.085,687.051z"/>
		<path clip-path="url(#SVGID_54_)" fill="#FFADC8" d="M555.085,687.051c0,0,7.664-3.931,12.318-3.755
			c4.652,0.177,12.809,4.471,12.809,4.471l-14.104,7.688L555.085,687.051z"/>
		<path clip-path="url(#SVGID_54_)" fill="#6BA8FF" d="M459.644,605.021c16.289-3.547,21.725,26.15,30.576,39.025
			c8.85,12.874,12.873,20.115,22.127,23.334s46.268,17.703,46.268,17.703s-1.609,16.896-6.438,22.529
			c0,0-52.756-13.68-64.801-20.519c-12.043-6.84-41.412-51.31-43.021-58.148C442.745,622.106,447.696,607.622,459.644,605.021"/>
		<path clip-path="url(#SVGID_54_)" fill="#FFADC8" d="M699.986,527.222c-20.574-5.879-28.98,6.831-30.705,23.052
			c-1.727,16.221,4.512,36.527,11.414,36.527s17.912-3.765,25.85-13.083S724.146,534.124,699.986,527.222"/>
		<path clip-path="url(#SVGID_54_)" fill="#5A66D4" d="M687.908,542.067c0,0-8.633,2.235-17.045,0
			c-8.41-2.236-9.84-12.955-9.482-18.313c0.357-5.361,4.645-7.147,9.646-5.361c5.002,1.787,37.51-6.788,44.303,5.003
			c0,0,15.367,1.59,9.65,26.878s-8.469,22.572-11.48,22.072C710.488,571.845,687.908,542.067,687.908,542.067"/>
		<path clip-path="url(#SVGID_54_)" fill="#FF5E85" d="M723.967,589.011c9.738,2.576,17.938,10.938,13.564,43.313
			c-4.375,32.375,2.428,87.498-6.236,89.668s-51.406,5.966-62.305,0s-3.848-69.963-4.391-88.945S684.627,578.6,723.967,589.011"/>
		<polygon clip-path="url(#SVGID_54_)" fill="#4491FF" points="700.795,614.84 700.795,703.802 685.467,725.021 675.953,700.102 
			689.633,613.177 		"/>
		<polygon clip-path="url(#SVGID_54_)" fill="#6BA8FF" points="655.107,716.093 757.82,702.081 772.32,770.483 666.795,787.394 		
			"/>
		<path clip-path="url(#SVGID_54_)" fill="#FF5E85" d="M685.467,594.859c-13.789,5.681-25.291,37.311-38.59,48.094
			s-52.837,38.1-52.837,38.1s3.594,13.66,14.018,20.848c0,0,40.138-25.933,47.806-31.989c7.666-6.058,33.77-44.57,33.77-44.57
			L685.467,594.859z"/>
		<path clip-path="url(#SVGID_54_)" fill="#FFADC8" d="M711.859,745.581c0,0-7.67,3.466-9.633,7.022
			c-1.963,3.558-7.357,13.112-8.34,14.989c-0.98,1.879,5.953,3.051,8.986-1.27c3.033-4.319,5.617-5.588,8.986-8.892
			c3.367-3.304,6.311-11.851,6.311-11.851H711.859z"/>
		<path clip-path="url(#SVGID_54_)" fill="#FFADC8" d="M726.254,748.355c0,0-3.18,23.062-6.367,26.124
			c-3.189,3.064-11.133,9.426-13.906,9.191c-2.773-0.236-8.414-1.18-8.414-5.42c0-4.242,5.641-18.145,5.641-18.145l8.65-14.525
			L726.254,748.355z"/>
		<path clip-path="url(#SVGID_54_)" fill="#FF99BB" d="M594.827,683.473c0,0-20.443-2.409-22.771,0s-13.186,7.063-10.6,8.872
			c2.586,1.812,13.354,2.414,16.373-0.215C577.829,692.13,597.175,698.902,594.827,683.473"/>
		<polygon clip-path="url(#SVGID_54_)" fill="#4491FF" points="690.564,601.948 689.633,613.177 700.795,614.84 705.107,600.15 
			695.5,597.532 		"/>
		<path clip-path="url(#SVGID_54_)" fill="#6BA8FF" d="M461.253,581.063c0,0,9.055,1.831,16.395,7.866
			c7.342,6.035,12.572,13.146,12.572,13.146l-8.43,6.342c0,0-17.723-10.684-24.561-13.678L461.253,581.063z"/>
		<path clip-path="url(#SVGID_54_)" fill="#FFADC8" d="M481.79,565.836c0,0-5.035-8.081-10.354-6.558
			c-5.318,1.524-5.178,22.434,10.354,21.743V565.836z"/>
		<path clip-path="url(#SVGID_54_)" fill="#FF7899" d="M732.756,598.12c13.479-1.706,17.705,31.316,17.852,50.755
			c0.146,19.439-15.125,103.6-15.125,103.6s-9.961,0.987-19.965-3.423c0,0,11.104-57.965,10.289-70.879
			C724.99,665.259,710.365,600.954,732.756,598.12"/>
		<polygon clip-path="url(#SVGID_54_)" fill="#FF7899" points="695.5,597.532 685.467,606.512 690.482,586.801 706.545,573.719 		
			"/>
		<polygon clip-path="url(#SVGID_54_)" fill="#FFADC8" points="689.633,577.17 695.5,597.532 718.625,587.351 710.686,558.878 		"/>
		<polygon clip-path="url(#SVGID_54_)" fill="#FF7899" points="695.5,597.532 715.598,576.496 723.967,589.012 709.734,610.887 		
			"/>
		<path clip-path="url(#SVGID_54_)" fill="#5A66D4" d="M687.908,542.067c5.869,0-0.691,16.812,12.078,19.228
			c12.771,2.415,16.902,1.034,16.902,1.034l1.736-24.504L687.908,542.067z"/>
		<path clip-path="url(#SVGID_54_)" fill="#FFADC8" d="M699.986,561.294c0,0,5.035-8.082,10.354-6.558
			c5.32,1.523,5.178,22.434-10.354,21.743V561.294z"/>
		<path clip-path="url(#SVGID_54_)" fill="#4491FF" d="M301.94,648.837c0,0,8.223,1.233,9.25-4.11s-9.455-12.127-15.209-16.237
			c-5.756-4.111-34.941-8.017-33.914,10.482c0,0-7.605,2.672-8.017,12.332s1.644,24.459,4.522,26.72
			C261.45,680.284,301.94,648.837,301.94,648.837"/>
		<path clip-path="url(#SVGID_54_)" fill="#FFADC8" d="M393.302,897.282c0,0,6.82,14.602,8.33,19.721
			c1.51,5.121,14.137,2.127,14.137,2.127l10.191-9.895l-12.645-23.332L393.302,897.282z"/>
		<path clip-path="url(#SVGID_54_)" fill="#FFADC8" d="M360.593,948.144c0,0,1.08,16.078,0.637,21.398s12.412,7.094,12.412,7.094
			l13.078-5.541l-3.355-26.324L360.593,948.144z"/>
		<path clip-path="url(#SVGID_54_)" fill="#37486B" d="M357.46,966.438c0.674-4.711,8.201,4.213,14.631,4.213
			c6.428,0,15.736-9.088,15.736-9.088s11.971,6.648,19.506,9.088c7.537,2.438,19.285,4.875,19.285,10.639v2.492
			c0,1.807-1.465,3.271-3.271,3.271h-63.824c-1.857,0-3.342-1.543-3.268-3.4C356.442,979.003,356.845,970.745,357.46,966.438"/>
		<path clip-path="url(#SVGID_54_)" fill="#3F42B3" d="M286.364,808.335c0,0,17.324-2.563,39.982-3.885
			c22.662-1.322,43.777-7.154,49.955,1.941c6.182,9.096,41.201,80.682,41.201,80.682l-25.75,14.42l-30.9-50.051l-74.488-30.32
			V808.335z"/>
		<path clip-path="url(#SVGID_54_)" fill="#474BCA" d="M236.47,833.249c0,0,3.799,29.129,39.68,26.596
			c26.529-1.873,72.219-0.115,72.219-0.115l9.73,92.434c0,0,22.113,6.191,30.957-4.865c0,0-5.748-88.617-7.076-98.707
			c-1.326-10.09-3.537-20.705-18.133-24.242c-14.594-3.539-61.031-9.73-67.666-11.057c-6.633-1.326-14.551-8.842-14.551-8.842
			L236.47,833.249z"/>
		<path clip-path="url(#SVGID_54_)" fill="#FFADC8" d="M286.546,638.385c20.938,1.186,21.553,12.162,19.781,22.513
			s-6.199,29.759-13.582,31.311c-7.381,1.553-19.486-8.539-21.26-14.749c-1.77-6.211-3.543-22.254-1.77-28.981
			C271.485,641.749,277.392,637.868,286.546,638.385"/>
		<path clip-path="url(#SVGID_54_)" fill="#FFADC8" d="M282.63,687.378c0,0-6.176,14.693-6.176,20.859l-25.074-13.771
			c0,0,9.248-15.415,11.098-23.843l8.223,3.494L282.63,687.378z"/>
		<path clip-path="url(#SVGID_54_)" fill="#4491FF" d="M301.267,642.373c-6.324-1.971-10.781,2.287-10.781,5.37
			s-1.492,9.521-6.221,10.96s-9.824,2.129-9.824,2.129l-12.373-4.801l5.24-15.574l15.322-5.802l16.434,1.438L301.267,642.373z"/>
		<path clip-path="url(#SVGID_54_)" fill="#FFADC8" d="M274.44,660.832c0,0-3.33-10.967-10.73-4.186
			c-7.398,6.784-2.055,18.089,1.439,19.938s8.223,0.205,8.223,0.205L274.44,660.832z"/>
		<path clip-path="url(#SVGID_54_)" fill="#FF82A0" d="M264.03,687.403c-8.945-0.353-22.928,2.417-34.104,37.231
			c-11.176,34.813-5.697,105.681,2.035,111.993c7.734,6.311,48.168-6.316,56.455-21.438c3.293-6.01-4.891-22.699-1.391-52.187
			C290.526,733.515,284.659,688.218,264.03,687.403"/>
		<path clip-path="url(#SVGID_54_)" fill="#4491FF" d="M368.368,809.228h-60.383c-2.813,0-5.092-2.279-5.092-5.092
			s2.279-5.092,5.092-5.092h60.383c2.813,0,5.092,2.279,5.092,5.092S371.181,809.228,368.368,809.228"/>
		<path clip-path="url(#SVGID_54_)" fill="#4491FF" d="M363.409,803.39l20.652-56.741c0.961-2.643,3.883-4.005,6.525-3.043
			s4.004,3.883,3.043,6.525l-20.654,56.741c-0.961,2.643-3.881,4.004-6.523,3.043C363.81,808.952,362.448,806.032,363.409,803.39"/>
		<path clip-path="url(#SVGID_54_)" fill="#FFADC8" d="M301.669,799.886c0,0,6.643,1.955,14.793,1.955
			c8.152,0,11.412-3.912,16.303-5.541c4.891-1.631,7.121,3.84,12.104,3.84s1.209-4.682-2.869-9.061
			c-4.076-4.379-7.398-9.361-11.775-9.361c-4.379,0-27.48,8.004-27.48,8.004L301.669,799.886z"/>
		<path clip-path="url(#SVGID_54_)" fill="#FF94AE" d="M245.388,714.057c13.598-1.845,20.338,15.08,19.461,29.751
			c-0.877,14.672-3.486,35.537-3.486,35.537s19.563,8.15,43.363,8.803c0,0,7.58,9.781-3.057,22.17c0,0-56.281,2.283-62.15-4.564
			c-5.869-6.846-9.781-12.141-7.824-43.4C233.649,731.093,233.976,715.604,245.388,714.057"/>
		<path clip-path="url(#SVGID_54_)" fill="#37486B" d="M398.708,916.435c0.02-4.752,8.063,3.215,13.963,2.459
			s13.289-10.865,13.289-10.865s11.832,5.189,19.059,6.721c7.227,1.533,18.318,2.57,19.051,8.287l0.258,2.014
			c0.262,2.045-1.184,3.914-3.229,4.178l-57.16,7.32c-2.1,0.27-4.002-1.248-4.191-3.357
			C399.327,928.487,398.69,920.64,398.708,916.435"/>
		<path clip-path="url(#SVGID_54_)" fill="#8F98F8" d="M211.991,879.392h119.803c5.51,0,9.977-4.469,9.977-9.979
			s-4.467-9.977-9.977-9.977H211.991c-5.51,0-9.978,4.467-9.978,9.977S206.481,879.392,211.991,879.392"/>
		<path clip-path="url(#SVGID_54_)" fill="#A1A9F8" d="M213.147,879.392h117.49v103.014c0,2.688-2.18,4.869-4.869,4.869H218.018
			c-2.69,0-4.87-2.182-4.87-4.869V879.392z"/>
		<path clip-path="url(#SVGID_54_)" fill="#FF5E85" d="M853.328,143.529c0,0-30.404-6.138-67.77,21.55
			c-37.367,27.687-40.453,41.535-19.377,37.493c21.074-4.042,45.475-1.624,53.998,4.611L853.328,143.529z"/>
		<path clip-path="url(#SVGID_54_)" fill="#FF5E85" d="M907.551,183.197c0,0,15.055,27.118-0.021,71.114
			c-15.074,43.996-27.338,51.128-29.865,29.819c-2.529-21.309-12.221-43.834-20.744-50.069L907.551,183.197z"/>
		<path clip-path="url(#SVGID_54_)" fill="#FF5E85" d="M822.258,262.857c0,0,1.387,14.345-10.516,30.612
			c-11.9,16.268-25.879,18.623-27.102,17.728s-1.26-3.925-1.26-3.925s-11.346,9.349-14.404,7.112
			c-3.057-2.236,4.182-20.601,3.861-21.961c-0.318-1.36-2.207,0.451-4.709-1.005c-2.504-1.456,1.592-12.917,9.557-23.803
			l0.057-0.076c11.855-16.016,25.488-18.603,25.488-18.603L822.258,262.857z"/>
		<path clip-path="url(#SVGID_54_)" fill="#FFB8C8" d="M816.699,260.696c0,0-2.891,14.247-11.121,25.497
			c-8.23,11.249-12.832,12.038-14.016,11.171c-1.186-0.866-0.311-4.901-0.311-4.901s-5.414,4.739-7.613,3.13
			s1.098-9.844,1.975-11.93c0,0-1.729,0.943-3.166-0.109c-1.438-1.052,1.9-9.344,7.141-16.505
			c5.238-7.162,18.547-14.525,18.547-14.525L816.699,260.696z"/>
		<path clip-path="url(#SVGID_54_)" fill="#FF5E85" d="M820.244,245.644l16.137,11.804c0,0-5.027,5.99-8.791,7.319
			c-3.766,1.328-12.086-3.04-16.662-6.388c-4.574-3.348-11.258-9.955-11.131-13.944c0.125-3.991,4.313-10.595,4.313-10.595
			L820.244,245.644z"/>
		<path clip-path="url(#SVGID_54_)" fill="#8FBEFF" d="M876.156,104.455c29.121-26.487,67.773-40.898,73.979-36.359
			s3.998,45.612-12.43,81.386c-16.428,35.774-51.063,81.643-74.527,97.203c-20.148,13.36-26.539,14.43-33.48,9.353
			c-6.939-5.078-11.109-8.128-11.109-8.128s-4.346-3.18-11.285-8.257c-6.941-5.077-7.857-11.493-1.225-34.74
			C813.805,177.839,847.035,130.941,876.156,104.455"/>
		<path clip-path="url(#SVGID_54_)" fill="#FF5E85" d="M926.34,100.437c-10.484-7.671-15.93-14.194-18.727-18.595
			c20.254-11.498,38.434-16.737,42.521-13.746c4.088,2.99,4.523,21.835-0.352,44.573
			C944.746,111.344,936.863,108.135,926.34,100.437"/>
		<path clip-path="url(#SVGID_54_)" fill="#5A66D4" d="M884.076,115.478c-8.262,11.294-5.805,27.147,5.49,35.41
			c11.293,8.262,27.146,5.805,35.41-5.489c8.262-11.294,5.805-27.148-5.49-35.41C908.193,101.727,892.34,104.184,884.076,115.478"/>
	</g>
	<g clip-path="url(#SVGID_2_)">
		<defs>
			<path id="SVGID_59_" d="M890.473,120.156c-5.68,7.763-3.99,18.658,3.771,24.337c7.762,5.678,18.658,3.989,24.336-3.772
				c5.678-7.762,3.99-18.658-3.773-24.336c-3.098-2.268-6.699-3.361-10.266-3.361C899.174,113.023,893.883,115.495,890.473,120.156"
				/>
		</defs>
		<clipPath id="SVGID_60_">
			<use xlink:href="#SVGID_59_"  overflow="visible"/>
		</clipPath>
		
			<linearGradient id="SVGID_61_" gradientUnits="userSpaceOnUse" x1="-910" y1="1215.9668" x2="-909" y2="1215.9668" gradientTransform="matrix(34.83 0 0 -34.83 32582.4375 42483.7539)">
			<stop  offset="0" style="stop-color:#D4D9FF"/>
			<stop  offset="1" style="stop-color:#E2E6FF"/>
		</linearGradient>
		<rect x="884.793" y="113.023" clip-path="url(#SVGID_60_)" fill="url(#SVGID_61_)" width="39.465" height="37.148"/>
	</g>
	<g clip-path="url(#SVGID_2_)">
		<defs>
			<rect id="SVGID_62_" x="-910" y="-344" width="2340" height="1559.999"/>
		</defs>
		<clipPath id="SVGID_63_">
			<use xlink:href="#SVGID_62_"  overflow="visible"/>
		</clipPath>
		<path clip-path="url(#SVGID_63_)" fill="#FFA3BE" d="M1029.393,147.711c0.078,4.729-3.691,8.626-8.42,8.705
			c-4.73,0.078-8.627-3.691-8.705-8.42c-0.08-4.729,3.691-8.627,8.42-8.705C1025.416,139.212,1029.314,142.982,1029.393,147.711"/>
		<path clip-path="url(#SVGID_63_)" fill="#E2E6FF" d="M441.298,314.588c0.078,4.729-3.691,8.626-8.42,8.705
			c-4.729,0.078-8.627-3.691-8.705-8.42s3.689-8.627,8.42-8.705C437.321,306.089,441.22,309.859,441.298,314.588"/>
		<path clip-path="url(#SVGID_63_)" fill="#E2E6FF" d="M1005.387,279.501l-4.365,0.073l-0.072-4.365
			c-0.029-1.815-1.525-3.262-3.342-3.231c-1.814,0.03-3.262,1.525-3.23,3.34l0.07,4.365l-4.363,0.072
			c-1.814,0.031-3.262,1.526-3.23,3.341c0.029,1.815,1.525,3.262,3.34,3.232l4.365-0.073l0.072,4.365
			c0.031,1.815,1.527,3.262,3.342,3.232c1.814-0.031,3.262-1.526,3.23-3.341l-0.072-4.365l4.365-0.072
			c1.814-0.031,3.262-1.526,3.23-3.341C1008.697,280.918,1007.201,279.471,1005.387,279.501"/>
		<path clip-path="url(#SVGID_63_)" fill="#FFA3BE" d="M638.496,139.536l-4.365,0.073l-0.072-4.365
			c-0.031-1.815-1.525-3.262-3.342-3.231c-1.814,0.029-3.262,1.525-3.23,3.34l0.07,4.365l-4.363,0.072
			c-1.814,0.031-3.261,1.526-3.231,3.341c0.031,1.815,1.526,3.262,3.341,3.232l4.365-0.073l0.072,4.365
			c0.029,1.815,1.527,3.261,3.34,3.232c1.816-0.031,3.264-1.526,3.232-3.341l-0.072-4.365l4.365-0.073
			c1.814-0.03,3.262-1.526,3.23-3.341C641.807,140.953,640.311,139.506,638.496,139.536"/>
		<path clip-path="url(#SVGID_63_)" fill="#FF94AE" d="M1005.84,895.366v23.287c0,2.455,1.779,5.02,4.234,5.02h10.813
			c1.99,8.338,5.59,17.184,10.652,24.865l-7.477,7.188c-1.736,1.736-1.734,4.551,0,6.287l16.467,16.465
			c1.736,1.736,4.553,1.736,6.287,0l7.648-7.645c7.75,4.936,16.426,8.4,25.32,10.254v10.572c0,2.455,1.984,4.846,4.439,4.846h23.285
			c2.455,0,4.521-2.391,4.521-4.846v-10.814c8.896-1.99,17.434-5.598,25.115-10.658l7.438,7.467
			c1.736,1.736,4.551,1.721,6.285-0.016l16.467-16.498c1.736-1.736,1.736-4.613,0-6.35l-7.646-7.771
			c4.938-7.752,8.4-16.674,10.256-25.57h10.57c2.455,0,4.348-1.484,4.348-3.939v-23.287c0-2.455-1.893-3.908-4.348-3.908h-10.813
			c-1.99-10.008-5.588-17.738-10.648-25.422l7.477-7.742c1.736-1.736,1.738-4.551,0.004-6.287l-16.461-16.467
			c-1.736-1.736-4.537-1.736-6.271,0l-7.619,7.646c-7.752-4.936-16.369-8.4-25.264-10.254v-10.572c0-2.455-2.098-4.846-4.553-4.846
			h-23.287c-2.455,0-4.406,2.391-4.406,4.846v10.813c-8.896,1.99-17.49,5.59-25.172,10.65l-7.496-7.475
			c-1.734-1.736-4.549-1.738-6.285-0.002l-16.467,16.463c-1.736,1.736-1.736,4.543,0,6.279l7.646,7.633
			c-4.938,7.752-8.4,15.842-10.254,25.293h-10.572C1007.619,890.87,1005.84,892.911,1005.84,895.366 M1056.861,906.437
			c0-21.258,17.232-38.49,38.492-38.49c21.258,0,38.49,17.232,38.49,38.49s-17.232,38.492-38.49,38.492
			C1074.094,944.929,1056.861,927.694,1056.861,906.437"/>
		<path clip-path="url(#SVGID_63_)" fill="#8F98F8" d="M1106.684,757.606v16.619c0,1.752,1.268,3.582,3.02,3.582h7.717
			c1.422,5.951,3.99,12.264,7.602,17.746l-5.334,5.129c-1.24,1.24-1.238,3.248,0,4.486l11.752,11.752c1.238,1.24,3.248,1.24,4.486,0
			l5.459-5.457c5.531,3.523,11.723,5.996,18.07,7.318v7.545c0,1.752,1.416,3.459,3.168,3.459h16.619
			c1.752,0,3.227-1.707,3.227-3.459v-7.717c6.348-1.42,12.441-3.994,17.924-7.607l5.309,5.33c1.238,1.238,3.246,1.227,4.486-0.012
			l11.75-11.773c1.24-1.24,1.24-3.293,0-4.531l-5.455-5.547c3.521-5.533,5.994-11.9,7.318-18.25h7.545
			c1.752,0,3.102-1.059,3.102-2.811V756.79c0-1.752-1.35-2.789-3.102-2.789h-7.719c-1.42-7.143-3.988-12.66-7.6-18.144l5.336-5.526
			c1.238-1.238,1.242-3.247,0.004-4.486l-11.748-11.752c-1.238-1.238-3.238-1.238-4.477,0l-5.438,5.457
			c-5.531-3.522-11.682-5.995-18.029-7.318v-7.545c0-1.752-1.498-3.458-3.25-3.458h-16.619c-1.752,0-3.145,1.706-3.145,3.458v7.718
			c-6.35,1.42-12.482,3.989-17.965,7.601l-5.35-5.336c-1.238-1.238-3.248-1.239-4.486-0.001l-11.752,11.749
			c-1.238,1.239-1.238,3.243,0,4.482l5.457,5.447c-3.523,5.532-5.996,11.306-7.318,18.051h-7.545
			C1107.951,754.397,1106.684,755.854,1106.684,757.606 M1143.096,765.507c0-15.171,12.299-27.47,27.469-27.47
			c15.172,0,27.471,12.299,27.471,27.47c0,15.172-12.299,27.471-27.471,27.471C1155.395,792.978,1143.096,780.679,1143.096,765.507"
			/>
	</g>
</g>
</svg>
