<svg xmlns="http://www.w3.org/2000/svg" xmlns:xlink="http://www.w3.org/1999/xlink" width="500" zoomAndPan="magnify" viewBox="0 0 375 374.999991" height="500" preserveAspectRatio="xMidYMid meet" version="1.0"><defs><g/><clipPath id="id1"><path d="M 199 91 L 257 91 L 257 218 L 199 218 Z M 199 91 " clip-rule="nonzero"/></clipPath><clipPath id="id2"><path d="M 171.097656 42.929688 L 293.921875 160.824219 L 194.722656 264.171875 L 71.898438 146.277344 Z M 171.097656 42.929688 " clip-rule="nonzero"/></clipPath><clipPath id="id3"><path d="M 171.097656 42.929688 L 293.921875 160.824219 L 194.722656 264.171875 L 71.898438 146.277344 Z M 171.097656 42.929688 " clip-rule="nonzero"/></clipPath><clipPath id="id4"><path d="M 256.84375 125.351562 L 239.703125 217.308594 L 236.472656 217.234375 L 199.140625 184.042969 L 216.820312 93.835938 L 218.316406 91.390625 Z M 256.84375 125.351562 " clip-rule="nonzero"/></clipPath><linearGradient x1="272.850522" gradientTransform="matrix(0.245648, 0.235791, -0.236196, 0.246071, 171.04063, 42.989469)" y1="-110.120112" x2="425.733033" gradientUnits="userSpaceOnUse" y2="348.519995" id="id5"><stop stop-opacity="1" stop-color="rgb(61.599731%, 42.399597%, 100%)" offset="0"/><stop stop-opacity="1" stop-color="rgb(61.599731%, 42.399597%, 100%)" offset="0.247482"/><stop stop-opacity="1" stop-color="rgb(61.599731%, 42.399597%, 100%)" offset="0.25"/><stop stop-opacity="1" stop-color="rgb(61.599731%, 42.399597%, 100%)" offset="0.3125"/><stop stop-opacity="1" stop-color="rgb(61.964417%, 42.263794%, 99.502563%)" offset="0.316406"/><stop stop-opacity="1" stop-color="rgb(62.329102%, 42.129517%, 99.006653%)" offset="0.320312"/><stop stop-opacity="1" stop-color="rgb(62.69989%, 41.992188%, 98.501587%)" offset="0.324219"/><stop stop-opacity="1" stop-color="rgb(63.072205%, 41.854858%, 97.996521%)" offset="0.328125"/><stop stop-opacity="1" stop-color="rgb(63.442993%, 41.717529%, 97.491455%)" offset="0.332031"/><stop stop-opacity="1" stop-color="rgb(63.815308%, 41.5802%, 96.987915%)" offset="0.335937"/><stop stop-opacity="1" stop-color="rgb(64.186096%, 41.442871%, 96.482849%)" offset="0.339844"/><stop stop-opacity="1" stop-color="rgb(64.556885%, 41.305542%, 95.977783%)" offset="0.34375"/><stop stop-opacity="1" stop-color="rgb(64.927673%, 41.168213%, 95.472717%)" offset="0.347656"/><stop stop-opacity="1" stop-color="rgb(65.299988%, 41.030884%, 94.969177%)" offset="0.351562"/><stop stop-opacity="1" stop-color="rgb(65.670776%, 40.893555%, 94.464111%)" offset="0.355469"/><stop stop-opacity="1" stop-color="rgb(66.041565%, 40.756226%, 93.959045%)" offset="0.359375"/><stop stop-opacity="1" stop-color="rgb(66.412354%, 40.618896%, 93.453979%)" offset="0.363281"/><stop stop-opacity="1" stop-color="rgb(66.784668%, 40.481567%, 92.950439%)" offset="0.367188"/><stop stop-opacity="1" stop-color="rgb(67.155457%, 40.344238%, 92.445374%)" offset="0.371094"/><stop stop-opacity="1" stop-color="rgb(67.527771%, 40.206909%, 91.940308%)" offset="0.375"/><stop stop-opacity="1" stop-color="rgb(67.89856%, 40.06958%, 91.435242%)" offset="0.378906"/><stop stop-opacity="1" stop-color="rgb(68.269348%, 39.932251%, 90.931702%)" offset="0.382812"/><stop stop-opacity="1" stop-color="rgb(68.640137%, 39.794922%, 90.426636%)" offset="0.386719"/><stop stop-opacity="1" stop-color="rgb(69.012451%, 39.657593%, 89.92157%)" offset="0.390625"/><stop stop-opacity="1" stop-color="rgb(69.38324%, 39.520264%, 89.416504%)" offset="0.394531"/><stop stop-opacity="1" stop-color="rgb(69.755554%, 39.382935%, 88.912964%)" offset="0.398437"/><stop stop-opacity="1" stop-color="rgb(70.126343%, 39.245605%, 88.407898%)" offset="0.402344"/><stop stop-opacity="1" stop-color="rgb(70.497131%, 39.108276%, 87.902832%)" offset="0.40625"/><stop stop-opacity="1" stop-color="rgb(70.86792%, 38.970947%, 87.397766%)" offset="0.410156"/><stop stop-opacity="1" stop-color="rgb(71.240234%, 38.833618%, 86.894226%)" offset="0.414062"/><stop stop-opacity="1" stop-color="rgb(71.611023%, 38.696289%, 86.38916%)" offset="0.417969"/><stop stop-opacity="1" stop-color="rgb(71.981812%, 38.55896%, 85.884094%)" offset="0.421875"/><stop stop-opacity="1" stop-color="rgb(72.3526%, 38.421631%, 85.379028%)" offset="0.425781"/><stop stop-opacity="1" stop-color="rgb(72.724915%, 38.284302%, 84.875488%)" offset="0.429687"/><stop stop-opacity="1" stop-color="rgb(73.095703%, 38.146973%, 84.370422%)" offset="0.433594"/><stop stop-opacity="1" stop-color="rgb(73.468018%, 38.011169%, 83.865356%)" offset="0.4375"/><stop stop-opacity="1" stop-color="rgb(73.838806%, 37.87384%, 83.360291%)" offset="0.441406"/><stop stop-opacity="1" stop-color="rgb(74.209595%, 37.736511%, 82.85675%)" offset="0.445312"/><stop stop-opacity="1" stop-color="rgb(74.580383%, 37.599182%, 82.351685%)" offset="0.449219"/><stop stop-opacity="1" stop-color="rgb(74.952698%, 37.461853%, 81.846619%)" offset="0.453125"/><stop stop-opacity="1" stop-color="rgb(75.323486%, 37.324524%, 81.341553%)" offset="0.457031"/><stop stop-opacity="1" stop-color="rgb(75.695801%, 37.187195%, 80.838013%)" offset="0.460938"/><stop stop-opacity="1" stop-color="rgb(76.066589%, 37.049866%, 80.332947%)" offset="0.464844"/><stop stop-opacity="1" stop-color="rgb(76.437378%, 36.912537%, 79.827881%)" offset="0.46875"/><stop stop-opacity="1" stop-color="rgb(76.808167%, 36.775208%, 79.322815%)" offset="0.472656"/><stop stop-opacity="1" stop-color="rgb(77.180481%, 36.637878%, 78.819275%)" offset="0.476562"/><stop stop-opacity="1" stop-color="rgb(77.55127%, 36.500549%, 78.314209%)" offset="0.480469"/><stop stop-opacity="1" stop-color="rgb(77.922058%, 36.36322%, 77.809143%)" offset="0.484375"/><stop stop-opacity="1" stop-color="rgb(78.292847%, 36.225891%, 77.304077%)" offset="0.488281"/><stop stop-opacity="1" stop-color="rgb(78.665161%, 36.088562%, 76.800537%)" offset="0.492188"/><stop stop-opacity="1" stop-color="rgb(79.03595%, 35.951233%, 76.295471%)" offset="0.496094"/><stop stop-opacity="1" stop-color="rgb(79.408264%, 35.813904%, 75.790405%)" offset="0.5"/><stop stop-opacity="1" stop-color="rgb(79.779053%, 35.676575%, 75.285339%)" offset="0.503906"/><stop stop-opacity="1" stop-color="rgb(80.149841%, 35.539246%, 74.781799%)" offset="0.507812"/><stop stop-opacity="1" stop-color="rgb(80.52063%, 35.401917%, 74.276733%)" offset="0.511719"/><stop stop-opacity="1" stop-color="rgb(80.892944%, 35.264587%, 73.771667%)" offset="0.515625"/><stop stop-opacity="1" stop-color="rgb(81.263733%, 35.127258%, 73.266602%)" offset="0.519531"/><stop stop-opacity="1" stop-color="rgb(81.636047%, 34.989929%, 72.763062%)" offset="0.523438"/><stop stop-opacity="1" stop-color="rgb(82.006836%, 34.8526%, 72.257996%)" offset="0.527344"/><stop stop-opacity="1" stop-color="rgb(82.377625%, 34.715271%, 71.75293%)" offset="0.53125"/><stop stop-opacity="1" stop-color="rgb(82.748413%, 34.577942%, 71.247864%)" offset="0.535156"/><stop stop-opacity="1" stop-color="rgb(83.120728%, 34.440613%, 70.744324%)" offset="0.539062"/><stop stop-opacity="1" stop-color="rgb(83.491516%, 34.303284%, 70.239258%)" offset="0.542969"/><stop stop-opacity="1" stop-color="rgb(83.862305%, 34.165955%, 69.734192%)" offset="0.546875"/><stop stop-opacity="1" stop-color="rgb(84.233093%, 34.028625%, 69.229126%)" offset="0.550781"/><stop stop-opacity="1" stop-color="rgb(84.605408%, 33.891296%, 68.725586%)" offset="0.554688"/><stop stop-opacity="1" stop-color="rgb(84.976196%, 33.753967%, 68.22052%)" offset="0.558594"/><stop stop-opacity="1" stop-color="rgb(85.348511%, 33.616638%, 67.715454%)" offset="0.5625"/><stop stop-opacity="1" stop-color="rgb(85.719299%, 33.479309%, 67.210388%)" offset="0.566406"/><stop stop-opacity="1" stop-color="rgb(86.090088%, 33.34198%, 66.706848%)" offset="0.570312"/><stop stop-opacity="1" stop-color="rgb(86.460876%, 33.204651%, 66.201782%)" offset="0.574219"/><stop stop-opacity="1" stop-color="rgb(86.833191%, 33.067322%, 65.696716%)" offset="0.578125"/><stop stop-opacity="1" stop-color="rgb(87.203979%, 32.929993%, 65.19165%)" offset="0.582031"/><stop stop-opacity="1" stop-color="rgb(87.576294%, 32.792664%, 64.68811%)" offset="0.585937"/><stop stop-opacity="1" stop-color="rgb(87.947083%, 32.655334%, 64.183044%)" offset="0.589844"/><stop stop-opacity="1" stop-color="rgb(88.317871%, 32.519531%, 63.677979%)" offset="0.59375"/><stop stop-opacity="1" stop-color="rgb(88.68866%, 32.382202%, 63.172913%)" offset="0.597656"/><stop stop-opacity="1" stop-color="rgb(89.060974%, 32.244873%, 62.669373%)" offset="0.601562"/><stop stop-opacity="1" stop-color="rgb(89.431763%, 32.107544%, 62.164307%)" offset="0.605469"/><stop stop-opacity="1" stop-color="rgb(89.802551%, 31.970215%, 61.659241%)" offset="0.609375"/><stop stop-opacity="1" stop-color="rgb(90.17334%, 31.832886%, 61.154175%)" offset="0.613281"/><stop stop-opacity="1" stop-color="rgb(90.545654%, 31.695557%, 60.650635%)" offset="0.617188"/><stop stop-opacity="1" stop-color="rgb(90.916443%, 31.558228%, 60.145569%)" offset="0.621094"/><stop stop-opacity="1" stop-color="rgb(91.288757%, 31.420898%, 59.640503%)" offset="0.625"/><stop stop-opacity="1" stop-color="rgb(91.659546%, 31.283569%, 59.135437%)" offset="0.628906"/><stop stop-opacity="1" stop-color="rgb(92.030334%, 31.14624%, 58.631897%)" offset="0.632812"/><stop stop-opacity="1" stop-color="rgb(92.401123%, 31.008911%, 58.126831%)" offset="0.636719"/><stop stop-opacity="1" stop-color="rgb(92.773438%, 30.871582%, 57.621765%)" offset="0.640625"/><stop stop-opacity="1" stop-color="rgb(93.144226%, 30.734253%, 57.116699%)" offset="0.644531"/><stop stop-opacity="1" stop-color="rgb(93.516541%, 30.596924%, 56.613159%)" offset="0.648437"/><stop stop-opacity="1" stop-color="rgb(93.887329%, 30.459595%, 56.108093%)" offset="0.652344"/><stop stop-opacity="1" stop-color="rgb(94.258118%, 30.322266%, 55.603027%)" offset="0.65625"/><stop stop-opacity="1" stop-color="rgb(94.628906%, 30.184937%, 55.097961%)" offset="0.660156"/><stop stop-opacity="1" stop-color="rgb(95.001221%, 30.047607%, 54.594421%)" offset="0.664062"/><stop stop-opacity="1" stop-color="rgb(95.372009%, 29.910278%, 54.089355%)" offset="0.667969"/><stop stop-opacity="1" stop-color="rgb(95.742798%, 29.772949%, 53.58429%)" offset="0.671875"/><stop stop-opacity="1" stop-color="rgb(96.113586%, 29.63562%, 53.079224%)" offset="0.675781"/><stop stop-opacity="1" stop-color="rgb(96.485901%, 29.498291%, 52.575684%)" offset="0.679687"/><stop stop-opacity="1" stop-color="rgb(96.856689%, 29.360962%, 52.070618%)" offset="0.683594"/><stop stop-opacity="1" stop-color="rgb(97.229004%, 29.223633%, 51.565552%)" offset="0.6875"/><stop stop-opacity="1" stop-color="rgb(97.599792%, 29.086304%, 51.060486%)" offset="0.691406"/><stop stop-opacity="1" stop-color="rgb(97.970581%, 28.948975%, 50.556946%)" offset="0.695312"/><stop stop-opacity="1" stop-color="rgb(98.34137%, 28.811646%, 50.05188%)" offset="0.699219"/><stop stop-opacity="1" stop-color="rgb(98.713684%, 28.674316%, 49.546814%)" offset="0.703125"/><stop stop-opacity="1" stop-color="rgb(99.084473%, 28.536987%, 49.041748%)" offset="0.707031"/><stop stop-opacity="1" stop-color="rgb(99.456787%, 28.399658%, 48.538208%)" offset="0.710938"/><stop stop-opacity="1" stop-color="rgb(99.728394%, 28.29895%, 48.168945%)" offset="0.714844"/><stop stop-opacity="1" stop-color="rgb(100%, 28.199768%, 47.799683%)" offset="0.71875"/><stop stop-opacity="1" stop-color="rgb(100%, 28.199768%, 47.799683%)" offset="0.75"/><stop stop-opacity="1" stop-color="rgb(100%, 28.199768%, 47.799683%)" offset="0.752518"/><stop stop-opacity="1" stop-color="rgb(100%, 28.199768%, 47.799683%)" offset="1"/></linearGradient><clipPath id="id6"><path d="M 108 180 L 240 180 L 240 218 L 108 218 Z M 108 180 " clip-rule="nonzero"/></clipPath><clipPath id="id7"><path d="M 171.097656 42.929688 L 293.921875 160.824219 L 194.722656 264.171875 L 71.898438 146.277344 Z M 171.097656 42.929688 " clip-rule="nonzero"/></clipPath><clipPath id="id8"><path d="M 171.097656 42.929688 L 293.921875 160.824219 L 194.722656 264.171875 L 71.898438 146.277344 Z M 171.097656 42.929688 " clip-rule="nonzero"/></clipPath><clipPath id="id9"><path d="M 108 89 L 219 89 L 219 184 L 108 184 Z M 108 89 " clip-rule="nonzero"/></clipPath><clipPath id="id10"><path d="M 171.097656 42.929688 L 293.921875 160.824219 L 194.722656 264.171875 L 71.898438 146.277344 Z M 171.097656 42.929688 " clip-rule="nonzero"/></clipPath><clipPath id="id11"><path d="M 171.097656 42.929688 L 293.921875 160.824219 L 194.722656 264.171875 L 71.898438 146.277344 Z M 171.097656 42.929688 " clip-rule="nonzero"/></clipPath><clipPath id="id12"><path d="M 218.316406 91.441406 L 201.175781 183.398438 L 108.976562 181.75 L 126.140625 89.769531 Z M 218.316406 91.441406 " clip-rule="nonzero"/></clipPath><linearGradient x1="184.114791" gradientTransform="matrix(0.245648, 0.235791, -0.236196, 0.246071, 171.04063, 42.989469)" y1="-5.745043" x2="165.22304" gradientUnits="userSpaceOnUse" y2="431.692494" id="id13"><stop stop-opacity="1" stop-color="rgb(100%, 54.499817%, 79.199219%)" offset="0"/><stop stop-opacity="1" stop-color="rgb(100%, 54.499817%, 79.199219%)" offset="0.0415938"/><stop stop-opacity="1" stop-color="rgb(100%, 54.499817%, 79.199219%)" offset="0.125"/><stop stop-opacity="1" stop-color="rgb(100%, 54.499817%, 79.199219%)" offset="0.1875"/><stop stop-opacity="1" stop-color="rgb(100%, 54.499817%, 79.199219%)" offset="0.203125"/><stop stop-opacity="1" stop-color="rgb(99.943542%, 54.481506%, 79.229736%)" offset="0.210937"/><stop stop-opacity="1" stop-color="rgb(99.687195%, 54.400635%, 79.368591%)" offset="0.214844"/><stop stop-opacity="1" stop-color="rgb(99.487305%, 54.338074%, 79.476929%)" offset="0.21875"/><stop stop-opacity="1" stop-color="rgb(99.287415%, 54.273987%, 79.585266%)" offset="0.222656"/><stop stop-opacity="1" stop-color="rgb(99.087524%, 54.211426%, 79.693604%)" offset="0.226562"/><stop stop-opacity="1" stop-color="rgb(98.886108%, 54.148865%, 79.801941%)" offset="0.230469"/><stop stop-opacity="1" stop-color="rgb(98.686218%, 54.086304%, 79.910278%)" offset="0.234375"/><stop stop-opacity="1" stop-color="rgb(98.486328%, 54.022217%, 80.018616%)" offset="0.238281"/><stop stop-opacity="1" stop-color="rgb(98.286438%, 53.959656%, 80.126953%)" offset="0.242187"/><stop stop-opacity="1" stop-color="rgb(98.086548%, 53.895569%, 80.235291%)" offset="0.246094"/><stop stop-opacity="1" stop-color="rgb(97.886658%, 53.833008%, 80.343628%)" offset="0.25"/><stop stop-opacity="1" stop-color="rgb(97.685242%, 53.770447%, 80.451965%)" offset="0.253906"/><stop stop-opacity="1" stop-color="rgb(97.485352%, 53.707886%, 80.560303%)" offset="0.257812"/><stop stop-opacity="1" stop-color="rgb(97.285461%, 53.643799%, 80.66864%)" offset="0.261719"/><stop stop-opacity="1" stop-color="rgb(97.085571%, 53.581238%, 80.776978%)" offset="0.265625"/><stop stop-opacity="1" stop-color="rgb(96.885681%, 53.517151%, 80.885315%)" offset="0.269531"/><stop stop-opacity="1" stop-color="rgb(96.685791%, 53.45459%, 80.995178%)" offset="0.273437"/><stop stop-opacity="1" stop-color="rgb(96.484375%, 53.392029%, 81.103516%)" offset="0.277344"/><stop stop-opacity="1" stop-color="rgb(96.284485%, 53.329468%, 81.211853%)" offset="0.28125"/><stop stop-opacity="1" stop-color="rgb(96.084595%, 53.265381%, 81.32019%)" offset="0.285156"/><stop stop-opacity="1" stop-color="rgb(95.884705%, 53.20282%, 81.428528%)" offset="0.289062"/><stop stop-opacity="1" stop-color="rgb(95.683289%, 53.138733%, 81.536865%)" offset="0.292969"/><stop stop-opacity="1" stop-color="rgb(95.483398%, 53.076172%, 81.645203%)" offset="0.296875"/><stop stop-opacity="1" stop-color="rgb(95.283508%, 53.013611%, 81.75354%)" offset="0.300781"/><stop stop-opacity="1" stop-color="rgb(95.083618%, 52.95105%, 81.861877%)" offset="0.304688"/><stop stop-opacity="1" stop-color="rgb(94.883728%, 52.886963%, 81.970215%)" offset="0.308594"/><stop stop-opacity="1" stop-color="rgb(94.683838%, 52.824402%, 82.078552%)" offset="0.3125"/><stop stop-opacity="1" stop-color="rgb(94.482422%, 52.760315%, 82.18689%)" offset="0.316406"/><stop stop-opacity="1" stop-color="rgb(94.282532%, 52.697754%, 82.295227%)" offset="0.320312"/><stop stop-opacity="1" stop-color="rgb(94.082642%, 52.635193%, 82.403564%)" offset="0.324219"/><stop stop-opacity="1" stop-color="rgb(93.882751%, 52.572632%, 82.511902%)" offset="0.328125"/><stop stop-opacity="1" stop-color="rgb(93.682861%, 52.508545%, 82.620239%)" offset="0.332031"/><stop stop-opacity="1" stop-color="rgb(93.482971%, 52.445984%, 82.728577%)" offset="0.335937"/><stop stop-opacity="1" stop-color="rgb(93.281555%, 52.381897%, 82.836914%)" offset="0.339844"/><stop stop-opacity="1" stop-color="rgb(93.081665%, 52.319336%, 82.945251%)" offset="0.34375"/><stop stop-opacity="1" stop-color="rgb(92.881775%, 52.256775%, 83.053589%)" offset="0.347656"/><stop stop-opacity="1" stop-color="rgb(92.681885%, 52.194214%, 83.163452%)" offset="0.351562"/><stop stop-opacity="1" stop-color="rgb(92.481995%, 52.130127%, 83.27179%)" offset="0.355469"/><stop stop-opacity="1" stop-color="rgb(92.282104%, 52.067566%, 83.380127%)" offset="0.359375"/><stop stop-opacity="1" stop-color="rgb(92.080688%, 52.003479%, 83.488464%)" offset="0.363281"/><stop stop-opacity="1" stop-color="rgb(91.880798%, 51.940918%, 83.596802%)" offset="0.367187"/><stop stop-opacity="1" stop-color="rgb(91.680908%, 51.878357%, 83.705139%)" offset="0.371094"/><stop stop-opacity="1" stop-color="rgb(91.481018%, 51.815796%, 83.813477%)" offset="0.375"/><stop stop-opacity="1" stop-color="rgb(91.281128%, 51.751709%, 83.921814%)" offset="0.378906"/><stop stop-opacity="1" stop-color="rgb(91.081238%, 51.689148%, 84.030151%)" offset="0.382812"/><stop stop-opacity="1" stop-color="rgb(90.879822%, 51.625061%, 84.138489%)" offset="0.386719"/><stop stop-opacity="1" stop-color="rgb(90.679932%, 51.5625%, 84.246826%)" offset="0.390625"/><stop stop-opacity="1" stop-color="rgb(90.480042%, 51.499939%, 84.355164%)" offset="0.394531"/><stop stop-opacity="1" stop-color="rgb(90.280151%, 51.437378%, 84.463501%)" offset="0.398438"/><stop stop-opacity="1" stop-color="rgb(90.080261%, 51.373291%, 84.571838%)" offset="0.402344"/><stop stop-opacity="1" stop-color="rgb(89.880371%, 51.31073%, 84.680176%)" offset="0.40625"/><stop stop-opacity="1" stop-color="rgb(89.678955%, 51.246643%, 84.788513%)" offset="0.410156"/><stop stop-opacity="1" stop-color="rgb(89.479065%, 51.184082%, 84.896851%)" offset="0.414062"/><stop stop-opacity="1" stop-color="rgb(89.279175%, 51.121521%, 85.005188%)" offset="0.417969"/><stop stop-opacity="1" stop-color="rgb(89.079285%, 51.05896%, 85.113525%)" offset="0.421875"/><stop stop-opacity="1" stop-color="rgb(88.879395%, 50.994873%, 85.221863%)" offset="0.425781"/><stop stop-opacity="1" stop-color="rgb(88.679504%, 50.932312%, 85.331726%)" offset="0.429688"/><stop stop-opacity="1" stop-color="rgb(88.478088%, 50.868225%, 85.440063%)" offset="0.433594"/><stop stop-opacity="1" stop-color="rgb(88.278198%, 50.805664%, 85.548401%)" offset="0.4375"/><stop stop-opacity="1" stop-color="rgb(88.078308%, 50.743103%, 85.656738%)" offset="0.441406"/><stop stop-opacity="1" stop-color="rgb(87.878418%, 50.680542%, 85.765076%)" offset="0.445312"/><stop stop-opacity="1" stop-color="rgb(87.678528%, 50.616455%, 85.873413%)" offset="0.449219"/><stop stop-opacity="1" stop-color="rgb(87.478638%, 50.553894%, 85.98175%)" offset="0.453125"/><stop stop-opacity="1" stop-color="rgb(87.277222%, 50.489807%, 86.090088%)" offset="0.457031"/><stop stop-opacity="1" stop-color="rgb(87.077332%, 50.427246%, 86.198425%)" offset="0.460937"/><stop stop-opacity="1" stop-color="rgb(86.877441%, 50.364685%, 86.306763%)" offset="0.464844"/><stop stop-opacity="1" stop-color="rgb(86.677551%, 50.302124%, 86.4151%)" offset="0.46875"/><stop stop-opacity="1" stop-color="rgb(86.477661%, 50.238037%, 86.523438%)" offset="0.472656"/><stop stop-opacity="1" stop-color="rgb(86.277771%, 50.175476%, 86.631775%)" offset="0.476562"/><stop stop-opacity="1" stop-color="rgb(86.076355%, 50.111389%, 86.740112%)" offset="0.480469"/><stop stop-opacity="1" stop-color="rgb(85.876465%, 50.048828%, 86.84845%)" offset="0.484375"/><stop stop-opacity="1" stop-color="rgb(85.676575%, 49.986267%, 86.956787%)" offset="0.488281"/><stop stop-opacity="1" stop-color="rgb(85.476685%, 49.923706%, 87.065125%)" offset="0.492187"/><stop stop-opacity="1" stop-color="rgb(85.276794%, 49.859619%, 87.173462%)" offset="0.496094"/><stop stop-opacity="1" stop-color="rgb(85.076904%, 49.797058%, 87.281799%)" offset="0.5"/><stop stop-opacity="1" stop-color="rgb(84.875488%, 49.732971%, 87.390137%)" offset="0.503906"/><stop stop-opacity="1" stop-color="rgb(84.675598%, 49.67041%, 87.5%)" offset="0.507812"/><stop stop-opacity="1" stop-color="rgb(84.475708%, 49.607849%, 87.608337%)" offset="0.511719"/><stop stop-opacity="1" stop-color="rgb(84.275818%, 49.545288%, 87.716675%)" offset="0.515625"/><stop stop-opacity="1" stop-color="rgb(84.075928%, 49.481201%, 87.825012%)" offset="0.519531"/><stop stop-opacity="1" stop-color="rgb(83.876038%, 49.41864%, 87.93335%)" offset="0.523438"/><stop stop-opacity="1" stop-color="rgb(83.674622%, 49.354553%, 88.041687%)" offset="0.527344"/><stop stop-opacity="1" stop-color="rgb(83.474731%, 49.291992%, 88.150024%)" offset="0.53125"/><stop stop-opacity="1" stop-color="rgb(83.274841%, 49.229431%, 88.258362%)" offset="0.535156"/><stop stop-opacity="1" stop-color="rgb(83.074951%, 49.16687%, 88.366699%)" offset="0.539062"/><stop stop-opacity="1" stop-color="rgb(82.873535%, 49.102783%, 88.475037%)" offset="0.542969"/><stop stop-opacity="1" stop-color="rgb(82.673645%, 49.040222%, 88.583374%)" offset="0.546875"/><stop stop-opacity="1" stop-color="rgb(82.473755%, 48.976135%, 88.691711%)" offset="0.550781"/><stop stop-opacity="1" stop-color="rgb(82.273865%, 48.913574%, 88.800049%)" offset="0.554687"/><stop stop-opacity="1" stop-color="rgb(82.073975%, 48.851013%, 88.908386%)" offset="0.558594"/><stop stop-opacity="1" stop-color="rgb(81.874084%, 48.788452%, 89.016724%)" offset="0.5625"/><stop stop-opacity="1" stop-color="rgb(81.672668%, 48.724365%, 89.125061%)" offset="0.566406"/><stop stop-opacity="1" stop-color="rgb(81.472778%, 48.661804%, 89.233398%)" offset="0.570312"/><stop stop-opacity="1" stop-color="rgb(81.272888%, 48.597717%, 89.341736%)" offset="0.574219"/><stop stop-opacity="1" stop-color="rgb(81.072998%, 48.535156%, 89.451599%)" offset="0.578125"/><stop stop-opacity="1" stop-color="rgb(80.873108%, 48.472595%, 89.559937%)" offset="0.582031"/><stop stop-opacity="1" stop-color="rgb(80.673218%, 48.410034%, 89.668274%)" offset="0.585938"/><stop stop-opacity="1" stop-color="rgb(80.471802%, 48.345947%, 89.776611%)" offset="0.589844"/><stop stop-opacity="1" stop-color="rgb(80.271912%, 48.283386%, 89.884949%)" offset="0.59375"/><stop stop-opacity="1" stop-color="rgb(80.072021%, 48.219299%, 89.993286%)" offset="0.597656"/><stop stop-opacity="1" stop-color="rgb(79.872131%, 48.156738%, 90.101624%)" offset="0.601562"/><stop stop-opacity="1" stop-color="rgb(79.672241%, 48.094177%, 90.209961%)" offset="0.605469"/><stop stop-opacity="1" stop-color="rgb(79.472351%, 48.031616%, 90.318298%)" offset="0.609375"/><stop stop-opacity="1" stop-color="rgb(79.270935%, 47.967529%, 90.426636%)" offset="0.613281"/><stop stop-opacity="1" stop-color="rgb(79.071045%, 47.904968%, 90.534973%)" offset="0.617188"/><stop stop-opacity="1" stop-color="rgb(78.871155%, 47.840881%, 90.643311%)" offset="0.621094"/><stop stop-opacity="1" stop-color="rgb(78.671265%, 47.77832%, 90.751648%)" offset="0.625"/><stop stop-opacity="1" stop-color="rgb(78.471375%, 47.715759%, 90.859985%)" offset="0.628906"/><stop stop-opacity="1" stop-color="rgb(78.271484%, 47.653198%, 90.968323%)" offset="0.632812"/><stop stop-opacity="1" stop-color="rgb(78.070068%, 47.589111%, 91.07666%)" offset="0.636719"/><stop stop-opacity="1" stop-color="rgb(77.870178%, 47.52655%, 91.184998%)" offset="0.640625"/><stop stop-opacity="1" stop-color="rgb(77.670288%, 47.462463%, 91.293335%)" offset="0.644531"/><stop stop-opacity="1" stop-color="rgb(77.470398%, 47.399902%, 91.401672%)" offset="0.648438"/><stop stop-opacity="1" stop-color="rgb(77.270508%, 47.337341%, 91.51001%)" offset="0.652344"/><stop stop-opacity="1" stop-color="rgb(77.070618%, 47.27478%, 91.619873%)" offset="0.65625"/><stop stop-opacity="1" stop-color="rgb(76.869202%, 47.210693%, 91.72821%)" offset="0.660156"/><stop stop-opacity="1" stop-color="rgb(76.669312%, 47.148132%, 91.836548%)" offset="0.664062"/><stop stop-opacity="1" stop-color="rgb(76.469421%, 47.084045%, 91.944885%)" offset="0.667969"/><stop stop-opacity="1" stop-color="rgb(76.269531%, 47.021484%, 92.053223%)" offset="0.671875"/><stop stop-opacity="1" stop-color="rgb(76.069641%, 46.958923%, 92.16156%)" offset="0.675781"/><stop stop-opacity="1" stop-color="rgb(75.869751%, 46.896362%, 92.269897%)" offset="0.679688"/><stop stop-opacity="1" stop-color="rgb(75.668335%, 46.832275%, 92.378235%)" offset="0.683594"/><stop stop-opacity="1" stop-color="rgb(75.468445%, 46.769714%, 92.486572%)" offset="0.6875"/><stop stop-opacity="1" stop-color="rgb(75.268555%, 46.705627%, 92.59491%)" offset="0.691406"/><stop stop-opacity="1" stop-color="rgb(75.068665%, 46.643066%, 92.703247%)" offset="0.695312"/><stop stop-opacity="1" stop-color="rgb(74.868774%, 46.580505%, 92.811584%)" offset="0.699219"/><stop stop-opacity="1" stop-color="rgb(74.668884%, 46.517944%, 92.919922%)" offset="0.703125"/><stop stop-opacity="1" stop-color="rgb(74.467468%, 46.453857%, 93.028259%)" offset="0.707031"/><stop stop-opacity="1" stop-color="rgb(74.267578%, 46.391296%, 93.136597%)" offset="0.710938"/><stop stop-opacity="1" stop-color="rgb(74.067688%, 46.327209%, 93.244934%)" offset="0.714844"/><stop stop-opacity="1" stop-color="rgb(73.867798%, 46.264648%, 93.353271%)" offset="0.71875"/><stop stop-opacity="1" stop-color="rgb(73.667908%, 46.202087%, 93.461609%)" offset="0.722656"/><stop stop-opacity="1" stop-color="rgb(73.468018%, 46.139526%, 93.569946%)" offset="0.726562"/><stop stop-opacity="1" stop-color="rgb(73.266602%, 46.075439%, 93.678284%)" offset="0.730469"/><stop stop-opacity="1" stop-color="rgb(73.066711%, 46.012878%, 93.788147%)" offset="0.734375"/><stop stop-opacity="1" stop-color="rgb(72.866821%, 45.948792%, 93.896484%)" offset="0.738281"/><stop stop-opacity="1" stop-color="rgb(72.666931%, 45.88623%, 94.004822%)" offset="0.742188"/><stop stop-opacity="1" stop-color="rgb(72.467041%, 45.823669%, 94.113159%)" offset="0.746094"/><stop stop-opacity="1" stop-color="rgb(72.267151%, 45.761108%, 94.221497%)" offset="0.75"/><stop stop-opacity="1" stop-color="rgb(72.065735%, 45.697021%, 94.329834%)" offset="0.753906"/><stop stop-opacity="1" stop-color="rgb(71.865845%, 45.63446%, 94.438171%)" offset="0.757812"/><stop stop-opacity="1" stop-color="rgb(71.665955%, 45.570374%, 94.546509%)" offset="0.761719"/><stop stop-opacity="1" stop-color="rgb(71.466064%, 45.507812%, 94.654846%)" offset="0.765625"/><stop stop-opacity="1" stop-color="rgb(71.266174%, 45.445251%, 94.763184%)" offset="0.769531"/><stop stop-opacity="1" stop-color="rgb(71.066284%, 45.38269%, 94.871521%)" offset="0.773438"/><stop stop-opacity="1" stop-color="rgb(70.864868%, 45.318604%, 94.979858%)" offset="0.777344"/><stop stop-opacity="1" stop-color="rgb(70.664978%, 45.256042%, 95.088196%)" offset="0.78125"/><stop stop-opacity="1" stop-color="rgb(70.465088%, 45.191956%, 95.196533%)" offset="0.785156"/><stop stop-opacity="1" stop-color="rgb(70.265198%, 45.129395%, 95.304871%)" offset="0.789062"/><stop stop-opacity="1" stop-color="rgb(70.063782%, 45.066833%, 95.413208%)" offset="0.792969"/><stop stop-opacity="1" stop-color="rgb(69.863892%, 45.004272%, 95.521545%)" offset="0.796875"/><stop stop-opacity="1" stop-color="rgb(69.664001%, 44.940186%, 95.629883%)" offset="0.800781"/><stop stop-opacity="1" stop-color="rgb(69.464111%, 44.877625%, 95.739746%)" offset="0.804688"/><stop stop-opacity="1" stop-color="rgb(69.264221%, 44.813538%, 95.848083%)" offset="0.808594"/><stop stop-opacity="1" stop-color="rgb(69.064331%, 44.750977%, 95.956421%)" offset="0.8125"/><stop stop-opacity="1" stop-color="rgb(68.862915%, 44.688416%, 96.064758%)" offset="0.816406"/><stop stop-opacity="1" stop-color="rgb(68.663025%, 44.625854%, 96.173096%)" offset="0.820312"/><stop stop-opacity="1" stop-color="rgb(68.463135%, 44.561768%, 96.281433%)" offset="0.824219"/><stop stop-opacity="1" stop-color="rgb(68.263245%, 44.499207%, 96.389771%)" offset="0.828125"/><stop stop-opacity="1" stop-color="rgb(68.063354%, 44.43512%, 96.498108%)" offset="0.832031"/><stop stop-opacity="1" stop-color="rgb(67.863464%, 44.372559%, 96.606445%)" offset="0.835938"/><stop stop-opacity="1" stop-color="rgb(67.662048%, 44.309998%, 96.714783%)" offset="0.839844"/><stop stop-opacity="1" stop-color="rgb(67.462158%, 44.247437%, 96.82312%)" offset="0.84375"/><stop stop-opacity="1" stop-color="rgb(67.262268%, 44.18335%, 96.931458%)" offset="0.847656"/><stop stop-opacity="1" stop-color="rgb(67.062378%, 44.120789%, 97.039795%)" offset="0.851562"/><stop stop-opacity="1" stop-color="rgb(66.862488%, 44.056702%, 97.148132%)" offset="0.855469"/><stop stop-opacity="1" stop-color="rgb(66.662598%, 43.994141%, 97.25647%)" offset="0.859375"/><stop stop-opacity="1" stop-color="rgb(66.461182%, 43.93158%, 97.364807%)" offset="0.863281"/><stop stop-opacity="1" stop-color="rgb(66.261292%, 43.869019%, 97.473145%)" offset="0.867188"/><stop stop-opacity="1" stop-color="rgb(66.061401%, 43.804932%, 97.581482%)" offset="0.871094"/><stop stop-opacity="1" stop-color="rgb(65.861511%, 43.742371%, 97.689819%)" offset="0.875"/><stop stop-opacity="1" stop-color="rgb(65.661621%, 43.678284%, 97.798157%)" offset="0.878906"/><stop stop-opacity="1" stop-color="rgb(65.461731%, 43.615723%, 97.90802%)" offset="0.882812"/><stop stop-opacity="1" stop-color="rgb(65.260315%, 43.553162%, 98.016357%)" offset="0.886719"/><stop stop-opacity="1" stop-color="rgb(65.060425%, 43.490601%, 98.124695%)" offset="0.890625"/><stop stop-opacity="1" stop-color="rgb(64.860535%, 43.426514%, 98.233032%)" offset="0.894531"/><stop stop-opacity="1" stop-color="rgb(64.660645%, 43.363953%, 98.34137%)" offset="0.898438"/><stop stop-opacity="1" stop-color="rgb(64.460754%, 43.299866%, 98.449707%)" offset="0.902344"/><stop stop-opacity="1" stop-color="rgb(64.260864%, 43.237305%, 98.558044%)" offset="0.90625"/><stop stop-opacity="1" stop-color="rgb(64.059448%, 43.174744%, 98.666382%)" offset="0.910156"/><stop stop-opacity="1" stop-color="rgb(63.859558%, 43.112183%, 98.774719%)" offset="0.914062"/><stop stop-opacity="1" stop-color="rgb(63.659668%, 43.048096%, 98.883057%)" offset="0.917969"/><stop stop-opacity="1" stop-color="rgb(63.459778%, 42.985535%, 98.991394%)" offset="0.921875"/><stop stop-opacity="1" stop-color="rgb(63.259888%, 42.921448%, 99.099731%)" offset="0.925781"/><stop stop-opacity="1" stop-color="rgb(63.059998%, 42.858887%, 99.208069%)" offset="0.929688"/><stop stop-opacity="1" stop-color="rgb(62.858582%, 42.796326%, 99.316406%)" offset="0.933594"/><stop stop-opacity="1" stop-color="rgb(62.658691%, 42.733765%, 99.424744%)" offset="0.9375"/><stop stop-opacity="1" stop-color="rgb(62.458801%, 42.669678%, 99.533081%)" offset="0.941406"/><stop stop-opacity="1" stop-color="rgb(62.258911%, 42.607117%, 99.641418%)" offset="0.945312"/><stop stop-opacity="1" stop-color="rgb(62.059021%, 42.54303%, 99.749756%)" offset="0.949219"/><stop stop-opacity="1" stop-color="rgb(61.859131%, 42.480469%, 99.858093%)" offset="0.953125"/><stop stop-opacity="1" stop-color="rgb(61.729431%, 42.43927%, 99.928284%)" offset="0.958406"/><stop stop-opacity="1" stop-color="rgb(61.599731%, 42.399597%, 100%)" offset="0.96875"/><stop stop-opacity="1" stop-color="rgb(61.599731%, 42.399597%, 100%)" offset="1"/></linearGradient><clipPath id="id14"><path d="M 123.34375 96.136719 L 201.34375 96.136719 L 201.34375 174.136719 L 123.34375 174.136719 Z M 123.34375 96.136719 " clip-rule="nonzero"/></clipPath><clipPath id="id15"><path d="M 123.34375 96.136719 L 201.34375 96.136719 L 201.34375 174.136719 L 123.34375 174.136719 Z M 123.34375 96.136719 " clip-rule="nonzero"/></clipPath><clipPath id="id16"><path d="M 162.34375 96.136719 C 140.804688 96.136719 123.34375 113.597656 123.34375 135.136719 C 123.34375 156.675781 140.804688 174.136719 162.34375 174.136719 C 183.882812 174.136719 201.34375 156.675781 201.34375 135.136719 C 201.34375 113.597656 183.882812 96.136719 162.34375 96.136719 " clip-rule="nonzero"/></clipPath></defs><g clip-path="url(#id1)"><g clip-path="url(#id2)"><g clip-path="url(#id3)"><g clip-path="url(#id4)"><path fill="url(#id5)" d="M 226.8125 62.5625 L 136.234375 156.925781 L 229.171875 246.136719 L 319.75 151.773438 Z M 226.8125 62.5625 " fill-rule="nonzero"/></g></g></g></g><g clip-path="url(#id6)"><g clip-path="url(#id7)"><g clip-path="url(#id8)"><path fill="#5e17eb" d="M 239.703125 217.308594 L 147.503906 215.660156 L 108.949219 181.726562 L 112.351562 180.59375 L 199.484375 182.011719 L 201.125 183.398438 Z M 239.703125 217.308594 " fill-opacity="1" fill-rule="nonzero"/></g></g></g><g clip-path="url(#id9)"><g clip-path="url(#id10)"><g clip-path="url(#id11)"><g clip-path="url(#id12)"><path fill="url(#id13)" d="M 161.40625 35.144531 L 62.199219 138.5 L 165.882812 238.023438 L 265.089844 134.667969 Z M 161.40625 35.144531 " fill-rule="nonzero"/></g></g></g></g><g clip-path="url(#id14)"><path fill="#22304d" d="M 162.34375 96.136719 C 140.804688 96.136719 123.34375 113.597656 123.34375 135.136719 C 123.34375 156.675781 140.804688 174.136719 162.34375 174.136719 C 183.882812 174.136719 201.34375 156.675781 201.34375 135.136719 C 201.34375 113.597656 183.882812 96.136719 162.34375 96.136719 " fill-opacity="1" fill-rule="nonzero"/></g><g clip-path="url(#id15)"><g clip-path="url(#id16)"><path fill="#ffffff" d="M 162.34375 99.128906 C 161.40625 99.128906 160.472656 99.164062 159.542969 99.234375 L 159.085938 93.269531 C 160.167969 93.1875 161.253906 93.144531 162.34375 93.144531 Z M 156.804688 99.550781 C 155.898438 99.691406 154.996094 99.863281 154.105469 100.074219 L 152.742188 94.25 C 153.785156 94.007812 154.835938 93.800781 155.894531 93.640625 Z M 151.433594 100.808594 C 150.558594 101.085938 149.695312 101.398438 148.847656 101.742188 L 146.601562 96.195312 C 147.59375 95.796875 148.601562 95.433594 149.621094 95.109375 Z M 146.324219 102.878906 C 145.5 103.289062 144.691406 103.730469 143.898438 104.203125 L 140.828125 99.070312 C 141.753906 98.515625 142.695312 98.003906 143.65625 97.523438 Z M 141.585938 105.707031 C 140.832031 106.242188 140.101562 106.800781 139.390625 107.390625 L 135.574219 102.785156 C 136.402344 102.097656 137.257812 101.445312 138.132812 100.824219 Z M 137.328125 109.234375 C 136.667969 109.875 136.027344 110.539062 135.417969 111.226562 L 130.945312 107.253906 C 131.660156 106.453125 132.402344 105.679688 133.175781 104.933594 Z M 133.660156 113.363281 C 133.101562 114.097656 132.570312 114.851562 132.070312 115.628906 L 127.046875 112.382812 C 127.628906 111.480469 128.246094 110.601562 128.898438 109.742188 Z M 130.664062 118 C 130.222656 118.8125 129.816406 119.640625 129.441406 120.484375 L 123.976562 118.046875 C 124.417969 117.0625 124.894531 116.097656 125.40625 115.148438 Z M 128.417969 123.039062 C 128.105469 123.90625 127.832031 124.785156 127.589844 125.671875 L 121.816406 124.105469 C 122.101562 123.066406 122.421875 122.042969 122.78125 121.027344 Z M 126.96875 128.375 C 126.796875 129.269531 126.660156 130.175781 126.558594 131.082031 L 120.617188 130.417969 C 120.734375 129.359375 120.894531 128.304688 121.089844 127.257812 Z M 126.355469 133.855469 C 126.34375 134.28125 126.335938 134.710938 126.335938 135.136719 C 126.335938 135.648438 126.34375 136.160156 126.367188 136.671875 L 120.390625 136.921875 C 120.367188 136.328125 120.351562 135.734375 120.351562 135.136719 C 120.351562 134.640625 120.363281 134.144531 120.378906 133.648438 Z M 126.589844 139.4375 C 126.695312 140.34375 126.839844 141.246094 127.015625 142.140625 L 121.144531 143.296875 C 120.941406 142.253906 120.773438 141.203125 120.648438 140.144531 Z M 127.65625 144.84375 C 127.90625 145.730469 128.1875 146.605469 128.5 147.46875 L 122.882812 149.519531 C 122.511719 148.507812 122.183594 147.488281 121.894531 146.453125 Z M 129.542969 150.019531 C 129.925781 150.859375 130.339844 151.683594 130.785156 152.492188 L 125.546875 155.382812 C 125.027344 154.4375 124.542969 153.476562 124.097656 152.492188 Z M 132.207031 154.855469 C 132.714844 155.625 133.25 156.378906 133.8125 157.109375 L 129.078125 160.761719 C 128.417969 159.910156 127.796875 159.035156 127.207031 158.136719 Z M 135.582031 159.230469 C 136.199219 159.917969 136.84375 160.578125 137.511719 161.214844 L 133.382812 165.542969 C 132.605469 164.804688 131.859375 164.035156 131.140625 163.234375 Z M 139.582031 163.042969 C 140.296875 163.625 141.035156 164.183594 141.792969 164.710938 L 138.375 169.617188 C 137.492188 169.003906 136.632812 168.355469 135.800781 167.675781 Z M 144.113281 166.199219 C 144.910156 166.664062 145.71875 167.101562 146.546875 167.507812 L 143.921875 172.878906 C 142.953125 172.40625 142.007812 171.898438 141.082031 171.351562 Z M 149.078125 168.625 C 149.929688 168.960938 150.792969 169.265625 151.671875 169.539062 L 149.902344 175.253906 C 148.878906 174.933594 147.867188 174.578125 146.871094 174.183594 Z M 154.351562 170.257812 C 155.242188 170.460938 156.144531 170.625 157.050781 170.761719 L 156.179688 176.675781 C 155.121094 176.523438 154.070312 176.324219 153.03125 176.089844 Z M 159.796875 171.058594 C 160.640625 171.117188 161.492188 171.144531 162.34375 171.144531 L 162.609375 171.144531 L 162.632812 177.125 L 162.34375 177.128906 C 161.351562 177.128906 160.363281 177.09375 159.378906 177.023438 Z M 165.394531 171.019531 C 166.3125 170.941406 167.222656 170.832031 168.128906 170.683594 L 169.078125 176.589844 C 168.023438 176.761719 166.960938 176.890625 165.894531 176.980469 Z M 170.828125 170.140625 C 171.726562 169.925781 172.613281 169.671875 173.492188 169.386719 L 175.34375 175.074219 C 174.316406 175.410156 173.28125 175.703125 172.230469 175.957031 Z M 176.070312 168.4375 C 176.925781 168.085938 177.765625 167.699219 178.589844 167.28125 L 181.292969 172.617188 C 180.328125 173.105469 179.347656 173.554688 178.351562 173.96875 Z M 181.003906 165.941406 C 181.789062 165.464844 182.558594 164.957031 183.304688 164.417969 L 186.792969 169.28125 C 185.917969 169.90625 185.023438 170.496094 184.105469 171.054688 Z M 185.492188 162.722656 C 186.195312 162.128906 186.878906 161.511719 187.539062 160.863281 L 191.722656 165.136719 C 190.957031 165.890625 190.160156 166.609375 189.339844 167.300781 Z M 189.4375 158.859375 C 190.046875 158.164062 190.625 157.449219 191.179688 156.710938 L 195.964844 160.296875 C 195.320312 161.15625 194.644531 161.992188 193.933594 162.800781 Z M 192.75 154.4375 C 193.246094 153.660156 193.707031 152.863281 194.140625 152.054688 L 199.417969 154.867188 C 198.914062 155.8125 198.375 156.742188 197.796875 157.648438 Z M 195.347656 149.558594 C 195.71875 148.71875 196.050781 147.867188 196.355469 147 L 202 148.96875 C 201.648438 149.980469 201.257812 150.976562 200.828125 151.957031 Z M 197.164062 144.359375 C 197.398438 143.464844 197.597656 142.566406 197.765625 141.65625 L 203.648438 142.730469 C 203.453125 143.792969 203.21875 144.84375 202.945312 145.886719 Z M 198.15625 138.941406 C 198.25 138.019531 198.3125 137.09375 198.339844 136.164062 L 204.316406 136.328125 C 204.289062 137.414062 204.214844 138.492188 204.101562 139.566406 Z M 198.308594 133.351562 C 198.265625 132.425781 198.183594 131.503906 198.070312 130.585938 L 204.003906 129.839844 C 204.136719 130.90625 204.230469 131.980469 204.285156 133.058594 Z M 197.625 127.890625 C 197.4375 126.980469 197.21875 126.082031 196.960938 125.1875 L 202.710938 123.539062 C 203.011719 124.582031 203.269531 125.632812 203.484375 126.695312 Z M 196.101562 122.570312 C 195.78125 121.707031 195.425781 120.859375 195.039062 120.027344 L 200.46875 117.511719 C 200.917969 118.488281 201.332031 119.476562 201.707031 120.484375 Z M 193.78125 117.5625 C 193.332031 116.757812 192.851562 115.976562 192.34375 115.210938 L 197.320312 111.894531 C 197.914062 112.789062 198.472656 113.703125 199 114.636719 Z M 190.722656 112.964844 C 190.152344 112.242188 189.558594 111.535156 188.9375 110.855469 L 193.351562 106.820312 C 194.078125 107.613281 194.769531 108.433594 195.433594 109.28125 Z M 186.996094 108.886719 C 186.324219 108.257812 185.628906 107.652344 184.910156 107.074219 L 188.660156 102.414062 C 189.5 103.089844 190.308594 103.792969 191.089844 104.53125 Z M 182.691406 105.421875 C 181.929688 104.902344 181.152344 104.410156 180.359375 103.949219 L 183.355469 98.773438 C 184.28125 99.3125 185.1875 99.882812 186.074219 100.488281 Z M 177.914062 102.65625 C 177.082031 102.257812 176.238281 101.890625 175.378906 101.558594 L 177.546875 95.984375 C 178.546875 96.371094 179.535156 96.800781 180.503906 97.265625 Z M 172.777344 100.660156 C 171.890625 100.394531 170.996094 100.160156 170.089844 99.960938 L 171.371094 94.121094 C 172.425781 94.351562 173.472656 94.621094 174.507812 94.9375 Z M 167.390625 99.476562 C 166.480469 99.351562 165.5625 99.257812 164.640625 99.199219 L 165.015625 93.230469 C 166.089844 93.296875 167.160156 93.40625 168.222656 93.554688 Z M 167.390625 99.476562 " fill-opacity="1" fill-rule="nonzero"/></g></g><g fill="#ffffff" fill-opacity="1"><g transform="translate(101.753559, 307.364862)"><g><path d="M 7.234375 0 L 4.355469 -3.972656 L 6.953125 -7.640625 L 5.03125 -7.640625 L 2.519531 -4.101562 L 2.519531 -7.640625 L 0.871094 -7.640625 L 0.871094 0 L 2.519531 0 L 2.519531 -3.722656 L 5.214844 0 Z M 7.234375 0 "/></g></g></g><g fill="#ffffff" fill-opacity="1"><g transform="translate(111.443995, 307.364862)"><g><path d="M 2.519531 -1.527344 L 2.519531 -3.097656 L 5.171875 -3.097656 L 5.171875 -4.59375 L 2.519531 -4.59375 L 2.519531 -6.109375 L 5.457031 -6.109375 L 5.457031 -7.640625 L 0.871094 -7.640625 L 0.871094 0 L 5.578125 0 L 5.578125 -1.527344 Z M 2.519531 -1.527344 "/></g></g></g><g fill="#ffffff" fill-opacity="1"><g transform="translate(120.076138, 307.364862)"><g><path d="M 5.707031 -7.640625 L 5.707031 -2.980469 L 2.355469 -7.640625 L 0.871094 -7.640625 L 0.871094 0 L 2.488281 0 L 2.488281 -4.769531 L 5.949219 0 L 7.332031 0 L 7.332031 -7.640625 Z M 5.707031 -7.640625 "/></g></g></g><g fill="#ffffff" fill-opacity="1"><g transform="translate(130.813949, 307.364862)"><g><path d="M 7.234375 -7.640625 L 5.46875 -7.640625 L 3.699219 -4.574219 L 1.941406 -7.640625 L 0.183594 -7.640625 L 2.847656 -3.089844 L 2.847656 0 L 4.539062 0 L 4.539062 -3.078125 Z M 7.234375 -7.640625 "/></g></g></g><g fill="#ffffff" fill-opacity="1"><g transform="translate(140.755307, 307.364862)"><g><path d="M 5.9375 0 L 7.738281 0 L 4.648438 -7.640625 L 3.089844 -7.640625 L 0.0859375 0 L 1.84375 0 L 2.367188 -1.441406 L 5.402344 -1.441406 Z M 3.886719 -5.621094 L 4.890625 -2.882812 L 2.882812 -2.882812 Z M 3.886719 -5.621094 "/></g></g></g><g fill="#ffffff" fill-opacity="1"><g transform="translate(151.122166, 307.364862)"><g><path d="M 0.65625 -4.757812 L 2.128906 -4.757812 L 2.128906 -7.660156 L 0.65625 -7.660156 Z M 0.65625 -4.757812 "/></g></g></g><g fill="#ffffff" fill-opacity="1"><g transform="translate(156.459444, 307.364862)"><g><path d="M 3.40625 0.152344 C 4.988281 0.152344 6.296875 -0.644531 6.296875 -2.292969 C 6.296875 -4.003906 4.835938 -4.363281 3.675781 -4.660156 C 2.859375 -4.855469 2.203125 -5.019531 2.203125 -5.554688 C 2.203125 -6.054688 2.738281 -6.285156 3.273438 -6.285156 C 3.894531 -6.285156 4.441406 -5.980469 4.441406 -5.3125 L 6.066406 -5.3125 C 6.066406 -6.84375 5.074219 -7.78125 3.316406 -7.78125 C 1.625 -7.78125 0.546875 -6.953125 0.546875 -5.488281 C 0.546875 -3.839844 1.941406 -3.503906 3.097656 -3.21875 C 3.929688 -3.035156 4.625 -2.871094 4.625 -2.269531 C 4.625 -1.703125 4.015625 -1.375 3.394531 -1.375 C 2.71875 -1.375 2.105469 -1.734375 2.105469 -2.464844 L 0.4375 -2.464844 C 0.4375 -0.828125 1.648438 0.152344 3.40625 0.152344 Z M 3.40625 0.152344 "/></g></g></g><g fill="#ffffff" fill-opacity="1"><g transform="translate(165.746204, 307.364862)"><g/></g></g><g fill="#ffffff" fill-opacity="1"><g transform="translate(170.887101, 307.364862)"><g><path d="M 5.707031 -7.640625 L 5.707031 -2.980469 L 2.355469 -7.640625 L 0.871094 -7.640625 L 0.871094 0 L 2.488281 0 L 2.488281 -4.769531 L 5.949219 0 L 7.332031 0 L 7.332031 -7.640625 Z M 5.707031 -7.640625 "/></g></g></g><g fill="#ffffff" fill-opacity="1"><g transform="translate(181.624915, 307.364862)"><g><path d="M 4.496094 0.175781 C 6.820312 0.175781 8.554688 -1.539062 8.554688 -3.820312 C 8.554688 -6.089844 6.820312 -7.800781 4.496094 -7.800781 C 2.160156 -7.800781 0.414062 -6.078125 0.414062 -3.820312 C 0.414062 -1.550781 2.160156 0.175781 4.496094 0.175781 Z M 4.496094 -1.386719 C 3.132812 -1.386719 2.09375 -2.445312 2.09375 -3.820312 C 2.09375 -5.195312 3.132812 -6.242188 4.496094 -6.242188 C 5.859375 -6.242188 6.875 -5.207031 6.875 -3.820312 C 6.875 -2.433594 5.859375 -1.386719 4.496094 -1.386719 Z M 4.496094 -1.386719 "/></g></g></g><g fill="#ffffff" fill-opacity="1"><g transform="translate(193.137338, 307.364862)"><g><path d="M 0.644531 0 L 2.335938 0 L 2.335938 -1.703125 L 0.644531 -1.703125 Z M 0.644531 0 "/></g></g></g><g fill="#ffffff" fill-opacity="1"><g transform="translate(198.660085, 307.364862)"><g/></g></g><g fill="#ffffff" fill-opacity="1"><g transform="translate(203.800977, 307.364862)"><g><path d="M 0.371094 -7.257812 L 0.371094 -5.882812 L 1.496094 -5.882812 L 1.496094 0 L 3.035156 0 L 3.035156 -7.257812 Z M 0.371094 -7.257812 "/></g></g></g><g fill="#ffffff" fill-opacity="1"><g transform="translate(210.262001, 307.364862)"><g/></g></g><g fill="#ffffff" fill-opacity="1"><g transform="translate(215.402893, 307.364862)"><g><path d="M 4.375 0.175781 C 6.265625 0.175781 7.746094 -1.089844 8.097656 -2.980469 L 6.425781 -2.980469 C 6.15625 -2.019531 5.378906 -1.40625 4.375 -1.40625 C 3.078125 -1.40625 2.105469 -2.433594 2.105469 -3.808594 C 2.105469 -5.183594 3.078125 -6.21875 4.375 -6.21875 C 5.335938 -6.21875 6.101562 -5.652344 6.417969 -4.757812 L 8.0625 -4.757812 C 7.714844 -6.570312 6.230469 -7.800781 4.375 -7.800781 C 2.128906 -7.800781 0.425781 -6.078125 0.425781 -3.808594 C 0.425781 -1.550781 2.128906 0.175781 4.375 0.175781 Z M 4.375 0.175781 "/></g></g></g><g fill="#ffffff" fill-opacity="1"><g transform="translate(226.347988, 307.364862)"><g><path d="M 5.074219 0 L 6.917969 0 L 5.226562 -2.882812 C 6.078125 -3.296875 6.625 -4.101562 6.625 -5.105469 C 6.625 -6.582031 5.476562 -7.640625 3.949219 -7.640625 L 0.871094 -7.640625 L 0.871094 0 L 2.519531 0 L 2.519531 -2.597656 L 3.578125 -2.597656 Z M 2.519531 -6.109375 L 3.839844 -6.109375 C 4.539062 -6.109375 4.945312 -5.683594 4.945312 -5.117188 C 4.945312 -4.539062 4.539062 -4.125 3.839844 -4.125 L 2.519531 -4.125 Z M 2.519531 -6.109375 "/></g></g></g><g fill="#ffffff" fill-opacity="1"><g transform="translate(236.092963, 307.364862)"><g><path d="M 7.234375 -7.640625 L 5.46875 -7.640625 L 3.699219 -4.574219 L 1.941406 -7.640625 L 0.183594 -7.640625 L 2.847656 -3.089844 L 2.847656 0 L 4.539062 0 L 4.539062 -3.078125 Z M 7.234375 -7.640625 "/></g></g></g><g fill="#ffffff" fill-opacity="1"><g transform="translate(246.034319, 307.364862)"><g><path d="M 3.808594 -7.640625 L 0.871094 -7.640625 L 0.871094 0 L 2.519531 0 L 2.519531 -2.378906 L 3.808594 -2.378906 C 5.347656 -2.378906 6.503906 -3.503906 6.503906 -5.007812 C 6.503906 -6.515625 5.335938 -7.640625 3.808594 -7.640625 Z M 3.730469 -3.90625 L 2.519531 -3.90625 L 2.519531 -6.101562 L 3.730469 -6.101562 C 4.386719 -6.101562 4.835938 -5.640625 4.835938 -5.007812 C 4.835938 -4.375 4.386719 -3.90625 3.730469 -3.90625 Z M 3.730469 -3.90625 "/></g></g></g><g fill="#ffffff" fill-opacity="1"><g transform="translate(255.353803, 307.364862)"><g><path d="M 6.132812 -7.640625 L 0.230469 -7.640625 L 0.230469 -6.101562 L 2.355469 -6.101562 L 2.355469 0 L 4.003906 0 L 4.003906 -6.101562 L 6.132812 -6.101562 Z M 6.132812 -7.640625 "/></g></g></g><g fill="#ffffff" fill-opacity="1"><g transform="translate(264.258702, 307.364862)"><g><path d="M 4.496094 0.175781 C 6.820312 0.175781 8.554688 -1.539062 8.554688 -3.820312 C 8.554688 -6.089844 6.820312 -7.800781 4.496094 -7.800781 C 2.160156 -7.800781 0.414062 -6.078125 0.414062 -3.820312 C 0.414062 -1.550781 2.160156 0.175781 4.496094 0.175781 Z M 4.496094 -1.386719 C 3.132812 -1.386719 2.09375 -2.445312 2.09375 -3.820312 C 2.09375 -5.195312 3.132812 -6.242188 4.496094 -6.242188 C 5.859375 -6.242188 6.875 -5.207031 6.875 -3.820312 C 6.875 -2.433594 5.859375 -1.386719 4.496094 -1.386719 Z M 4.496094 -1.386719 "/></g></g></g><g fill="#ffffff" fill-opacity="1"><g transform="translate(155.038712, 318.614861)"><g><path d="M 3.808594 -7.640625 L 0.871094 -7.640625 L 0.871094 0 L 2.519531 0 L 2.519531 -2.378906 L 3.808594 -2.378906 C 5.347656 -2.378906 6.503906 -3.503906 6.503906 -5.007812 C 6.503906 -6.515625 5.335938 -7.640625 3.808594 -7.640625 Z M 3.730469 -3.90625 L 2.519531 -3.90625 L 2.519531 -6.101562 L 3.730469 -6.101562 C 4.386719 -6.101562 4.835938 -5.640625 4.835938 -5.007812 C 4.835938 -4.375 4.386719 -3.90625 3.730469 -3.90625 Z M 3.730469 -3.90625 "/></g></g></g><g fill="#ffffff" fill-opacity="1"><g transform="translate(164.358199, 318.614861)"><g><path d="M 5.9375 0 L 7.738281 0 L 4.648438 -7.640625 L 3.089844 -7.640625 L 0.0859375 0 L 1.84375 0 L 2.367188 -1.441406 L 5.402344 -1.441406 Z M 3.886719 -5.621094 L 4.890625 -2.882812 L 2.882812 -2.882812 Z M 3.886719 -5.621094 "/></g></g></g><g fill="#ffffff" fill-opacity="1"><g transform="translate(174.72506, 318.614861)"><g><path d="M 5.074219 0 L 6.917969 0 L 5.226562 -2.882812 C 6.078125 -3.296875 6.625 -4.101562 6.625 -5.105469 C 6.625 -6.582031 5.476562 -7.640625 3.949219 -7.640625 L 0.871094 -7.640625 L 0.871094 0 L 2.519531 0 L 2.519531 -2.597656 L 3.578125 -2.597656 Z M 2.519531 -6.109375 L 3.839844 -6.109375 C 4.539062 -6.109375 4.945312 -5.683594 4.945312 -5.117188 C 4.945312 -4.539062 4.539062 -4.125 3.839844 -4.125 L 2.519531 -4.125 Z M 2.519531 -6.109375 "/></g></g></g><g fill="#ffffff" fill-opacity="1"><g transform="translate(184.470039, 318.614861)"><g><path d="M 6.132812 -7.640625 L 0.230469 -7.640625 L 0.230469 -6.101562 L 2.355469 -6.101562 L 2.355469 0 L 4.003906 0 L 4.003906 -6.101562 L 6.132812 -6.101562 Z M 6.132812 -7.640625 "/></g></g></g><g fill="#ffffff" fill-opacity="1"><g transform="translate(193.374941, 318.614861)"><g><path d="M 5.707031 -7.640625 L 5.707031 -2.980469 L 2.355469 -7.640625 L 0.871094 -7.640625 L 0.871094 0 L 2.488281 0 L 2.488281 -4.769531 L 5.949219 0 L 7.332031 0 L 7.332031 -7.640625 Z M 5.707031 -7.640625 "/></g></g></g><g fill="#ffffff" fill-opacity="1"><g transform="translate(204.112748, 318.614861)"><g><path d="M 2.519531 -1.527344 L 2.519531 -3.097656 L 5.171875 -3.097656 L 5.171875 -4.59375 L 2.519531 -4.59375 L 2.519531 -6.109375 L 5.457031 -6.109375 L 5.457031 -7.640625 L 0.871094 -7.640625 L 0.871094 0 L 5.578125 0 L 5.578125 -1.527344 Z M 2.519531 -1.527344 "/></g></g></g><g fill="#ffffff" fill-opacity="1"><g transform="translate(212.744889, 318.614861)"><g><path d="M 5.074219 0 L 6.917969 0 L 5.226562 -2.882812 C 6.078125 -3.296875 6.625 -4.101562 6.625 -5.105469 C 6.625 -6.582031 5.476562 -7.640625 3.949219 -7.640625 L 0.871094 -7.640625 L 0.871094 0 L 2.519531 0 L 2.519531 -2.597656 L 3.578125 -2.597656 Z M 2.519531 -6.109375 L 3.839844 -6.109375 C 4.539062 -6.109375 4.945312 -5.683594 4.945312 -5.117188 C 4.945312 -4.539062 4.539062 -4.125 3.839844 -4.125 L 2.519531 -4.125 Z M 2.519531 -6.109375 "/></g></g></g><g fill="#ffffff" fill-opacity="1"><g transform="translate(102.152342, 274.953484)"><g><path d="M 16.671875 0 L 22.734375 0 L 17.175781 -9.464844 C 19.972656 -10.828125 21.765625 -13.480469 21.765625 -16.78125 C 21.765625 -21.621094 18 -25.101562 12.980469 -25.101562 L 2.867188 -25.101562 L 2.867188 0 L 8.28125 0 L 8.28125 -8.535156 L 11.761719 -8.535156 Z M 8.28125 -20.082031 L 12.621094 -20.082031 C 14.917969 -20.082031 16.242188 -18.683594 16.242188 -16.816406 C 16.242188 -14.917969 14.917969 -13.554688 12.621094 -13.554688 L 8.28125 -13.554688 Z M 8.28125 -20.082031 "/></g></g></g><g fill="#ffffff" fill-opacity="1"><g transform="translate(125.847687, 274.953484)"><g><path d="M 19.507812 0 L 25.421875 0 L 15.273438 -25.101562 L 10.148438 -25.101562 L 0.285156 0 L 6.058594 0 L 7.78125 -4.734375 L 17.75 -4.734375 Z M 12.765625 -18.464844 L 16.0625 -9.464844 L 9.464844 -9.464844 Z M 12.765625 -18.464844 "/></g></g></g><g fill="#ffffff" fill-opacity="1"><g transform="translate(151.586352, 274.953484)"><g><path d="M 16.671875 0 L 22.734375 0 L 17.175781 -9.464844 C 19.972656 -10.828125 21.765625 -13.480469 21.765625 -16.78125 C 21.765625 -21.621094 18 -25.101562 12.980469 -25.101562 L 2.867188 -25.101562 L 2.867188 0 L 8.28125 0 L 8.28125 -8.535156 L 11.761719 -8.535156 Z M 8.28125 -20.082031 L 12.621094 -20.082031 C 14.917969 -20.082031 16.242188 -18.683594 16.242188 -16.816406 C 16.242188 -14.917969 14.917969 -13.554688 12.621094 -13.554688 L 8.28125 -13.554688 Z M 8.28125 -20.082031 "/></g></g></g><g fill="#ffffff" fill-opacity="1"><g transform="translate(175.281697, 274.953484)"><g><path d="M 2.867188 0 L 8.28125 0 L 8.28125 -25.101562 L 2.867188 -25.101562 Z M 2.867188 0 "/></g></g></g><g fill="#ffffff" fill-opacity="1"><g transform="translate(186.466191, 274.953484)"><g/></g></g><g fill="#ffffff" fill-opacity="1"><g transform="translate(195.033798, 274.953484)"><g><path d="M 12.515625 -25.101562 L 2.867188 -25.101562 L 2.867188 0 L 8.28125 0 L 8.28125 -7.816406 L 12.515625 -7.816406 C 17.570312 -7.816406 21.371094 -11.511719 21.371094 -16.457031 C 21.371094 -21.40625 17.535156 -25.101562 12.515625 -25.101562 Z M 12.261719 -12.835938 L 8.28125 -12.835938 L 8.28125 -20.042969 L 12.261719 -20.042969 C 14.414062 -20.042969 15.886719 -18.539062 15.886719 -16.457031 C 15.886719 -14.378906 14.414062 -12.835938 12.261719 -12.835938 Z M 12.261719 -12.835938 "/></g></g></g><g fill="#ffffff" fill-opacity="1"><g transform="translate(217.331076, 274.953484)"><g><path d="M 19.507812 0 L 25.421875 0 L 15.273438 -25.101562 L 10.148438 -25.101562 L 0.285156 0 L 6.058594 0 L 7.78125 -4.734375 L 17.75 -4.734375 Z M 12.765625 -18.464844 L 16.0625 -9.464844 L 9.464844 -9.464844 Z M 12.765625 -18.464844 "/></g></g></g><g fill="#ffffff" fill-opacity="1"><g transform="translate(243.069741, 274.953484)"><g><path d="M 23.773438 -25.101562 L 17.964844 -25.101562 L 12.15625 -15.023438 L 6.382812 -25.101562 L 0.609375 -25.101562 L 9.359375 -10.148438 L 9.359375 0 L 14.917969 0 L 14.917969 -10.113281 Z M 23.773438 -25.101562 "/></g></g></g><g fill="#ffc1b2" fill-opacity="0.302"><g transform="translate(139.077901, 144.660327)"><g><path d="M 13.417969 -0.4375 L 13.121094 -0.675781 C 12.902344 -0.816406 12.710938 -1.003906 12.554688 -1.253906 L 8.183594 -7.445312 C 8.089844 -7.539062 8.058594 -7.664062 8.058594 -7.789062 C 8.058594 -7.914062 8.089844 -8.027344 8.183594 -8.136719 L 12.554688 -14.34375 C 12.710938 -14.546875 12.902344 -14.75 13.136719 -14.9375 L 13.417969 -15.140625 C 13.511719 -15.21875 13.542969 -15.332031 13.496094 -15.457031 C 13.433594 -15.535156 13.355469 -15.582031 13.277344 -15.582031 L 9.203125 -15.582031 C 9.089844 -15.582031 9.011719 -15.535156 8.980469 -15.441406 C 8.933594 -15.347656 8.933594 -15.265625 8.996094 -15.1875 L 9.011719 -15.171875 C 9.105469 -15.046875 9.121094 -14.921875 9.042969 -14.796875 L 5.941406 -10.375 C 5.847656 -10.265625 5.753906 -10.234375 5.628906 -10.265625 C 5.5 -10.296875 5.453125 -10.390625 5.453125 -10.535156 L 5.453125 -14.3125 C 5.453125 -14.625 5.566406 -14.921875 5.800781 -15.171875 C 5.863281 -15.25 5.878906 -15.347656 5.847656 -15.441406 C 5.800781 -15.535156 5.722656 -15.582031 5.628906 -15.582031 L 2.117188 -15.582031 C 2.007812 -15.582031 1.929688 -15.535156 1.898438 -15.441406 C 1.851562 -15.347656 1.867188 -15.265625 1.945312 -15.1875 C 2.210938 -14.890625 2.351562 -14.546875 2.351562 -14.140625 L 2.351562 -1.363281 C 2.351562 -1.003906 2.226562 -0.691406 1.992188 -0.4375 L 1.945312 -0.390625 C 1.882812 -0.296875 1.882812 -0.21875 1.929688 -0.125 C 1.960938 -0.03125 2.039062 0 2.148438 0 L 5.660156 0 C 5.753906 0 5.832031 -0.046875 5.863281 -0.140625 C 5.894531 -0.234375 5.894531 -0.3125 5.832031 -0.390625 C 5.582031 -0.660156 5.453125 -0.972656 5.453125 -1.316406 L 5.453125 -5.0625 C 5.453125 -5.1875 5.5 -5.265625 5.628906 -5.3125 C 5.753906 -5.34375 5.847656 -5.3125 5.941406 -5.203125 L 9.042969 -0.800781 C 9.121094 -0.644531 9.105469 -0.515625 9.011719 -0.421875 L 8.996094 -0.390625 C 8.933594 -0.296875 8.933594 -0.21875 8.980469 -0.125 C 9.011719 -0.03125 9.089844 0 9.203125 0 L 13.277344 0 C 13.371094 0 13.433594 -0.046875 13.496094 -0.140625 C 13.511719 -0.1875 13.511719 -0.234375 13.511719 -0.296875 C 13.496094 -0.359375 13.464844 -0.40625 13.417969 -0.4375 Z M 13.417969 -0.4375 "/></g></g></g><g fill="#ffc1b2" fill-opacity="0.302"><g transform="translate(154.479576, 144.660327)"><g><path d="M 12.886719 -11.726562 L 12.804688 -11.820312 C 12.585938 -12.039062 12.445312 -12.289062 12.351562 -12.570312 C 12.070312 -13.449219 11.488281 -14.171875 10.644531 -14.734375 C 10.171875 -15.03125 9.640625 -15.265625 9.042969 -15.425781 C 8.449219 -15.582031 7.835938 -15.660156 7.179688 -15.660156 C 6.519531 -15.660156 5.878906 -15.566406 5.265625 -15.410156 C 4.65625 -15.25 4.105469 -15.015625 3.621094 -14.71875 C 2.960938 -14.3125 2.476562 -13.824219 2.132812 -13.246094 C 1.785156 -12.664062 1.628906 -12.039062 1.628906 -11.347656 C 1.628906 -10.03125 2.242188 -8.902344 3.496094 -7.980469 C 3.933594 -7.632812 4.40625 -7.351562 4.921875 -7.101562 C 5.4375 -6.851562 5.972656 -6.597656 6.503906 -6.378906 C 6.820312 -6.222656 7.164062 -6.066406 7.507812 -5.910156 C 7.851562 -5.753906 8.167969 -5.582031 8.449219 -5.421875 C 8.730469 -5.25 8.964844 -5.078125 9.152344 -4.90625 C 9.34375 -4.71875 9.4375 -4.546875 9.4375 -4.375 C 9.4375 -4.152344 9.359375 -3.949219 9.203125 -3.792969 C 9.042969 -3.636719 8.839844 -3.496094 8.605469 -3.402344 C 8.371094 -3.308594 8.121094 -3.230469 7.835938 -3.183594 C 7.554688 -3.121094 7.304688 -3.105469 7.054688 -3.105469 C 6.742188 -3.105469 6.425781 -3.136719 6.082031 -3.214844 C 5.738281 -3.277344 5.4375 -3.402344 5.203125 -3.574219 C 5.140625 -3.621094 5.09375 -3.683594 5.09375 -3.761719 C 5.078125 -3.839844 5.09375 -3.902344 5.15625 -3.964844 L 5.171875 -3.980469 C 5.21875 -4.058594 5.21875 -4.136719 5.1875 -4.230469 C 5.140625 -4.328125 5.0625 -4.375 4.96875 -4.375 L 1.503906 -4.375 C 1.394531 -4.375 1.316406 -4.328125 1.285156 -4.230469 C 1.238281 -4.136719 1.238281 -4.058594 1.300781 -3.980469 L 1.363281 -3.917969 C 1.582031 -3.667969 1.722656 -3.402344 1.816406 -3.136719 C 2.101562 -2.226562 2.664062 -1.503906 3.542969 -0.957031 C 4.011719 -0.644531 4.5625 -0.40625 5.15625 -0.25 C 5.753906 -0.078125 6.394531 0 7.054688 0 C 7.835938 0 8.574219 -0.109375 9.25 -0.328125 C 9.921875 -0.546875 10.503906 -0.847656 10.988281 -1.238281 C 11.472656 -1.613281 11.851562 -2.085938 12.132812 -2.617188 C 12.398438 -3.152344 12.539062 -3.730469 12.539062 -4.375 C 12.539062 -5.046875 12.382812 -5.644531 12.085938 -6.144531 C 11.789062 -6.644531 11.410156 -7.085938 10.941406 -7.460938 C 10.472656 -7.835938 9.96875 -8.152344 9.40625 -8.433594 C 8.839844 -8.714844 8.292969 -8.964844 7.757812 -9.21875 C 7.398438 -9.375 7.039062 -9.53125 6.675781 -9.703125 C 6.316406 -9.859375 5.988281 -10.03125 5.707031 -10.21875 C 5.421875 -10.390625 5.1875 -10.582031 5 -10.769531 C 4.8125 -10.957031 4.734375 -11.144531 4.734375 -11.347656 C 4.734375 -11.519531 4.796875 -11.679688 4.953125 -11.835938 C 5.09375 -11.992188 5.28125 -12.117188 5.519531 -12.226562 C 5.738281 -12.320312 6.003906 -12.398438 6.300781 -12.460938 C 6.582031 -12.523438 6.882812 -12.554688 7.179688 -12.554688 C 7.523438 -12.554688 7.867188 -12.507812 8.183594 -12.445312 C 8.496094 -12.367188 8.746094 -12.257812 8.964844 -12.117188 C 9.027344 -12.070312 9.074219 -12.007812 9.074219 -11.929688 C 9.074219 -11.851562 9.058594 -11.789062 9.011719 -11.742188 L 9.011719 -11.726562 C 8.949219 -11.628906 8.949219 -11.550781 8.996094 -11.472656 C 9.027344 -11.378906 9.105469 -11.347656 9.21875 -11.347656 L 12.679688 -11.347656 C 12.773438 -11.347656 12.851562 -11.378906 12.902344 -11.472656 C 12.933594 -11.550781 12.933594 -11.628906 12.886719 -11.726562 Z M 12.886719 -11.726562 "/></g></g></g><g fill="#ffc1b2" fill-opacity="0.302"><g transform="translate(168.659148, 144.660327)"><g><path d="M 13.621094 -0.390625 L 13.589844 -0.40625 C 13.339844 -0.675781 13.230469 -0.988281 13.230469 -1.363281 L 13.230469 -14.21875 C 13.230469 -14.578125 13.339844 -14.890625 13.589844 -15.171875 L 13.621094 -15.1875 C 13.667969 -15.265625 13.667969 -15.347656 13.621094 -15.441406 C 13.574219 -15.535156 13.511719 -15.582031 13.417969 -15.582031 L 9.9375 -15.582031 C 9.84375 -15.582031 9.765625 -15.535156 9.71875 -15.441406 C 9.671875 -15.347656 9.671875 -15.265625 9.734375 -15.1875 L 9.75 -15.1875 C 10 -14.90625 10.125 -14.578125 10.125 -14.234375 L 10.125 -9.859375 C 10.125 -9.703125 10.0625 -9.578125 9.96875 -9.484375 C 9.859375 -9.390625 9.734375 -9.34375 9.59375 -9.34375 L 5.957031 -9.34375 C 5.800781 -9.34375 5.675781 -9.390625 5.582031 -9.484375 C 5.46875 -9.578125 5.421875 -9.703125 5.421875 -9.859375 L 5.421875 -14.25 C 5.421875 -14.59375 5.550781 -14.90625 5.800781 -15.1875 C 5.847656 -15.265625 5.847656 -15.347656 5.816406 -15.441406 C 5.769531 -15.535156 5.691406 -15.582031 5.597656 -15.582031 L 2.132812 -15.582031 C 2.023438 -15.582031 1.945312 -15.535156 1.914062 -15.441406 C 1.867188 -15.347656 1.867188 -15.265625 1.929688 -15.1875 L 1.960938 -15.15625 C 2.195312 -14.890625 2.320312 -14.578125 2.320312 -14.21875 L 2.320312 -1.378906 C 2.320312 -1.003906 2.195312 -0.675781 1.960938 -0.421875 L 1.929688 -0.390625 C 1.867188 -0.296875 1.867188 -0.21875 1.914062 -0.125 C 1.945312 -0.03125 2.023438 0 2.132812 0 L 5.597656 0 C 5.691406 0 5.769531 -0.03125 5.816406 -0.125 C 5.847656 -0.21875 5.847656 -0.296875 5.800781 -0.390625 C 5.550781 -0.675781 5.421875 -0.988281 5.421875 -1.347656 L 5.421875 -5.722656 C 5.421875 -5.863281 5.46875 -5.988281 5.582031 -6.082031 C 5.675781 -6.175781 5.800781 -6.238281 5.957031 -6.238281 L 9.59375 -6.238281 C 9.734375 -6.238281 9.859375 -6.175781 9.96875 -6.082031 C 10.0625 -5.988281 10.125 -5.863281 10.125 -5.722656 L 10.125 -1.347656 C 10.125 -0.988281 10 -0.675781 9.75 -0.40625 L 9.734375 -0.390625 C 9.671875 -0.296875 9.671875 -0.21875 9.71875 -0.125 C 9.765625 -0.03125 9.84375 0 9.9375 0 L 13.417969 0 C 13.511719 0 13.574219 -0.03125 13.621094 -0.125 C 13.667969 -0.21875 13.667969 -0.296875 13.621094 -0.390625 Z M 13.621094 -0.390625 "/></g></g></g><g fill="#ffc1b2" fill-opacity="0.502"><g transform="translate(139.492847, 144.83646)"><g><path d="M 13.417969 -0.4375 L 13.121094 -0.675781 C 12.902344 -0.816406 12.710938 -1.003906 12.554688 -1.253906 L 8.183594 -7.445312 C 8.089844 -7.539062 8.058594 -7.664062 8.058594 -7.789062 C 8.058594 -7.914062 8.089844 -8.027344 8.183594 -8.136719 L 12.554688 -14.34375 C 12.710938 -14.546875 12.902344 -14.75 13.136719 -14.9375 L 13.417969 -15.140625 C 13.511719 -15.21875 13.542969 -15.332031 13.496094 -15.457031 C 13.433594 -15.535156 13.355469 -15.582031 13.277344 -15.582031 L 9.203125 -15.582031 C 9.089844 -15.582031 9.011719 -15.535156 8.980469 -15.441406 C 8.933594 -15.347656 8.933594 -15.265625 8.996094 -15.1875 L 9.011719 -15.171875 C 9.105469 -15.046875 9.121094 -14.921875 9.042969 -14.796875 L 5.941406 -10.375 C 5.847656 -10.265625 5.753906 -10.234375 5.628906 -10.265625 C 5.5 -10.296875 5.453125 -10.390625 5.453125 -10.535156 L 5.453125 -14.3125 C 5.453125 -14.625 5.566406 -14.921875 5.800781 -15.171875 C 5.863281 -15.25 5.878906 -15.347656 5.847656 -15.441406 C 5.800781 -15.535156 5.722656 -15.582031 5.628906 -15.582031 L 2.117188 -15.582031 C 2.007812 -15.582031 1.929688 -15.535156 1.898438 -15.441406 C 1.851562 -15.347656 1.867188 -15.265625 1.945312 -15.1875 C 2.210938 -14.890625 2.351562 -14.546875 2.351562 -14.140625 L 2.351562 -1.363281 C 2.351562 -1.003906 2.226562 -0.691406 1.992188 -0.4375 L 1.945312 -0.390625 C 1.882812 -0.296875 1.882812 -0.21875 1.929688 -0.125 C 1.960938 -0.03125 2.039062 0 2.148438 0 L 5.660156 0 C 5.753906 0 5.832031 -0.046875 5.863281 -0.140625 C 5.894531 -0.234375 5.894531 -0.3125 5.832031 -0.390625 C 5.582031 -0.660156 5.453125 -0.972656 5.453125 -1.316406 L 5.453125 -5.0625 C 5.453125 -5.1875 5.5 -5.265625 5.628906 -5.3125 C 5.753906 -5.34375 5.847656 -5.3125 5.941406 -5.203125 L 9.042969 -0.800781 C 9.121094 -0.644531 9.105469 -0.515625 9.011719 -0.421875 L 8.996094 -0.390625 C 8.933594 -0.296875 8.933594 -0.21875 8.980469 -0.125 C 9.011719 -0.03125 9.089844 0 9.203125 0 L 13.277344 0 C 13.371094 0 13.433594 -0.046875 13.496094 -0.140625 C 13.511719 -0.1875 13.511719 -0.234375 13.511719 -0.296875 C 13.496094 -0.359375 13.464844 -0.40625 13.417969 -0.4375 Z M 13.417969 -0.4375 "/></g></g></g><g fill="#ffc1b2" fill-opacity="0.502"><g transform="translate(154.894522, 144.83646)"><g><path d="M 12.886719 -11.726562 L 12.804688 -11.820312 C 12.585938 -12.039062 12.445312 -12.289062 12.351562 -12.570312 C 12.070312 -13.449219 11.488281 -14.171875 10.644531 -14.734375 C 10.171875 -15.03125 9.640625 -15.265625 9.042969 -15.425781 C 8.449219 -15.582031 7.835938 -15.660156 7.179688 -15.660156 C 6.519531 -15.660156 5.878906 -15.566406 5.265625 -15.410156 C 4.65625 -15.25 4.105469 -15.015625 3.621094 -14.71875 C 2.960938 -14.3125 2.476562 -13.824219 2.132812 -13.246094 C 1.785156 -12.664062 1.628906 -12.039062 1.628906 -11.347656 C 1.628906 -10.03125 2.242188 -8.902344 3.496094 -7.980469 C 3.933594 -7.632812 4.40625 -7.351562 4.921875 -7.101562 C 5.4375 -6.851562 5.972656 -6.597656 6.503906 -6.378906 C 6.820312 -6.222656 7.164062 -6.066406 7.507812 -5.910156 C 7.851562 -5.753906 8.167969 -5.582031 8.449219 -5.421875 C 8.730469 -5.25 8.964844 -5.078125 9.152344 -4.90625 C 9.34375 -4.71875 9.4375 -4.546875 9.4375 -4.375 C 9.4375 -4.152344 9.359375 -3.949219 9.203125 -3.792969 C 9.042969 -3.636719 8.839844 -3.496094 8.605469 -3.402344 C 8.371094 -3.308594 8.121094 -3.230469 7.835938 -3.183594 C 7.554688 -3.121094 7.304688 -3.105469 7.054688 -3.105469 C 6.742188 -3.105469 6.425781 -3.136719 6.082031 -3.214844 C 5.738281 -3.277344 5.4375 -3.402344 5.203125 -3.574219 C 5.140625 -3.621094 5.09375 -3.683594 5.09375 -3.761719 C 5.078125 -3.839844 5.09375 -3.902344 5.15625 -3.964844 L 5.171875 -3.980469 C 5.21875 -4.058594 5.21875 -4.136719 5.1875 -4.230469 C 5.140625 -4.328125 5.0625 -4.375 4.96875 -4.375 L 1.503906 -4.375 C 1.394531 -4.375 1.316406 -4.328125 1.285156 -4.230469 C 1.238281 -4.136719 1.238281 -4.058594 1.300781 -3.980469 L 1.363281 -3.917969 C 1.582031 -3.667969 1.722656 -3.402344 1.816406 -3.136719 C 2.101562 -2.226562 2.664062 -1.503906 3.542969 -0.957031 C 4.011719 -0.644531 4.5625 -0.40625 5.15625 -0.25 C 5.753906 -0.078125 6.394531 0 7.054688 0 C 7.835938 0 8.574219 -0.109375 9.25 -0.328125 C 9.921875 -0.546875 10.503906 -0.847656 10.988281 -1.238281 C 11.472656 -1.613281 11.851562 -2.085938 12.132812 -2.617188 C 12.398438 -3.152344 12.539062 -3.730469 12.539062 -4.375 C 12.539062 -5.046875 12.382812 -5.644531 12.085938 -6.144531 C 11.789062 -6.644531 11.410156 -7.085938 10.941406 -7.460938 C 10.472656 -7.835938 9.96875 -8.152344 9.40625 -8.433594 C 8.839844 -8.714844 8.292969 -8.964844 7.757812 -9.21875 C 7.398438 -9.375 7.039062 -9.53125 6.675781 -9.703125 C 6.316406 -9.859375 5.988281 -10.03125 5.707031 -10.21875 C 5.421875 -10.390625 5.1875 -10.582031 5 -10.769531 C 4.8125 -10.957031 4.734375 -11.144531 4.734375 -11.347656 C 4.734375 -11.519531 4.796875 -11.679688 4.953125 -11.835938 C 5.09375 -11.992188 5.28125 -12.117188 5.519531 -12.226562 C 5.738281 -12.320312 6.003906 -12.398438 6.300781 -12.460938 C 6.582031 -12.523438 6.882812 -12.554688 7.179688 -12.554688 C 7.523438 -12.554688 7.867188 -12.507812 8.183594 -12.445312 C 8.496094 -12.367188 8.746094 -12.257812 8.964844 -12.117188 C 9.027344 -12.070312 9.074219 -12.007812 9.074219 -11.929688 C 9.074219 -11.851562 9.058594 -11.789062 9.011719 -11.742188 L 9.011719 -11.726562 C 8.949219 -11.628906 8.949219 -11.550781 8.996094 -11.472656 C 9.027344 -11.378906 9.105469 -11.347656 9.21875 -11.347656 L 12.679688 -11.347656 C 12.773438 -11.347656 12.851562 -11.378906 12.902344 -11.472656 C 12.933594 -11.550781 12.933594 -11.628906 12.886719 -11.726562 Z M 12.886719 -11.726562 "/></g></g></g><g fill="#ffc1b2" fill-opacity="0.502"><g transform="translate(169.074094, 144.83646)"><g><path d="M 13.621094 -0.390625 L 13.589844 -0.40625 C 13.339844 -0.675781 13.230469 -0.988281 13.230469 -1.363281 L 13.230469 -14.21875 C 13.230469 -14.578125 13.339844 -14.890625 13.589844 -15.171875 L 13.621094 -15.1875 C 13.667969 -15.265625 13.667969 -15.347656 13.621094 -15.441406 C 13.574219 -15.535156 13.511719 -15.582031 13.417969 -15.582031 L 9.9375 -15.582031 C 9.84375 -15.582031 9.765625 -15.535156 9.71875 -15.441406 C 9.671875 -15.347656 9.671875 -15.265625 9.734375 -15.1875 L 9.75 -15.1875 C 10 -14.90625 10.125 -14.578125 10.125 -14.234375 L 10.125 -9.859375 C 10.125 -9.703125 10.0625 -9.578125 9.96875 -9.484375 C 9.859375 -9.390625 9.734375 -9.34375 9.59375 -9.34375 L 5.957031 -9.34375 C 5.800781 -9.34375 5.675781 -9.390625 5.582031 -9.484375 C 5.46875 -9.578125 5.421875 -9.703125 5.421875 -9.859375 L 5.421875 -14.25 C 5.421875 -14.59375 5.550781 -14.90625 5.800781 -15.1875 C 5.847656 -15.265625 5.847656 -15.347656 5.816406 -15.441406 C 5.769531 -15.535156 5.691406 -15.582031 5.597656 -15.582031 L 2.132812 -15.582031 C 2.023438 -15.582031 1.945312 -15.535156 1.914062 -15.441406 C 1.867188 -15.347656 1.867188 -15.265625 1.929688 -15.1875 L 1.960938 -15.15625 C 2.195312 -14.890625 2.320312 -14.578125 2.320312 -14.21875 L 2.320312 -1.378906 C 2.320312 -1.003906 2.195312 -0.675781 1.960938 -0.421875 L 1.929688 -0.390625 C 1.867188 -0.296875 1.867188 -0.21875 1.914062 -0.125 C 1.945312 -0.03125 2.023438 0 2.132812 0 L 5.597656 0 C 5.691406 0 5.769531 -0.03125 5.816406 -0.125 C 5.847656 -0.21875 5.847656 -0.296875 5.800781 -0.390625 C 5.550781 -0.675781 5.421875 -0.988281 5.421875 -1.347656 L 5.421875 -5.722656 C 5.421875 -5.863281 5.46875 -5.988281 5.582031 -6.082031 C 5.675781 -6.175781 5.800781 -6.238281 5.957031 -6.238281 L 9.59375 -6.238281 C 9.734375 -6.238281 9.859375 -6.175781 9.96875 -6.082031 C 10.0625 -5.988281 10.125 -5.863281 10.125 -5.722656 L 10.125 -1.347656 C 10.125 -0.988281 10 -0.675781 9.75 -0.40625 L 9.734375 -0.390625 C 9.671875 -0.296875 9.671875 -0.21875 9.71875 -0.125 C 9.765625 -0.03125 9.84375 0 9.9375 0 L 13.417969 0 C 13.511719 0 13.574219 -0.03125 13.621094 -0.125 C 13.667969 -0.21875 13.667969 -0.296875 13.621094 -0.390625 Z M 13.621094 -0.390625 "/></g></g></g><g fill="#fffaef" fill-opacity="1"><g transform="translate(139.907778, 145.012594)"><g><path d="M 13.417969 -0.4375 L 13.121094 -0.675781 C 12.902344 -0.816406 12.710938 -1.003906 12.554688 -1.253906 L 8.183594 -7.445312 C 8.089844 -7.539062 8.058594 -7.664062 8.058594 -7.789062 C 8.058594 -7.914062 8.089844 -8.027344 8.183594 -8.136719 L 12.554688 -14.34375 C 12.710938 -14.546875 12.902344 -14.75 13.136719 -14.9375 L 13.417969 -15.140625 C 13.511719 -15.21875 13.542969 -15.332031 13.496094 -15.457031 C 13.433594 -15.535156 13.355469 -15.582031 13.277344 -15.582031 L 9.203125 -15.582031 C 9.089844 -15.582031 9.011719 -15.535156 8.980469 -15.441406 C 8.933594 -15.347656 8.933594 -15.265625 8.996094 -15.1875 L 9.011719 -15.171875 C 9.105469 -15.046875 9.121094 -14.921875 9.042969 -14.796875 L 5.941406 -10.375 C 5.847656 -10.265625 5.753906 -10.234375 5.628906 -10.265625 C 5.5 -10.296875 5.453125 -10.390625 5.453125 -10.535156 L 5.453125 -14.3125 C 5.453125 -14.625 5.566406 -14.921875 5.800781 -15.171875 C 5.863281 -15.25 5.878906 -15.347656 5.847656 -15.441406 C 5.800781 -15.535156 5.722656 -15.582031 5.628906 -15.582031 L 2.117188 -15.582031 C 2.007812 -15.582031 1.929688 -15.535156 1.898438 -15.441406 C 1.851562 -15.347656 1.867188 -15.265625 1.945312 -15.1875 C 2.210938 -14.890625 2.351562 -14.546875 2.351562 -14.140625 L 2.351562 -1.363281 C 2.351562 -1.003906 2.226562 -0.691406 1.992188 -0.4375 L 1.945312 -0.390625 C 1.882812 -0.296875 1.882812 -0.21875 1.929688 -0.125 C 1.960938 -0.03125 2.039062 0 2.148438 0 L 5.660156 0 C 5.753906 0 5.832031 -0.046875 5.863281 -0.140625 C 5.894531 -0.234375 5.894531 -0.3125 5.832031 -0.390625 C 5.582031 -0.660156 5.453125 -0.972656 5.453125 -1.316406 L 5.453125 -5.0625 C 5.453125 -5.1875 5.5 -5.265625 5.628906 -5.3125 C 5.753906 -5.34375 5.847656 -5.3125 5.941406 -5.203125 L 9.042969 -0.800781 C 9.121094 -0.644531 9.105469 -0.515625 9.011719 -0.421875 L 8.996094 -0.390625 C 8.933594 -0.296875 8.933594 -0.21875 8.980469 -0.125 C 9.011719 -0.03125 9.089844 0 9.203125 0 L 13.277344 0 C 13.371094 0 13.433594 -0.046875 13.496094 -0.140625 C 13.511719 -0.1875 13.511719 -0.234375 13.511719 -0.296875 C 13.496094 -0.359375 13.464844 -0.40625 13.417969 -0.4375 Z M 13.417969 -0.4375 "/></g></g></g><g fill="#fffaef" fill-opacity="1"><g transform="translate(155.309453, 145.012594)"><g><path d="M 12.886719 -11.726562 L 12.804688 -11.820312 C 12.585938 -12.039062 12.445312 -12.289062 12.351562 -12.570312 C 12.070312 -13.449219 11.488281 -14.171875 10.644531 -14.734375 C 10.171875 -15.03125 9.640625 -15.265625 9.042969 -15.425781 C 8.449219 -15.582031 7.835938 -15.660156 7.179688 -15.660156 C 6.519531 -15.660156 5.878906 -15.566406 5.265625 -15.410156 C 4.65625 -15.25 4.105469 -15.015625 3.621094 -14.71875 C 2.960938 -14.3125 2.476562 -13.824219 2.132812 -13.246094 C 1.785156 -12.664062 1.628906 -12.039062 1.628906 -11.347656 C 1.628906 -10.03125 2.242188 -8.902344 3.496094 -7.980469 C 3.933594 -7.632812 4.40625 -7.351562 4.921875 -7.101562 C 5.4375 -6.851562 5.972656 -6.597656 6.503906 -6.378906 C 6.820312 -6.222656 7.164062 -6.066406 7.507812 -5.910156 C 7.851562 -5.753906 8.167969 -5.582031 8.449219 -5.421875 C 8.730469 -5.25 8.964844 -5.078125 9.152344 -4.90625 C 9.34375 -4.71875 9.4375 -4.546875 9.4375 -4.375 C 9.4375 -4.152344 9.359375 -3.949219 9.203125 -3.792969 C 9.042969 -3.636719 8.839844 -3.496094 8.605469 -3.402344 C 8.371094 -3.308594 8.121094 -3.230469 7.835938 -3.183594 C 7.554688 -3.121094 7.304688 -3.105469 7.054688 -3.105469 C 6.742188 -3.105469 6.425781 -3.136719 6.082031 -3.214844 C 5.738281 -3.277344 5.4375 -3.402344 5.203125 -3.574219 C 5.140625 -3.621094 5.09375 -3.683594 5.09375 -3.761719 C 5.078125 -3.839844 5.09375 -3.902344 5.15625 -3.964844 L 5.171875 -3.980469 C 5.21875 -4.058594 5.21875 -4.136719 5.1875 -4.230469 C 5.140625 -4.328125 5.0625 -4.375 4.96875 -4.375 L 1.503906 -4.375 C 1.394531 -4.375 1.316406 -4.328125 1.285156 -4.230469 C 1.238281 -4.136719 1.238281 -4.058594 1.300781 -3.980469 L 1.363281 -3.917969 C 1.582031 -3.667969 1.722656 -3.402344 1.816406 -3.136719 C 2.101562 -2.226562 2.664062 -1.503906 3.542969 -0.957031 C 4.011719 -0.644531 4.5625 -0.40625 5.15625 -0.25 C 5.753906 -0.078125 6.394531 0 7.054688 0 C 7.835938 0 8.574219 -0.109375 9.25 -0.328125 C 9.921875 -0.546875 10.503906 -0.847656 10.988281 -1.238281 C 11.472656 -1.613281 11.851562 -2.085938 12.132812 -2.617188 C 12.398438 -3.152344 12.539062 -3.730469 12.539062 -4.375 C 12.539062 -5.046875 12.382812 -5.644531 12.085938 -6.144531 C 11.789062 -6.644531 11.410156 -7.085938 10.941406 -7.460938 C 10.472656 -7.835938 9.96875 -8.152344 9.40625 -8.433594 C 8.839844 -8.714844 8.292969 -8.964844 7.757812 -9.21875 C 7.398438 -9.375 7.039062 -9.53125 6.675781 -9.703125 C 6.316406 -9.859375 5.988281 -10.03125 5.707031 -10.21875 C 5.421875 -10.390625 5.1875 -10.582031 5 -10.769531 C 4.8125 -10.957031 4.734375 -11.144531 4.734375 -11.347656 C 4.734375 -11.519531 4.796875 -11.679688 4.953125 -11.835938 C 5.09375 -11.992188 5.28125 -12.117188 5.519531 -12.226562 C 5.738281 -12.320312 6.003906 -12.398438 6.300781 -12.460938 C 6.582031 -12.523438 6.882812 -12.554688 7.179688 -12.554688 C 7.523438 -12.554688 7.867188 -12.507812 8.183594 -12.445312 C 8.496094 -12.367188 8.746094 -12.257812 8.964844 -12.117188 C 9.027344 -12.070312 9.074219 -12.007812 9.074219 -11.929688 C 9.074219 -11.851562 9.058594 -11.789062 9.011719 -11.742188 L 9.011719 -11.726562 C 8.949219 -11.628906 8.949219 -11.550781 8.996094 -11.472656 C 9.027344 -11.378906 9.105469 -11.347656 9.21875 -11.347656 L 12.679688 -11.347656 C 12.773438 -11.347656 12.851562 -11.378906 12.902344 -11.472656 C 12.933594 -11.550781 12.933594 -11.628906 12.886719 -11.726562 Z M 12.886719 -11.726562 "/></g></g></g><g fill="#fffaef" fill-opacity="1"><g transform="translate(169.489025, 145.012594)"><g><path d="M 13.621094 -0.390625 L 13.589844 -0.40625 C 13.339844 -0.675781 13.230469 -0.988281 13.230469 -1.363281 L 13.230469 -14.21875 C 13.230469 -14.578125 13.339844 -14.890625 13.589844 -15.171875 L 13.621094 -15.1875 C 13.667969 -15.265625 13.667969 -15.347656 13.621094 -15.441406 C 13.574219 -15.535156 13.511719 -15.582031 13.417969 -15.582031 L 9.9375 -15.582031 C 9.84375 -15.582031 9.765625 -15.535156 9.71875 -15.441406 C 9.671875 -15.347656 9.671875 -15.265625 9.734375 -15.1875 L 9.75 -15.1875 C 10 -14.90625 10.125 -14.578125 10.125 -14.234375 L 10.125 -9.859375 C 10.125 -9.703125 10.0625 -9.578125 9.96875 -9.484375 C 9.859375 -9.390625 9.734375 -9.34375 9.59375 -9.34375 L 5.957031 -9.34375 C 5.800781 -9.34375 5.675781 -9.390625 5.582031 -9.484375 C 5.46875 -9.578125 5.421875 -9.703125 5.421875 -9.859375 L 5.421875 -14.25 C 5.421875 -14.59375 5.550781 -14.90625 5.800781 -15.1875 C 5.847656 -15.265625 5.847656 -15.347656 5.816406 -15.441406 C 5.769531 -15.535156 5.691406 -15.582031 5.597656 -15.582031 L 2.132812 -15.582031 C 2.023438 -15.582031 1.945312 -15.535156 1.914062 -15.441406 C 1.867188 -15.347656 1.867188 -15.265625 1.929688 -15.1875 L 1.960938 -15.15625 C 2.195312 -14.890625 2.320312 -14.578125 2.320312 -14.21875 L 2.320312 -1.378906 C 2.320312 -1.003906 2.195312 -0.675781 1.960938 -0.421875 L 1.929688 -0.390625 C 1.867188 -0.296875 1.867188 -0.21875 1.914062 -0.125 C 1.945312 -0.03125 2.023438 0 2.132812 0 L 5.597656 0 C 5.691406 0 5.769531 -0.03125 5.816406 -0.125 C 5.847656 -0.21875 5.847656 -0.296875 5.800781 -0.390625 C 5.550781 -0.675781 5.421875 -0.988281 5.421875 -1.347656 L 5.421875 -5.722656 C 5.421875 -5.863281 5.46875 -5.988281 5.582031 -6.082031 C 5.675781 -6.175781 5.800781 -6.238281 5.957031 -6.238281 L 9.59375 -6.238281 C 9.734375 -6.238281 9.859375 -6.175781 9.96875 -6.082031 C 10.0625 -5.988281 10.125 -5.863281 10.125 -5.722656 L 10.125 -1.347656 C 10.125 -0.988281 10 -0.675781 9.75 -0.40625 L 9.734375 -0.390625 C 9.671875 -0.296875 9.671875 -0.21875 9.71875 -0.125 C 9.765625 -0.03125 9.84375 0 9.9375 0 L 13.417969 0 C 13.511719 0 13.574219 -0.03125 13.621094 -0.125 C 13.667969 -0.21875 13.667969 -0.296875 13.621094 -0.390625 Z M 13.621094 -0.390625 "/></g></g></g></svg>