<?xml version="1.0" encoding="UTF-8"?>
<svg width="286" height="241" viewBox="0 0 286 241" fill="none" xmlns="http://www.w3.org/2000/svg">
<g id="illustration/crypto/mobile">
<g id="Group 6">
<path id="Oval" d="M143 240.4C221.977 240.4 286 235.251 286 228.9C286 222.549 221.977 217.4 143 217.4C64.0233 217.4 0 222.549 0 228.9C0 235.251 64.0233 240.4 143 240.4Z" fill="#E0E9F8"/>
<g id="Group 7">
<path id="Fill 85" fill-rule="evenodd" clip-rule="evenodd" d="M181 223.82C181.414 224.176 181.867 224.489 182.363 224.747C183.677 225.45 185.184 225.632 186.707 225.632C187.373 225.632 188.042 225.597 188.698 225.555C193.954 225.152 199.345 224.276 203.927 221.647C208.509 219.019 212.216 214.437 212.62 209.181C212.755 207.361 212.553 205.542 213.092 203.857C215.518 196.243 229.264 198.466 232.162 191.054C233.779 187.011 231.084 182.227 232.768 178.251C233.846 175.758 236.474 174.208 238.226 172.119C240.45 169.357 241.191 165.313 239.574 162.213C238.367 159.9 235.735 158.337 233.16 158.337C232.284 158.337 231.415 158.518 230.612 158.912C226.569 160.799 225.423 166.458 221.38 168.211C220.143 168.752 218.778 168.84 217.389 168.84C217.057 168.84 216.723 168.834 216.389 168.83C216.055 168.825 215.722 168.82 215.389 168.82C214.518 168.82 213.658 168.859 212.834 169.02C212.119 169.384 211.361 169.701 210.564 169.946C208.132 171.632 207.435 174.939 206.059 177.687C208.598 177.088 211.854 177.084 215.854 178.52C215.854 178.52 207.946 185.433 200.235 182.294C197.283 187.882 193.652 193.088 189.237 197.658C188.193 198.722 187.091 199.801 185.935 200.848V213.022C185.939 213.477 185.917 213.925 185.877 214.37C185.873 214.419 185.871 214.469 185.867 214.518C185.825 214.939 185.762 215.353 185.684 215.762C185.672 215.829 185.66 215.896 185.646 215.963C185.563 216.363 185.464 216.756 185.348 217.142C185.328 217.208 185.307 217.275 185.286 217.342C185.164 217.729 185.028 218.11 184.873 218.483C184.851 218.535 184.827 218.586 184.805 218.639C184.64 219.023 184.463 219.4 184.265 219.766C184.254 219.787 184.242 219.807 184.23 219.828C184.031 220.194 183.815 220.55 183.584 220.896C183.567 220.923 183.55 220.951 183.532 220.978C183.302 221.318 183.056 221.644 182.798 221.963C182.76 222.009 182.724 222.057 182.685 222.103C182.432 222.408 182.165 222.702 181.887 222.985C181.839 223.033 181.79 223.082 181.742 223.131C181.501 223.368 181.256 223.6 181 223.82Z" fill="#C5D6F1"/>
<path id="Fill 87" fill-rule="evenodd" clip-rule="evenodd" d="M198.566 182.428C197.126 182.578 195.638 182.64 194.224 182.901C190.921 183.508 187.35 186.674 188.9 189.639C187.849 189.871 186.861 190.134 185.936 190.425V198.725C191.134 194.055 195.291 188.519 198.566 182.428Z" fill="#C5D6F1"/>
<path id="Fill 110" fill-rule="evenodd" clip-rule="evenodd" d="M189.237 197.658C193.652 193.088 197.283 187.881 200.234 182.294C207.946 185.433 215.854 178.521 215.854 178.521C211.853 177.084 208.598 177.089 206.059 177.687C204.156 178.137 202.654 178.918 201.55 179.684C203.008 176.652 204.276 173.522 205.366 170.329C207.22 170.634 208.968 170.437 210.564 169.946C211.36 169.701 212.119 169.384 212.835 169.02C217.027 166.883 219.719 163.157 219.762 163.157C212.731 162.318 208.591 164.912 206.383 167.165C206.944 165.303 207.455 163.427 207.903 161.539C208.266 159.991 208.591 158.437 208.884 156.879C217.451 156.485 221.58 146.513 221.515 146.513C214.451 147.355 211.046 150.875 209.445 153.584C209.999 150.053 210.389 146.5 210.634 142.937C219.11 142.654 223.132 132.765 223.132 132.765C215.392 133.66 212.11 137.85 210.777 140.567C211.022 135.832 211.029 131.083 210.86 126.34C214.312 119.148 208.51 111.064 208.51 111C204.641 119.15 207.641 124.571 209.261 126.668C209.329 128.524 209.367 130.403 209.368 132.302C207.023 126.334 200.074 123.412 200.019 123.466C201.06 132.949 207.093 135.788 209.31 136.518C209.221 139.759 209.033 143.035 208.713 146.319C206.618 139.956 199.199 136.877 199.143 136.877C200.166 146.19 206.002 149.093 208.309 149.885C207.916 153.009 207.404 156.127 206.759 159.212C205.273 152.474 197.862 148.746 197.862 148.804C198.185 158.172 203.796 161.472 206.04 162.421C205.196 165.906 204.169 169.332 202.943 172.66C201.957 165.405 193.886 161.338 193.886 161.338C194.209 170.695 199.808 173.999 202.057 174.952C201.024 177.518 199.864 180.015 198.566 182.428C195.29 188.519 191.134 194.055 185.936 198.724V200.848C187.091 199.801 188.193 198.722 189.237 197.658Z" fill="#99B9EE"/>
</g>
<g id="Group 7_2">
<path id="Fill 85_2" fill-rule="evenodd" clip-rule="evenodd" d="M105 223.82C104.586 224.176 104.133 224.489 103.637 224.747C102.323 225.45 100.816 225.632 99.2931 225.632C98.6274 225.632 97.9582 225.597 97.3019 225.555C92.0458 225.152 86.655 224.276 82.0735 221.647C77.4906 219.019 73.7844 214.437 73.3801 209.181C73.2453 207.361 73.4474 205.542 72.9084 203.857C70.4825 196.243 56.7359 198.466 53.8383 191.054C52.221 187.011 54.9164 182.227 53.2318 178.251C52.1536 175.758 49.5256 174.208 47.7736 172.119C45.5499 169.357 44.8086 165.313 46.4259 162.213C47.6328 159.9 50.2648 158.337 52.8403 158.337C53.7156 158.337 54.5849 158.518 55.3881 158.912C59.4313 160.799 60.5768 166.458 64.6199 168.211C65.8571 168.752 67.2224 168.84 68.6105 168.84C68.9434 168.84 69.277 168.834 69.6105 168.83C69.9454 168.825 70.2783 168.82 70.6105 168.82C71.4825 168.82 72.3423 168.859 73.1658 169.02C73.8807 169.384 74.6395 169.701 75.436 169.946C77.8679 171.632 78.5654 174.939 79.9407 177.687C77.4016 177.088 74.1462 177.084 70.1456 178.52C70.1456 178.52 78.0539 185.433 85.7655 182.294C88.717 187.882 92.3484 193.088 96.7628 197.658C97.8066 198.722 98.909 199.801 100.065 200.848V213.022C100.061 213.477 100.083 213.925 100.123 214.37C100.127 214.419 100.129 214.469 100.133 214.518C100.175 214.939 100.238 215.353 100.316 215.762C100.328 215.829 100.34 215.896 100.354 215.963C100.437 216.363 100.536 216.756 100.652 217.142C100.672 217.208 100.693 217.275 100.714 217.342C100.836 217.729 100.972 218.11 101.127 218.483C101.149 218.535 101.173 218.586 101.195 218.639C101.36 219.023 101.537 219.4 101.735 219.766C101.746 219.787 101.758 219.807 101.77 219.828C101.969 220.194 102.185 220.55 102.416 220.896C102.433 220.923 102.45 220.951 102.468 220.978C102.698 221.318 102.944 221.644 103.202 221.963C103.24 222.009 103.276 222.057 103.315 222.103C103.568 222.408 103.835 222.702 104.113 222.985C104.161 223.033 104.21 223.082 104.258 223.131C104.499 223.368 104.744 223.6 105 223.82Z" fill="#C5D6F1"/>
<path id="Fill 87_2" fill-rule="evenodd" clip-rule="evenodd" d="M87.4337 182.428C88.8744 182.578 90.3623 182.64 91.776 182.901C95.0786 183.508 98.65 186.674 97.1002 189.639C98.1507 189.871 99.1393 190.134 100.064 190.425V198.725C94.8657 194.055 90.7093 188.519 87.4337 182.428Z" fill="#C5D6F1"/>
<path id="Fill 110_2" fill-rule="evenodd" clip-rule="evenodd" d="M96.7631 197.658C92.348 193.088 88.7173 187.881 85.7658 182.294C78.0536 185.433 70.1459 178.521 70.1459 178.521C74.1465 177.084 77.4019 177.089 79.941 177.687C81.844 178.137 83.346 178.918 84.4504 179.684C82.9916 176.652 81.724 173.522 80.6344 170.329C78.78 170.634 77.032 170.437 75.4363 169.946C74.6398 169.701 73.881 169.384 73.1654 169.02C68.9734 166.883 66.2806 163.157 66.2375 163.157C73.2685 162.318 77.4093 164.912 79.6169 167.165C79.0556 165.303 78.5455 163.427 78.0973 161.539C77.7341 159.991 77.4087 158.437 77.1162 156.879C68.5488 156.485 64.4201 146.513 64.4855 146.513C71.5488 147.355 74.9545 150.875 76.5549 153.584C76.001 150.053 75.6108 146.5 75.3655 142.937C66.8905 142.654 62.8682 132.765 62.8682 132.765C70.6081 133.66 73.8898 137.85 75.2234 140.567C74.9781 135.832 74.9713 131.083 75.1398 126.34C71.6883 119.148 77.4902 111.064 77.4902 111C81.3595 119.15 78.3595 124.571 76.7389 126.668C76.6708 128.524 76.6331 130.403 76.6317 132.302C78.9774 126.334 85.9262 123.412 85.9814 123.466C84.9397 132.949 78.9066 135.788 76.6903 136.518C76.7786 139.759 76.9673 143.035 77.2874 146.319C79.3824 139.956 86.8009 136.877 86.8575 136.877C85.8339 146.19 79.9983 149.093 77.691 149.885C78.0839 153.009 78.596 156.127 79.2409 159.212C80.7267 152.474 88.1378 148.746 88.1378 148.804C87.815 158.172 82.2045 161.472 79.9599 162.421C80.8035 165.906 81.8312 169.332 83.0569 172.66C84.0434 165.405 92.1135 161.338 92.1135 161.338C91.7907 170.695 86.1917 173.999 83.943 174.952C84.9761 177.518 86.1358 180.015 87.4336 182.428C90.7099 188.519 94.8662 194.055 100.064 198.724V200.848C98.9093 199.801 97.8069 198.722 96.7631 197.658Z" fill="#99B9EE"/>
</g>
<g id="Group 3">
<g id="pinterest">
<g id="Background">
<g id="Backgriund">
<path id="Path" d="M186.429 213.083V62.7847C186.427 55.7921 180.759 50.1237 173.766 50.1223H111.254C104.261 50.1235 98.593 55.7921 98.5917 62.7847V215.177C98.5905 222.168 104.258 227.838 111.25 227.839C111.251 227.839 111.253 227.839 111.254 227.839H173.766C180.759 227.839 186.428 222.171 186.431 215.179L186.429 213.083Z" fill="#BCD1F3"/>
<path id="Path_2" d="M131.048 57.5046C131.049 58.1717 130.509 58.7136 129.842 58.7147C129.175 58.7159 128.633 58.1761 128.632 57.509C128.631 56.8419 129.171 56.2999 129.838 56.2988C129.839 56.2988 129.841 56.2988 129.842 56.2988C130.508 56.2986 131.048 56.8386 131.048 57.5046Z" fill="#B4C9EB"/>
<path id="Path_3" d="M134.336 56.0088H156.874C157.029 56.0088 157.155 56.1346 157.155 56.29V58.7191C157.155 58.8744 157.029 59.0003 156.874 59.0003H134.336C134.181 59.0003 134.055 58.8745 134.055 58.7191V56.29C134.055 56.1346 134.181 56.0088 134.336 56.0088Z" fill="#B4C9EB"/>
<path id="Oval_2" d="M142.269 225.19C144.931 225.19 147.088 223.032 147.088 220.371C147.088 217.709 144.931 215.552 142.269 215.552C139.608 215.552 137.451 217.709 137.451 220.371C137.451 223.032 139.608 225.19 142.269 225.19Z" fill="#B4C9EB"/>
<rect id="Rectangle" x="100.871" y="64.8845" width="83.2749" height="148.188" fill="white"/>
<g id="Group 5">
<rect id="Rectangle Copy" x="115.811" y="125.42" width="54.6144" height="54.6144" rx="6.4" fill="#E0E9F8"/>
<rect id="Rectangle_2" x="111.824" y="122.143" width="54.6144" height="54.6144" rx="6.4" fill="#ECF0F7"/>
<path id="Combined Shape" fill-rule="evenodd" clip-rule="evenodd" d="M140.87 147.394C140.349 147.661 139.758 147.812 139.131 147.812C138.505 147.812 137.914 147.661 137.393 147.394L135.772 158.335H142.491L140.87 147.394ZM136.657 146.903C135.832 146.202 135.308 145.156 135.308 143.989C135.308 141.877 137.02 140.166 139.131 140.166C141.243 140.166 142.954 141.877 142.954 143.989C142.954 145.156 142.431 146.202 141.606 146.903L143.35 158.676L143.418 159.135H142.954H135.308H134.845L134.913 158.676L136.657 146.903Z" fill="#E0E9F8"/>
<g id="Group 2">
<path id="Oval_3" fill-rule="evenodd" clip-rule="evenodd" d="M161.469 128.478C162.374 128.478 163.107 127.745 163.107 126.84C163.107 125.935 162.374 125.201 161.469 125.201C160.564 125.201 159.83 125.935 159.83 126.84C159.83 127.745 160.564 128.478 161.469 128.478Z" fill="#BCD1F3"/>
<path id="Oval Copy 4" fill-rule="evenodd" clip-rule="evenodd" d="M161.141 128.15C162.046 128.15 162.78 127.417 162.78 126.512C162.78 125.607 162.046 124.874 161.141 124.874C160.236 124.874 159.503 125.607 159.503 126.512C159.503 127.417 160.236 128.15 161.141 128.15Z" fill="#E0E9F8"/>
<path id="Path 4" opacity="0.1" d="M162.124 125.201L160.158 127.659" stroke="#0B4870" stroke-width="0.5"/>
</g>
<g id="Group 2 Copy">
<path id="Oval_4" fill-rule="evenodd" clip-rule="evenodd" d="M161.469 173.262C162.374 173.262 163.107 172.528 163.107 171.624C163.107 170.719 162.374 169.985 161.469 169.985C160.564 169.985 159.83 170.719 159.83 171.624C159.83 172.528 160.564 173.262 161.469 173.262Z" fill="#BCD1F3"/>
<path id="Oval Copy 4_2" fill-rule="evenodd" clip-rule="evenodd" d="M161.141 172.934C162.046 172.934 162.78 172.201 162.78 171.296C162.78 170.391 162.046 169.657 161.141 169.657C160.236 169.657 159.503 170.391 159.503 171.296C159.503 172.201 160.236 172.934 161.141 172.934Z" fill="#E0E9F8"/>
<path id="Path 4_2" opacity="0.1" d="M162.78 171.296H159.503" stroke="#0B4870" stroke-width="0.5"/>
</g>
<g id="Group 2 Copy 2">
<path id="Oval_5" fill-rule="evenodd" clip-rule="evenodd" d="M117.231 173.262C118.136 173.262 118.87 172.528 118.87 171.624C118.87 170.719 118.136 169.985 117.231 169.985C116.326 169.985 115.593 170.719 115.593 171.624C115.593 172.528 116.326 173.262 117.231 173.262Z" fill="#BCD1F3"/>
<path id="Oval Copy 4_3" fill-rule="evenodd" clip-rule="evenodd" d="M116.903 172.934C117.808 172.934 118.542 172.201 118.542 171.296C118.542 170.391 117.808 169.657 116.903 169.657C115.999 169.657 115.265 170.391 115.265 171.296C115.265 172.201 115.999 172.934 116.903 172.934Z" fill="#E0E9F8"/>
<path id="Path 4_3" opacity="0.1" d="M116.903 169.657V172.934" stroke="#0B4870" stroke-width="0.5"/>
</g>
<g id="Group 2 Copy 3">
<path id="Oval_6" fill-rule="evenodd" clip-rule="evenodd" d="M116.139 128.478C117.044 128.478 117.777 127.745 117.777 126.84C117.777 125.935 117.044 125.201 116.139 125.201C115.234 125.201 114.5 125.935 114.5 126.84C114.5 127.745 115.234 128.478 116.139 128.478Z" fill="#BCD1F3"/>
<path id="Oval Copy 4_4" fill-rule="evenodd" clip-rule="evenodd" d="M115.811 128.15C116.716 128.15 117.45 127.417 117.45 126.512C117.45 125.607 116.716 124.874 115.811 124.874C114.906 124.874 114.173 125.607 114.173 126.512C114.173 127.417 114.906 128.15 115.811 128.15Z" fill="#E0E9F8"/>
<path id="Path 4_4" opacity="0.1" d="M114.5 125.201L116.958 127.659" stroke="#0B4870" stroke-width="0.5"/>
</g>
</g>
</g>
</g>
</g>
<g id="Group 4">
<path id="Path_4" d="M121.616 97.0268H117.574L118.823 100.818L116.424 101.513L115.076 97.6903L111.691 100.186L110.147 98.3222L113.597 95.8578L110.245 93.5513L111.757 91.5608L115.076 93.8673L116.358 90.0443L118.823 90.8341L117.574 94.6887H121.616V97.0268Z" fill="#99B9EE"/>
<path id="Path_5" d="M139.457 97.0268H135.414L136.663 100.818L134.264 101.513L132.917 97.6903L129.532 100.186L127.988 98.3222L131.438 95.8578L128.086 93.5513L129.598 91.5608L132.917 93.8673L134.199 90.0443L136.663 90.8341L135.414 94.6887H139.457V97.0268Z" fill="#99B9EE"/>
<path id="Path_6" d="M157.297 97.0268H153.255L154.504 100.818L152.105 101.513L150.758 97.6903L147.373 100.186L145.828 98.3222L149.279 95.8578L145.927 93.5513L147.439 91.5608L150.758 93.8673L152.039 90.0443L154.504 90.8341L153.255 94.6887H157.297V97.0268Z" fill="#99B9EE"/>
<path id="Path_7" opacity="0.4" d="M175.138 97.0268H171.096L172.345 100.818L169.946 101.513L168.598 97.6903L165.213 100.186L163.669 98.3222L167.12 95.8578L163.768 93.5513L165.279 91.5608L168.598 93.8673L169.88 90.0443L172.345 90.8341L171.096 94.6887H175.138V97.0268Z" fill="#C5D6F1"/>
</g>
<g id="Character">
<g id="Group">
<path id="Path_8" d="M73.9373 223.819L73.4649 226.743C73.2765 227.909 73.9631 229.04 75.085 229.41L80.1078 231.069H68.3827L69.8017 223.819H73.9373V223.819Z" fill="#FCD2B1"/>
<path id="Path_9" d="M68.7064 229.414L74.5026 229.115C74.5026 229.115 81.7953 230.25 81.8406 231.832H67.3812L68.7064 229.414Z" fill="#0B4870"/>
<g id="Group_2">
<path id="Path_10" d="M105.064 223.819L106.267 227.489C106.53 228.293 107.159 228.924 107.962 229.189L113.655 231.069H101.93L100.277 223.819H105.064V223.819Z" fill="#FCD2B1"/>
<path id="Path_11" d="M101.705 229.414L108.05 229.115C108.05 229.115 115.342 230.25 115.388 231.832H100.928L101.705 229.414Z" fill="#0B4870"/>
</g>
<path id="Path_12" d="M75.9075 161.711C73.7838 161.596 73.9456 163.012 71.2429 160.831C68.5401 158.649 71.3868 163.959 71.3868 163.959C71.3868 163.959 76.0779 164.588 76.4164 162.513C76.7548 160.438 77.6489 161.804 75.9075 161.711Z" fill="#FCD2B1"/>
<path id="Path_13" d="M75.5175 156.149C75.5175 156.149 72.663 158.048 71.8312 165.333C70.9995 172.617 72.1557 177.888 71.4984 182.141L71.498 182.143C70.8402 186.396 69.5593 225.057 69.5593 225.057H75.7891L86.173 156.199L75.5175 156.149Z" fill="#0B4870"/>
<path id="Path_14" d="M89.0614 155.372H78.0486C78.0486 155.372 76.6876 163.587 79.0825 168.376C81.4773 173.166 82.7587 174.456 83.4459 177.239L83.446 177.239C84.1332 180.023 100.544 225.057 100.544 225.057H105.855L89.0614 155.372Z" fill="#0B4870"/>
<path id="Path_15" d="M73.1698 132.237C73.1698 132.237 62.093 148.019 63.3653 152.285C64.0116 154.452 68.9784 163.067 71.387 163.959L71.5115 161.927L71.3018 161.071L68.6542 150.264L75.2653 138.963L73.1698 132.237Z" fill="#FFE3CA"/>
<path id="Path_16" d="M87.439 132.012L73.1696 132.237L75.9428 153.407V153.407C76.2075 154.784 70.3202 161.607 73.98 161.607L90.7998 162.513C91.4223 162.513 90.3383 155.695 90.3383 155.072V147.363C92.0155 139.92 87.439 132.012 87.439 132.012Z" fill="#FDB32A"/>
<path id="Path_17" d="M68.7543 139.042L73.028 142.788L75.4588 138.606L73.1699 132.237L68.7543 139.042Z" fill="#FDB32A"/>
<path id="Path_18" d="M84.9202 120.365L86.3172 123.67C86.3172 123.67 87.1458 126.126 86.6664 127.562C86.1135 129.219 83.6228 129.209 83.6228 129.209L84.3714 133.25H78.0486V120.477L84.9202 120.365Z" fill="#FCD2B1"/>
<path id="Path_19" d="M84.5587 121.725C85.6951 120.958 85.917 119.381 85.0354 118.331C83.7967 116.856 81.659 115.095 78.6139 115.312C75.6151 115.525 72.727 117.366 72.6633 121.657C72.6208 124.528 71.1457 126.18 69.8865 130.113C67.5179 137.511 85.3343 140.432 85.5461 130.503C85.6467 125.791 82.4895 124.954 82.8294 122.629C83.4697 122.393 84.0563 122.064 84.5587 121.725Z" fill="#0B4870"/>
<path id="Path_20" d="M118.602 118.655C119.707 115.633 118.678 114.578 118.281 114.099C118.2 114.002 115.782 118.301 115.55 118.031C115.082 117.485 114.725 116.854 114.587 117.029C113.959 117.828 114.253 119.129 114.614 119.959C114.82 120.431 113.997 121.603 113.675 122.005L100.724 132.012H87.6221C84.9227 132.546 86.2534 138.169 89.4856 138.04C92.321 137.927 99.6766 137.616 102.895 135.595C106.113 133.574 116.624 121.313 116.624 121.313C118.043 120.236 118.512 118.9 118.602 118.655Z" fill="#FFE3CA"/>
<path id="Path_21" d="M94.4067 132.012L94.639 137.699L87.3422 138.387C87.3422 138.387 83.8435 133.202 87.0683 132.012C88.4924 131.487 94.4067 132.012 94.4067 132.012Z" fill="#FDB32A"/>
</g>
</g>
</g>
</g>
<g id="Group 4_2">
<path id="Oval_7" fill-rule="evenodd" clip-rule="evenodd" d="M55.1295 37.4631C61.9412 37.4631 67.4632 31.9411 67.4632 25.1294C67.4632 18.3177 61.9412 12.7957 55.1295 12.7957C48.3178 12.7957 42.7958 18.3177 42.7958 25.1294C42.7958 31.9411 48.3178 37.4631 55.1295 37.4631Z" fill="white"/>
<path id="Fill 155" fill-rule="evenodd" clip-rule="evenodd" d="M66.4113 25.2227C66.4113 31.392 61.392 36.4109 55.2231 36.4109C49.0538 36.4109 44.0345 31.392 44.0345 25.2227C44.0345 19.0538 49.0538 14.0345 55.2231 14.0345C61.392 14.0345 66.4113 19.0534 66.4113 25.2227ZM55.2231 12C47.9202 12 42 17.9202 42 25.2231C42 32.526 47.9202 38.4462 55.2231 38.4462C55.3367 38.4462 55.4489 38.4404 55.5618 38.4374C56.4164 38.4159 57.2503 38.3145 58.0563 38.1385C61.0816 37.4775 63.7185 35.7821 65.5789 33.4403C67.3723 31.1834 68.4458 28.3296 68.4458 25.2231C68.4458 22.1166 67.3723 19.2627 65.5789 17.0059C63.1567 13.9572 59.4195 12 55.2231 12Z" fill="#C5D6F1"/>
<path id="Fill 157" fill-rule="evenodd" clip-rule="evenodd" d="M55.223 26.5338L51.1548 24.6256L55.223 18.0831L59.2912 24.6256L55.223 26.5338ZM55.223 32.3625L51.1548 25.82L55.223 28.4826L59.2912 25.82L55.223 32.3625ZM55.223 14.0344C49.0537 14.0344 44.0348 19.0537 44.0348 25.2226C44.0348 31.3919 49.0537 36.4108 55.223 36.4108C61.3919 36.4108 66.4112 31.3919 66.4112 25.2226C66.4112 19.0533 61.3919 14.0344 55.223 14.0344Z" fill="#E0E9F8"/>
</g>
<path id="Path Copy 2" d="M66.4576 12.2325L65.9999 11L65.5424 12.2325C65.1568 13.2715 64.2406 14.1485 63 14.6667C64.2406 15.1848 65.1568 16.0618 65.5424 17.1008L65.9999 18.3333L66.4576 17.1008C66.8432 16.0618 67.7594 15.1848 69 14.6667C67.7594 14.1483 66.8432 13.2713 66.4576 12.2325Z" fill="white"/>
<path id="Fill 15" fill-rule="evenodd" clip-rule="evenodd" d="M75.7425 37.6757C72.9087 34.8919 69.6588 29.9717 59.2653 33.5981C58.4572 33.88 57.6747 34.2537 56.897 34.6303C55.9808 35.0737 53.1426 35.0853 50.2357 32.4491C45.617 28.2599 43.8105 25.099 37.482 25.0009C30.119 24.8865 28.9608 35.3709 23.2378 38.0542C19.596 39.7621 9.98733 41.4594 8 42.216L79.8831 42.5945C79.8831 42.5945 77.3158 39.2215 75.7425 37.6757Z" fill="#E0E9F8"/>
<path id="Fill 15_2" fill-rule="evenodd" clip-rule="evenodd" d="M269.743 55.6757C266.909 52.8919 263.659 47.9717 253.265 51.5981C252.457 51.88 251.675 52.2537 250.897 52.6303C249.981 53.0737 247.143 53.0853 244.236 50.4491C239.617 46.2599 237.811 43.099 231.482 43.0009C224.119 42.8865 222.961 53.3709 217.238 56.0542C213.596 57.7621 203.987 59.4594 202 60.216L273.883 60.5945C273.883 60.5945 271.316 57.2215 269.743 55.6757Z" fill="#E0E9F8"/>
<g id="Group 3_2">
<path id="Fill 51" fill-rule="evenodd" clip-rule="evenodd" d="M240.294 5.76557C248.007 7.12559 253.176 14.5072 251.816 22.2202C250.456 29.9333 243.074 35.102 235.361 33.7419C227.648 32.3819 222.479 25.0003 223.839 17.2873C225.199 9.57419 232.581 4.40555 240.294 5.76557ZM234.913 36.2862C244.043 37.8961 252.75 31.7995 254.36 22.6689C255.138 18.2559 254.112 13.9442 251.817 10.4826C249.364 6.78228 245.46 4.05321 240.743 3.22135C231.63 1.61449 222.94 7.68489 221.306 16.7862C221.303 16.8038 221.298 16.821 221.295 16.8386C219.685 25.9693 225.782 34.6762 234.913 36.2862Z" fill="#C5D6F1"/>
<path id="Fill 53" fill-rule="evenodd" clip-rule="evenodd" d="M239.503 18.5198C239.928 18.4137 240.232 18.0542 240.333 17.4825C240.429 16.9376 240.262 16.5215 239.897 16.2886C239.761 16.2021 239.599 16.1415 239.413 16.1087L237.473 15.7666L237.046 18.1886L238.986 18.5308C239.172 18.5636 239.346 18.5585 239.503 18.5198Z" fill="#E0E9F8"/>
<path id="Fill 55" fill-rule="evenodd" clip-rule="evenodd" d="M238.617 23.5455C239.228 23.4898 239.656 23.0962 239.776 22.4175C239.885 21.7944 239.616 21.2907 239.06 21.0326C238.916 20.9652 238.753 20.9144 238.571 20.8824L236.631 20.5403L236.169 23.1593L238.106 23.5194C238.287 23.5514 238.458 23.5595 238.617 23.5455Z" fill="#E0E9F8"/>
<path id="Fill 57" fill-rule="evenodd" clip-rule="evenodd" d="M237.75 11.5283L237.467 13.1378L238.378 13.2984L238.661 11.6889L240.646 12.0389L240.36 13.6604C242.314 14.1378 243.341 15.5536 243.021 17.3687C242.791 18.6692 241.959 19.6063 240.878 19.7835C242.046 20.3204 242.586 21.6826 242.303 23.2865C241.937 25.3658 240.336 26.4444 238.161 26.1335L237.837 27.9672L235.853 27.6173L236.176 25.7869L235.265 25.6263L234.942 27.4567L232.958 27.1068L233.28 25.2764L231.801 25.0156L232.25 22.4684L233.665 22.7179L234.969 15.3252L233.554 15.0757L234.003 12.5271L235.482 12.7879L235.766 11.1784L237.75 11.5283ZM223.839 17.2873C222.479 25.0004 227.648 32.3819 235.361 33.742C243.074 35.1021 250.456 29.9334 251.816 22.2203C253.176 14.5073 248.007 7.12574 240.294 5.76566C232.581 4.40564 225.199 9.57428 223.839 17.2873Z" fill="#E0E9F8"/>
<path id="Fill 59" fill-rule="evenodd" clip-rule="evenodd" d="M236.631 20.5402L238.571 20.8823C238.752 20.9143 238.916 20.9651 239.06 21.0325C239.616 21.2906 239.886 21.7944 239.776 22.4174C239.656 23.0962 239.228 23.4898 238.617 23.5454C238.458 23.5594 238.287 23.5512 238.106 23.5193L236.169 23.1592L236.631 20.5402ZM237.472 15.7665L239.413 16.1086C239.599 16.1414 239.762 16.2021 239.896 16.2885C240.261 16.5214 240.429 16.9374 240.333 17.4824C240.232 18.054 239.928 18.4136 239.503 18.5197C239.346 18.5584 239.172 18.5635 238.986 18.5306L237.045 18.1885L237.472 15.7665ZM235.482 12.7877L234.003 12.527L233.554 15.0755L234.969 15.325L233.665 22.7177L232.251 22.4682L231.801 25.0155L233.28 25.2762L232.957 27.1066L234.942 27.4565L235.265 25.6261L236.176 25.7868L235.853 27.6172L237.837 27.967L238.161 26.1333C240.336 26.4443 241.937 25.3657 242.303 23.2863C242.586 21.6824 242.046 20.3203 240.878 19.7834C241.959 19.6061 242.791 18.669 243.02 17.3685C243.34 15.5534 242.314 14.1376 240.36 13.6602L240.646 12.0387L238.662 11.6888L238.378 13.2983L237.467 13.1376L237.75 11.5281L235.766 11.1782L235.482 12.7877Z" fill="white"/>
</g>
<path id="Path Copy 2_2" d="M224.458 29.2325L224 28L223.542 29.2325C223.157 30.2715 222.241 31.1485 221 31.6667C222.241 32.1848 223.157 33.0618 223.542 34.1008L224 35.3333L224.458 34.1008C224.843 33.0618 225.759 32.1848 227 31.6667C225.759 31.1483 224.843 30.2713 224.458 29.2325Z" fill="white"/>
<path id="Path Copy" d="M257.494 2.03928L256.766 0L256.04 2.03928C255.427 3.75838 253.971 5.20938 252 6.06667C253.971 6.92395 255.427 8.37495 256.04 10.0941L256.766 12.1333L257.494 10.0941C258.106 8.37495 259.562 6.92395 261.533 6.06667C259.562 5.20893 258.106 3.75793 257.494 2.03928Z" fill="white"/>
</g>
</svg>
